<svg width="323" height="211" viewBox="0 0 323 211" fill="none" xmlns="http://www.w3.org/2000/svg">
<rect x="2" y="2" width="319" height="207" rx="8" fill="#FFB59F"/>
<rect x="2" y="2" width="319" height="207" rx="8" stroke="black" stroke-width="4"/>
<mask id="path-2-inside-1_2093_15312" fill="white">
<path d="M8 23C8 14.7157 14.7157 8 23 8H300C308.284 8 315 14.7157 315 23V34C315 42.2843 308.284 49 300 49H23C14.7157 49 8 42.2843 8 34V23Z"/>
</mask>
<path d="M8 23C8 14.7157 14.7157 8 23 8H300C308.284 8 315 14.7157 315 23V34C315 42.2843 308.284 49 300 49H23C14.7157 49 8 42.2843 8 34V23Z" fill="#A93710"/>
<path d="M8 8H315H8M315 34C315 44.4934 306.493 53 296 53H27C16.5066 53 8 44.4934 8 34C8 40.0751 14.7157 45 23 45H300C308.284 45 315 40.0751 315 34ZM315 34M8 49V8V49M8 49M315 8V49V8" fill="black" mask="url(#path-2-inside-1_2093_15312)"/>
<rect x="8" y="49" width="303" height="150" rx="15" fill="#FFDED6"/>
<rect x="181" y="75" width="104" height="107" fill="white"/>
<rect x="181" y="75" width="104" height="107" stroke="black" stroke-width="4"/>
<rect x="8" y="8" width="4" height="4" fill="white" fill-opacity="0.4"/>
<rect x="8" y="8" width="4" height="4" fill="black"/>
<rect x="310.66" y="8" width="4" height="4" fill="black"/>
<rect x="8" y="199" width="4" height="4" fill="black"/>
<rect x="310.66" y="199" width="4" height="4" fill="black"/>
</svg>
