<svg width="1440" height="465" viewBox="0 0 1440 465" fill="none" xmlns="http://www.w3.org/2000/svg">
<g clip-path="url(#clip0_2093_9265)">
<path d="M751.452 15.0099C751.762 13.5038 752.043 12.5928 752.507 11.141C756.201 9.09306 761.408 9.97734 765.644 10.245C776.135 10.5542 786.576 9.68779 796.997 10.1637L801.641 10.1715L810.021 10.2516C810.964 10.242 813.194 10.2867 814.017 10.1754C816.431 10.0828 824.311 9.55579 825.943 10.6672C831.875 14.6992 829.518 14.8401 836.8 15.1205L839.558 15.4539L841.31 15.8771C841.81 17.5818 841.726 18.3295 841.69 20.1016C843.675 20.1145 846.405 20.2407 848.304 19.8746L850.429 20.7123C850.837 22.3467 850.922 22.6811 850.929 24.3878L854.623 25.1728C856.558 28.3611 854.827 28.8921 857.824 30.2366C859.83 30.2162 862.011 30.034 863.889 30.7324C864.896 32.3097 864.783 32.9912 864.776 34.955L868.259 35.4156C869.342 36.9609 869.3 38.0776 869.49 40.0493C871.805 40.0071 872.319 39.5128 873.705 40.9342C873.536 43.971 873.254 42.8574 874.901 45.3807C876.02 45.8486 877.145 46.2133 878.032 47.1113C878.292 49.8493 878.18 51.5541 878.06 54.27L877.751 60.6634L882.704 59.9287C885.216 60.0753 885.476 60.6022 887.052 59.1049L887.334 54.7078L890.022 54.5865C889.529 53.051 889.599 53.6211 890.24 51.8412C892.168 50.0459 893.132 50.043 895.552 49.7206L896.46 46.5331C901.842 43.7325 901.357 39.9373 909.195 39.4816C910.806 31.5088 918.63 36.9504 923.056 34.5545C924.295 33.8862 922.824 32.221 927.637 30.4845L932.273 30.3728C945.459 30.9233 959.137 30.3085 972.443 30.5348C972.872 33.755 972.351 33.1115 974.11 34.9208C976.636 35.4853 978.156 35.2617 980.696 35.0787L986.557 35.1832C992.038 34.9775 993.509 34.2467 996.64 39.7392L999.469 40.3363C999.961 43.5287 999.455 43.6449 1001.4 45.2318L1007.07 45.7318L1007.64 45.369L1011.89 45.3432C1013.63 47.2676 1012.06 48.0072 1014.79 49.7303C1019.11 52.4483 1026.47 51.7359 1026.91 59.0717L1026.51 60.0839L1030.94 60.1685L1031.91 64.3386C1035.86 65.1837 1035.28 65.3522 1036.89 69.6712C1041.07 69.8357 1041.22 66.4592 1043.96 67.3994L1045.32 65.7588C1046.72 62.75 1057.38 50.7923 1060.3 49.9315C1061.44 49.2094 1063.26 45.9334 1063.05 45.9921C1068.62 44.4828 1066.64 47.0882 1067.91 40.3219C1072.81 36.5162 1080.5 37.1892 1080.6 31.4815C1080.64 29.2694 1087.53 30.8697 1088.83 29.4844C1089.66 28.6002 1089.73 26.913 1089.98 25.5568C1094.51 22.3926 1095.93 29.0326 1099.47 21.414C1101.01 21.8808 1102.65 22.4091 1104.2 22.7915C1109.15 19.2373 1159.2 22.6557 1168.77 21.3791C1171.45 21.022 1180.26 21.7239 1182.72 22.9286C1181.08 24.5334 1178.47 24.731 1176.41 24.0058C1175.99 23.2993 1175.64 22.7358 1175.29 21.982L1174.51 24.175C1171.95 24.1946 1158.7 23.8647 1157.28 24.6311C1159.8 29.8835 1181.14 20.8086 1183.99 28.5865C1184.26 29.32 1184.56 29.9719 1184.81 30.7342C1190.93 33.9195 1199.92 28.7755 1202.93 32.712C1201.6 34.4917 1197 34.7624 1194.66 35.0605C1199.34 35.586 1215.57 36.9355 1214.55 44.6472L1210.78 44.9791L1211.16 45.7437C1214.22 46.2518 1216.57 46.434 1219.66 46.6245L1219.73 50.4705C1222.59 52.6979 1222.17 49.5824 1224.12 52.5899C1224.3 55.2928 1224.13 58.3997 1225.83 60.1723L1226.29 59.9608L1225.19 56.6364L1225.7 55.8328L1228.2 56.0295C1228.38 58.8674 1228.19 63.1098 1229.48 65.1068L1232.86 65.7626C1233.67 67.4996 1233.1 68.4903 1233.36 69.6887C1233.65 71.0097 1238.96 74.9374 1240.01 75.6847C1243.24 77.9656 1239.5 79.6416 1244.68 81.0382C1251.3 83.0388 1251.86 77.4137 1252.88 71.9056C1255.18 70.4841 1258.45 72.5103 1261.37 70.7014L1261.32 70.1095C1259.49 69.449 1258.19 69.361 1257.08 67.912L1257.61 66.3259C1260.1 66.032 1263.19 66.7449 1265 65.5583C1265.56 64.035 1266.09 61.8676 1267.62 61.2353L1268.03 60.1779C1270.35 59.6219 1270.1 57.0282 1270.42 54.7927L1270.94 54.8106C1272.86 50.4708 1275 50.0511 1278.84 49.9727L1282.79 50.0788C1288.95 50.3523 1291.62 52.0505 1293.24 45.201C1299.29 44.7554 1295.61 43.8796 1301.73 40.4417C1307.38 40.373 1317.18 38.7396 1320.56 44.4002C1325.42 46.3347 1335.44 44.4688 1341.55 45.9887C1342.13 49.0478 1341.59 48.5029 1343.37 49.9965L1346.29 49.9376C1346.74 52.5853 1346.38 53.1627 1347.99 54.544L1351.18 54.8778C1352.38 54.9478 1354.17 54.9898 1355.3 55.1554L1358.52 55.2958C1360.79 58.3467 1357.7 57.0597 1360.53 59.9033L1364.03 60.1444C1365.04 61.4396 1364.62 64.4502 1364.77 64.5043C1366.92 65.2637 1369.39 64.0854 1369.14 68.3093C1368.97 71.0829 1371.42 70.4062 1373.09 70.3902C1374.94 74.4856 1370.96 76.0464 1377.35 75.2343C1378.86 77.9421 1377.72 83.0881 1379.03 84.8324L1382.87 85.4131L1384.05 90.6547C1387.14 89.8786 1387.1 88.1155 1388.27 85.1575L1389.21 85.3506C1391.23 80.495 1390.65 80.1371 1395.44 79.8987C1395.67 78.4607 1396.1 76.9594 1396.48 75.55C1399.43 75.5623 1404.47 72.8612 1406.25 70.5768C1407.63 70.5143 1408.81 70.4611 1409.79 70.417C1418.7 70.1814 1426.73 70.0028 1435.66 70.344C1436.93 74.873 1436.29 75.0811 1441 75.555V85.392V394.576C1438.16 395.295 1438.27 394.717 1436.81 396.95C1436.44 399.687 1436.64 402.281 1436.76 405.038C1428.73 404.716 1424.3 403.27 1422 409.692C1421.66 410.655 1411.9 409.185 1409.53 410.407C1409.46 411.078 1409.26 414.27 1409.06 414.439C1406.47 416.523 1392.04 412.176 1391.59 416.531C1391.54 416.978 1391.54 419.303 1391.56 419.997C1387.1 418.21 1372.43 418.781 1367.19 418.781C1370.11 418.531 1384.06 418.466 1385.44 417.786C1387.71 418.355 1386.86 418.515 1388.81 417.187C1389.76 414.839 1389.66 415.806 1388.92 413.165C1384.96 408.269 1383.56 409.349 1378.99 409.946C1365.34 411.725 1351.01 409.803 1337.22 410.826C1320.4 412.01 1303.63 413.913 1286.93 416.531C1280.53 417.579 1278.16 420.387 1271.56 420.032C1253.3 419.049 1234.61 421.485 1216.46 418.874C1214.61 418.608 1212.42 417.931 1210.7 418.041C1210.02 418.197 1208.91 420.952 1208.54 420.677C1205.24 418.163 1182.54 414.095 1179.54 415.843C1170.58 422.326 1161.92 417.193 1152.91 418.075C1145.9 418.76 1136.98 421.042 1129.86 421.983C1126.51 422.426 1123.85 427.983 1114.94 427.504C1110.82 427.282 1097.38 434.71 1091.5 434.161C1089.97 434.348 1087.36 438.65 1085.81 439.298C1077.7 441.305 1052.2 446.7 1046.99 452.867L1046.83 453.401L1049.03 453.706L1049.33 454.407L1048.51 453.475C1048.36 453.277 1051.94 461.35 1052.06 461.715C1053.59 462.099 1054.32 462.162 1055.88 462.279C1050.83 462.527 1019.13 462.342 1017.8 462.924C1024.12 465.464 1030.55 463.536 1036.68 465H4.25246C4.38213 461.071 5.03963 457.977 3.18748 454.983L0 454.341V100.628V95.1562C2.46697 94.8733 2.34512 95.2898 4.16291 93.8222L4.71768 89.3488L4.39406 86.6893C4.31406 84.7128 3.95567 82.3292 4.95866 80.7998L7.13963 80.4341C10.4284 78.4803 8.01641 78.6413 10.1229 75.2918L13.1073 74.7413L13.7575 71.6458C15.4967 70.6506 19.9439 66.411 21.8564 64.848C23.0517 63.8712 22.7214 62.4593 22.8124 60.4053C26.042 59.9799 30.0188 60.7997 31.7654 59.4111L31.779 55.8286C32.9549 53.7522 36.7537 55.9018 40.6783 54.5256C40.7098 52.7269 40.7142 52.4774 40.7633 52.3668C43.3187 46.6193 54.2455 53.9341 57.9282 46.3828C59.0875 44.0056 81.1723 45.3066 84.0797 46.7975C85.1337 47.338 84.8895 49.4755 90.0639 50.1013C92.7447 50.097 101.353 49.8918 103.477 50.4547C103.779 51.7783 104.04 53.113 104.261 54.4564C106.254 54.7639 115.133 56.4455 116.471 56.414L116.642 57.9596L117.033 59.9698C120.486 59.628 121.698 60.8485 124.63 62.9795L125.815 65.2186C127.473 65.0054 128.969 64.5846 130.32 65.6474C130.331 68.7125 129.936 68.0216 131.303 70.095L134.781 70.3298C135.476 71.8484 135.407 72.911 135.471 74.6069C137.203 75.08 137.864 75.0539 139.657 75.0577C140.049 76.7145 140.12 77.4367 140.258 79.1469C149.653 81.5751 151.541 84.2244 157.89 73.0229C159.062 70.9556 159.506 71.4283 161.286 71.632C161.974 71.5604 166.575 65.8125 167.143 65.004C168.837 64.9905 169.325 65.0695 170.74 64.0711L171.395 60.7875C174.452 60.1879 176.79 60.0024 179.891 59.7657L183.224 60.6605C185.016 60.5353 187.305 60.2992 189.059 60.3596L189.696 54.8469C191.061 54.8342 196.431 54.6956 197.457 54.8846C202.16 55.0276 205.964 54.9608 210.656 54.7498L211.802 52.2248C213.196 50.7946 216.594 50.8092 219.237 50.1491L233.94 50.0704C242.87 50.3161 235.625 53.1449 242.317 54.9596C245.205 54.8291 245.928 54.1752 247.634 55.9057C247.862 56.7323 248.551 59.4773 248.912 60.0224L255.76 60.3894C257.325 65.5685 258.827 65.7272 263.847 66.4922L265.727 65.7078L269.808 64.8891L270.313 60.2983L274.449 59.9933L274.367 59.5606L274.933 55.8373C276.557 54.375 276.047 54.808 278.727 55.0992C282.003 54.1636 283.216 53.0374 284.55 49.6551C285.511 48.8499 287.617 46.3484 288.562 45.2854L292.83 45.171L295.582 44.879C297.377 43.3291 296.907 42.9248 297.287 39.841C297.778 35.7692 298.564 36.4831 301.816 35.7112L305.129 34.7339C305.557 33.1629 305.759 32.631 306.432 31.1691C308.78 29.6728 312.319 30.2567 315.132 30.4247C317.726 30.5809 320.205 30.8942 322.733 30.2365C324.666 28.388 324.134 28.3405 324.459 24.9577L327.61 25.0726L344.562 25.0662C348.904 24.9927 359.869 24.4823 363.523 25.5116C365.675 29.0578 362.649 28.9017 365.666 30.5446C368.18 30.3854 370.743 30.1064 373.23 30.4858C374.794 32.9887 372.78 34.2302 375.686 34.9206C378.168 35.5106 380.924 34.3861 382.794 35.9972L382.963 39.5292C386.078 40.5725 390.423 40.1267 391.621 41.4509L391.8 44.9578C393.463 45.6637 395.968 44.99 396.172 46.0537C396.916 49.9289 395.469 50.0435 400.181 50.2128C400.658 51.8794 400.743 52.5795 400.949 54.3086C403.83 55.5731 404.756 53.8251 405.276 55.7171C406.12 58.7833 404.826 58.079 406.688 60.2772L404.084 60.8841L405.005 63.5141C409.138 65.7679 412.073 73.7126 418.342 75.2665C424.528 76.7998 421.189 73.704 425.19 70.7434C425.713 70.3564 430.675 71.3303 432.51 69.385L431.312 68.6774L431.631 67.2846C433.538 65.7423 437.643 62.3499 439.575 61.1397C440.73 60.4158 444.727 61.4206 447.148 59.9222L447.281 55.8782C448.33 54.9954 454.569 54.9022 456.675 54.6495C457.288 54.5862 458.157 54.1406 458.764 53.8696C459.572 46.1767 472.258 52.6443 476.602 49.3355C478.143 48.162 478.017 47.0268 478.538 45.0647L478.724 45.0612C485.89 44.8586 491.31 36.0331 501.046 44.9376C504.671 45.0693 514.85 44.9882 517.483 45.8586L518.847 48.9391L521.51 49.9212L514.922 50.2341C517.061 51.7281 517.827 51.6535 520.265 51.6154L521.043 52.6127L520.351 53.9271L518.075 54.4302C520.872 55.6286 521.192 55.3392 523.635 54.5236C525.388 55.0985 526.438 57.0006 527.599 58.6352C528.161 54.6818 534.897 57.2533 539.05 55.3791C541.269 55.1692 540.592 52.176 541.282 51.2771C545.304 46.0377 554.27 43.492 554.708 36.3096C557.28 36.1717 561.468 36.1743 563.71 35.1825C562.96 33.3564 561.031 34.6806 558.698 32.58C560.082 30.1203 565.951 32.8231 568.87 30.7092L568.686 27.9488C571.102 24.5787 578.196 27.1538 582.475 25.4712L582.642 24.5036C580.497 24.4791 578.851 23.5832 576.918 22.9565C576.852 22.9354 575.389 24.4249 573.458 24.5946L573.241 22.6225C576.599 20.5378 596.608 21.7052 602.364 21.4591C605.358 19.0271 602.769 19.4427 604.88 16.3884C608.424 15.1461 625.239 16.2355 631.141 15.7553C633.501 15.8765 646.039 15.8284 647.008 16.7291C649.363 20.869 644.8 22.7283 653.176 21.2904C649.98 20.7149 649.063 20.8024 647.935 17.2282C649.429 14.5329 648.677 15.3405 651.836 14.3019C656.856 15.2257 663.891 13.95 666.79 16.8129C668.105 21.3995 671.089 20.3256 675.211 20.5159L678.573 20.7653C681.12 24.0825 683.745 25.6639 685.34 29.8107C685.475 30.1604 691.756 30.5063 692.52 30.5411C694.575 33.2258 692.52 34.0934 694.733 36.0049L697.664 36.2085C697.89 38.2854 698.105 43.0171 699.283 44.2824L699.64 44.3018C700.7 44.3644 701.043 44.3093 701.966 44.92L702.984 47.2883C711.634 47.5645 714.238 35.5647 719.536 34.6613C720.697 30.126 720.549 30.7195 724.335 30.2268L729.464 29.5928L729.893 24.8896L731.174 24.895C734.446 18.8742 736.563 21.661 739.652 15.8715L742.08 15.391C745.872 14.897 747.681 14.6044 751.452 15.0099Z" fill="#D6E1E6"/>
<path d="M344.562 25.0662C348.904 24.9927 359.869 24.4823 363.523 25.5116C365.675 29.0578 362.649 28.9017 365.666 30.5446C368.181 30.3854 370.743 30.1064 373.23 30.4858C374.794 32.9887 372.78 34.2302 375.686 34.9206C378.168 35.5106 380.924 34.3861 382.794 35.9972L382.964 39.5292C386.078 40.5725 390.423 40.1267 391.621 41.4509L391.8 44.9578C393.464 45.6637 395.968 44.99 396.173 46.0537C396.916 49.9289 395.47 50.0434 400.182 50.2128C400.658 51.8794 400.743 52.5795 400.949 54.3086C403.83 55.5731 404.757 53.8251 405.277 55.7171C406.12 58.7833 404.826 58.079 406.689 60.2772L404.085 60.884C396.414 58.6181 399.155 51.1776 391.433 50.4787L390.818 46.6506C388.138 46.3699 386.686 46.2973 384.094 45.319L384.426 44.2251C385.364 43.4712 385.454 43.2385 386.043 42.1241C383.997 40.5497 380.583 41.9392 377.148 40.5336L376.785 39.3371C378.71 38.1742 379.578 40.124 381.436 38.8604C376.559 33.742 364.922 37.7616 361.467 34.2919C364.319 34.2206 368.582 34.3762 371.105 33.2783L370.253 32.2354C366.056 30.8672 323.068 31.6943 315.823 31.729L316.123 32.9448C318.062 35.1454 319.591 32.9072 323.733 33.9417L324.235 34.8719C323.404 35.7238 310.971 35.4246 308.865 36.2947C305.363 37.7428 308.751 42.484 301.84 41.0126C300.308 40.6862 299.968 40.9281 298.797 41.7691L298.272 45.2011C296.198 47.4846 296.803 45.6231 293.925 46.5334C292.654 46.9352 294.541 48.9583 292.767 50.0342C287.501 53.2293 282.046 53.5299 279.401 59.8914L274.45 59.9933L274.367 59.5606L274.934 55.8373C276.558 54.375 276.047 54.8079 278.727 55.0992C282.003 54.1636 283.217 53.0373 284.551 49.6551C285.511 48.8499 287.618 46.3484 288.562 45.2854L292.831 45.171L295.583 44.879C297.377 43.3291 296.907 42.9248 297.287 39.841C297.778 35.7692 298.564 36.4831 301.816 35.7112L305.129 34.7339C305.557 33.1629 305.759 32.631 306.432 31.1691C308.78 29.6728 312.319 30.2567 315.132 30.4247C317.727 30.5809 320.205 30.8942 322.733 30.2365C324.666 28.388 324.134 28.3405 324.459 24.9577L327.61 25.0726L344.562 25.0662Z" fill="#B9DEE3"/>
<path d="M219.237 50.1491L233.94 50.0704C242.87 50.3161 235.624 53.1449 242.317 54.9596C245.205 54.8291 245.928 54.1752 247.634 55.9057C247.862 56.7323 248.551 59.4773 248.912 60.0224L255.76 60.3894C257.325 65.5685 258.827 65.7272 263.846 66.4922L265.726 65.7078L269.808 64.8891L270.313 60.2983L274.449 59.9933L279.4 59.8914C275.232 62.1254 277.148 61.5651 274.602 65.7134L271.219 65.9107C271.019 67.3214 270.79 68.7267 270.531 70.1254C270.377 71.0017 270.366 70.7523 269.433 71.449C265.254 71.5984 256.255 71.431 252.402 69.8863L251.805 66.4681C248.935 63.5087 250.294 66.7353 246.708 64.4858L247.34 62.6238L246.701 61.4643C243.7 60.1721 238.414 61.9128 235.125 61.5025C232.293 61.1491 234.231 59.6826 232.454 56.9893C226.309 56.0165 198.887 56.4091 190.716 56.9088C190.469 56.924 190.265 58.3262 190.158 58.838C191.527 60.2062 197.709 58.5395 201.375 59.9042L200.748 60.8609C198.102 61.6821 191.513 61.6187 189.059 60.3596L189.695 54.8469C191.061 54.8342 196.43 54.6956 197.457 54.8846C202.16 55.0276 205.964 54.9608 210.656 54.7498L211.801 52.2248C213.196 50.7946 216.594 50.8092 219.237 50.1491Z" fill="#C2DFE3"/>
<path d="M219.238 50.1491L233.94 50.0704C233.826 51.598 233.816 52.1386 233.941 53.6769C232.186 55.1931 214.361 54.7443 210.656 54.7498L211.802 52.2248C213.196 50.7946 216.594 50.8092 219.238 50.1491Z" fill="#B9DEE3"/>
<path d="M242.317 54.9596C245.205 54.8291 245.928 54.1752 247.634 55.9057C247.862 56.7323 248.551 59.4773 248.912 60.0224L244.333 59.9619C242.478 58.4597 242.896 57.9676 242.317 54.9596Z" fill="#BBD8DC"/>
<path d="M932.274 30.3728C945.459 30.9233 959.138 30.3085 972.443 30.5348C972.872 33.755 972.352 33.1115 974.111 34.9208C976.637 35.4853 978.156 35.2617 980.696 35.0787L986.558 35.1832C992.039 34.9775 993.509 34.2467 996.64 39.7392L999.469 40.3363C999.961 43.5287 999.455 43.6449 1001.4 45.2318L1007.07 45.7318L1007.07 46.3109C1003.1 46.6626 995.761 46.4546 991.863 46.1188L991.729 45.4196C994.382 43.8686 995.029 43.8025 997.977 43.5323L998.223 42.3553L997.499 41.367C993.615 42.322 985.01 39.4014 981.893 42.0555L982.645 43.7649L986.431 44.9538L985.65 45.5995C979.001 44.0017 983.828 40.3407 973.618 39.5773C974.237 39.1485 985.959 38.9382 988.654 38.4005L989.126 37.4605C984.996 35.3403 933.554 34.8196 929.361 36.7447L928.362 40.262C925.723 41.751 917.146 40.9112 913.755 40.6581L912.699 40.4829L909.195 39.4816C910.807 31.5088 918.631 36.9504 923.056 34.5545C924.295 33.8862 922.824 32.221 927.637 30.4845L932.274 30.3728Z" fill="#C5DBE2"/>
<path d="M927.637 30.4845C927.785 33.3368 928.073 35.1175 927.025 37.7472C923.253 41.2199 919.89 38.4034 913.755 40.6581L912.699 40.4829L909.195 39.4816C910.807 31.5088 918.631 36.9504 923.056 34.5545C924.295 33.8862 922.824 32.221 927.637 30.4845Z" fill="#C2DFE3"/>
<path d="M90.064 50.1013C92.7447 50.097 101.353 49.8918 103.477 50.4547C103.779 51.7783 104.041 53.113 104.261 54.4563C106.254 54.7639 115.133 56.4455 116.471 56.414L116.642 57.9596L117.033 59.9698C120.486 59.628 121.698 60.8485 124.63 62.9795L125.815 65.2186C127.473 65.0054 128.97 64.5846 130.32 65.6474C130.331 68.7125 129.936 68.0216 131.303 70.095L134.781 70.3298C135.476 71.8484 135.407 72.911 135.471 74.6069C137.203 75.08 137.864 75.0539 139.657 75.0577C140.049 76.7145 140.12 77.4367 140.258 79.1469C149.653 81.5751 151.541 84.2244 157.89 73.0229C159.062 70.9556 159.506 71.4283 161.286 71.632C161.974 71.5604 166.575 65.8125 167.143 65.004C168.837 64.9905 169.325 65.0695 170.74 64.0711L171.395 60.7875C174.453 60.1879 176.79 60.0024 179.891 59.7657L183.224 60.6605C178.88 61.2821 172.326 64.8489 168.119 67.1028L167.699 70.3983C166.076 72.0387 166.557 71.5382 163.708 71.5436C163.145 74.0424 163.394 74.4942 161.91 76.2865L159.178 76.2679L157.997 77.612L158.062 78.8085L160.76 78.9484L161.111 79.4533C158.643 79.7635 156.125 79.8268 154.029 81.2445C153.678 82.645 153.524 83.6156 153.307 85.0356C150.913 86.1524 141.604 85.8476 139.471 83.9149C141.537 83.786 142.385 84.1642 143.693 82.8528C140.467 80.3418 133.658 79.3939 130.396 75.0582C129.867 74.3538 130.775 72.7913 128.894 70.739L123.372 70.7996L122.275 69.4136C123.097 68.7317 123.331 68.6342 124.272 68.1671L123.54 66.9597C119.877 66.6509 118.233 65.89 114.723 65.308L115.881 62.7201L115.108 61.5396C110.02 60.8075 106.597 60.6961 101.494 60.5822L100.862 59.571L100.335 59.8533L100.613 60.5843L99.066 60.2959C102.214 59.0025 101.769 59.7581 103.461 57C99.028 56.3347 94.603 55.6039 90.1878 54.8078C90.4721 53.6754 90.1716 51.3852 90.064 50.1013Z" fill="#B9DEE3"/>
<path d="M117.033 59.9698C120.486 59.628 121.698 60.8485 124.63 62.9795L125.815 65.2186C122.382 65.0205 119.981 65.4774 117.4 63.5216L117.033 59.9698Z" fill="#BBD8DC"/>
<path d="M675.211 20.5159L678.573 20.7653C681.12 24.0826 683.745 25.6639 685.34 29.8107C685.475 30.1604 691.756 30.5064 692.52 30.5411C694.575 33.2258 692.52 34.0934 694.733 36.0049L697.664 36.2085C697.89 38.2854 698.105 43.0171 699.283 44.2824L699.64 44.3018C700.7 44.3644 701.043 44.3093 701.966 44.92L702.984 47.2883C711.635 47.5645 714.238 35.5647 719.536 34.6613C720.697 30.126 720.549 30.7195 724.335 30.2268L729.464 29.5928L729.893 24.8896L731.174 24.895C734.207 24.8294 736.697 24.9336 739.61 23.969C740.694 23.9887 741.053 24.1848 742.073 24.5897L741.587 25.2835C741.587 25.2835 737.246 26.0686 735.403 27.6957C733.003 29.8744 728.022 34.8856 726.249 37.5237C725.038 41.2105 718.375 40.7506 718.157 41.2024C714.358 49.0101 699.48 59.6964 697.473 44.8002C696.781 39.6634 695.222 42.2251 692.596 41.1259C686.936 38.7566 688.741 34.458 681.521 35.851L680.513 34.864C682.956 33.4534 685.197 35.6744 687.498 34.0075L687.843 31.8938C677.63 32.3463 679.507 31.6072 671.766 26.4705C670.243 25.4595 664.084 27.8 660.563 24.7345C663.538 22.6592 670.271 25.2692 674.288 23.7835L674.533 22.01L675.211 20.5159Z" fill="#C5DBE2"/>
<path d="M724.335 30.2268L729.464 29.5928C725.446 35.3614 726.009 35.2719 719.536 34.6613C720.697 30.126 720.549 30.7195 724.335 30.2268Z" fill="#C2DFE3"/>
<path d="M751.452 15.0099C751.762 13.5038 752.043 12.5928 752.508 11.141C756.202 9.09306 761.408 9.97734 765.644 10.245C776.135 10.5542 786.577 9.68779 796.997 10.1637L801.641 10.1715L810.021 10.2516C810.964 10.242 813.194 10.2867 814.017 10.1754C816.431 10.0828 824.311 9.55579 825.944 10.6672C831.875 14.6992 829.518 14.8401 836.8 15.1205L832.297 15.7462L827.893 15.8814C804.434 16.814 777.099 16.0032 753.232 16.0231C749.44 16.1775 745.844 15.7519 742.08 15.391C745.873 14.897 747.681 14.6044 751.452 15.0099Z" fill="#BBD8DC"/>
<path d="M751.452 15.0099C751.762 13.5038 752.043 12.5928 752.508 11.141C756.202 9.09306 761.408 9.97734 765.644 10.245C765.588 11.0252 765.574 13.1493 765.201 13.477C762.682 15.6895 754.738 15.0708 751.452 15.0099Z" fill="#C2DFE3"/>
<path d="M1293.24 45.201C1299.28 44.7554 1295.61 43.8796 1301.73 40.4417C1307.38 40.373 1317.18 38.7396 1320.56 44.4002C1325.42 46.3347 1335.44 44.4688 1341.55 45.9887C1342.13 49.0478 1341.59 48.5029 1343.37 49.9965L1346.29 49.9376C1346.74 52.5853 1346.38 53.1627 1347.99 54.544L1351.18 54.8778C1352.38 54.9478 1354.17 54.9898 1355.3 55.1554L1355 59.0287C1353.36 60.3795 1352.31 59.7981 1349.88 59.644C1349.99 57.8169 1349.94 57.6076 1349.05 56.0662C1347.13 56.1393 1344.78 56.4966 1343.62 54.7686L1345.12 52.7934L1344.84 51.9964C1341.12 50.2463 1285.97 51.2565 1279.84 51.9698L1279.43 51.8396L1278.84 49.9727L1282.79 50.0788C1288.95 50.3523 1291.62 52.0505 1293.24 45.201Z" fill="#B9DEE3"/>
<path d="M13.1074 74.7413L13.7576 71.6458C15.4968 70.6506 19.944 66.411 21.8565 64.848C23.0518 63.8712 22.7215 62.4593 22.8125 60.4053C26.0421 59.9799 30.0189 60.7997 31.7655 59.4111L31.7791 55.8286C32.955 53.7522 36.7538 55.9018 40.6784 54.5256C40.7099 52.7269 40.7143 52.4774 40.7634 52.3668C43.3187 46.6193 54.2456 53.9341 57.9283 46.3828C59.0876 44.0056 81.1724 45.3066 84.0798 46.7975C85.1338 47.338 84.8896 49.4755 90.064 50.1013C90.1717 51.3852 90.4721 53.6754 90.1878 54.8078L89.0557 53.9177C88.6694 50.8541 87.4986 50.8144 84.7116 51.39C79.8996 52.3836 52.285 50.9585 50.763 52.3617L52.8837 54.7415C49.8774 57.37 38.8559 55.2015 36.5855 57.4799L37.1267 58.5091C39.2184 58.8198 41.1214 59.0002 43.1018 59.847L42.5648 60.4914C30.8901 60.8615 34.3883 62.4159 23.8904 66.9925C21.8885 69.8746 17.7694 77.4288 14.1135 75.6478L13.1074 74.7413Z" fill="#C2DFE3"/>
<path d="M478.538 45.0647L478.725 45.0612C485.89 44.8586 491.31 36.0331 501.046 44.9376C504.671 45.0693 514.85 44.9882 517.483 45.8586L518.847 48.9391L521.511 49.9212L514.922 50.2341C499.398 50.1268 476.492 50.8774 460.884 52.3659C459.543 54.1709 457.726 57.0472 455.642 57.0573C453.716 57.0666 448.905 56.7273 447.281 55.8781C448.331 54.9953 454.569 54.9022 456.675 54.6495C457.288 54.5862 458.157 54.1406 458.764 53.8696C459.572 46.1767 472.258 52.6443 476.602 49.3355C478.143 48.162 478.017 47.0268 478.538 45.0647Z" fill="#C2DFE3"/>
<path d="M1104.2 22.7915C1106.93 26.0053 1109.61 24.6967 1112.13 21.8848C1112.83 22.8135 1113.21 23.2686 1113.77 24.3476C1116.11 24.3997 1118.17 24.4012 1120.52 24.3076L1120.9 25.0422C1115.16 26.854 1109.02 23.324 1107.34 28.9146C1107.01 30.002 1106.16 31.3463 1105.14 31.4525C1099.32 32.0599 1088.12 30.672 1082.49 32.4328L1082.19 33.8016C1084.65 35.1873 1089.96 31.59 1091.94 34.7557C1089.33 36.3413 1086.04 35.292 1083.49 36.4793C1081.65 37.3379 1082.51 40.1552 1079.82 40.8884C1077.07 41.637 1070.2 40.4714 1068.54 42.4036L1068.94 43.6682C1071.78 44.554 1072.92 44.6013 1075.85 44.7893L1075.49 45.3275C1072.62 45.673 1065.71 46.4927 1063.47 48.3691L1063.56 49.1961C1064.9 48.871 1066.25 48.5318 1067.59 48.1785L1067.45 49.1592C1065.66 50.2864 1062.32 50.2047 1060.3 49.9315C1061.44 49.2093 1063.26 45.9334 1063.05 45.9921C1068.62 44.4828 1066.64 47.0882 1067.91 40.3219C1072.81 36.5162 1080.5 37.1892 1080.6 31.4815C1080.64 29.2694 1087.53 30.8697 1088.83 29.4844C1089.66 28.6002 1089.73 26.913 1089.98 25.5568C1094.51 22.3926 1095.93 29.0326 1099.47 21.414C1101.01 21.8808 1102.65 22.4091 1104.2 22.7915Z" fill="#C5DBE2"/>
<path d="M1355.3 55.1554L1358.51 55.2958C1360.79 58.3467 1357.7 57.0597 1360.53 59.9033L1364.03 60.1444C1365.04 61.4396 1364.62 64.4502 1364.77 64.5043C1366.92 65.2637 1369.39 64.0854 1369.14 68.3093C1368.97 71.0829 1371.42 70.4062 1373.09 70.3902C1374.94 74.4856 1370.95 76.0464 1377.35 75.2343C1378.86 77.9421 1377.72 83.0881 1379.03 84.8324L1382.87 85.4131L1384.05 90.6547C1383.47 90.5578 1382.88 90.4523 1382.3 90.339C1374.11 88.7189 1378.93 85.3263 1376 80.6724L1374.59 80.7334C1374.16 81.3734 1373.98 83.8751 1373.87 84.8246C1373.44 82.6989 1373.32 81.5368 1371.76 80.1113L1372.58 75.3895L1369.23 76.9824L1368.13 76.315C1368.13 75.3345 1368.22 71.6483 1367.3 71.5062C1360.36 70.4375 1357.89 72.5972 1358.47 63.1289C1358.66 60.0611 1351.95 62.1991 1349.38 60.6111L1349.88 59.644C1352.31 59.7981 1353.36 60.3795 1355 59.0287L1355.3 55.1554Z" fill="#C2DFE3"/>
<path d="M850.929 24.3878L854.623 25.1728C856.557 28.3611 854.827 28.892 857.824 30.2366C859.829 30.2162 862.011 30.034 863.889 30.7324C864.895 32.3097 864.783 32.9912 864.776 34.955L868.259 35.4156C869.342 36.9609 869.3 38.0776 869.49 40.0493C871.805 40.0071 872.318 39.5128 873.705 40.9342C873.536 43.971 873.254 42.8574 874.901 45.3807C876.019 45.8486 877.145 46.2133 878.032 47.1113C878.292 49.8492 878.18 51.5541 878.06 54.2699L877.75 60.6634C878.081 55.9844 873.402 44.9742 869.933 46.6338L869.708 49.4313L869.166 49.4704C868.814 46.7531 868.427 44.0417 867.998 41.3372C866.225 39.9065 866.204 40.4055 863.608 40.6387C862.96 39.8703 862.693 39.7 862.517 38.7104L863.58 37.2874L863.502 36.7983C860.448 34.1916 855.544 36.3559 852.068 35.611C850.717 35.3228 850.45 33.5056 849.683 31.7909L846.404 31.2763L850.352 30.311C851.477 28.4359 851.006 26.9873 850.929 24.3878Z" fill="#C5DBE2"/>
<path d="M857.824 30.2366C859.83 30.2162 862.011 30.034 863.89 30.7324C864.896 32.3097 864.783 32.9912 864.776 34.955C861.659 35.3355 857.191 35.5036 855.073 32.4215L855.453 30.9314L857.824 30.2366Z" fill="#BBD8DC"/>
<path d="M864.776 34.955L868.259 35.4156C869.343 36.9609 869.301 38.0776 869.491 40.0493C867.337 39.8023 866.514 40.119 865.016 38.7587L864.776 34.955Z" fill="#B9DEE3"/>
<path d="M836.8 15.1205L839.558 15.4539L841.31 15.8771C841.81 17.5818 841.725 18.3295 841.69 20.1016C843.674 20.1145 846.404 20.2407 848.304 19.8746L850.429 20.7123C850.837 22.3466 850.921 22.6811 850.929 24.3878C851.006 26.9873 851.477 28.4359 850.352 30.311L846.404 31.2763C844.786 28.7904 846.482 28.9418 844.997 26.0062L843.646 25.6463L841.704 27.9241C838.89 26.7394 836.392 21.2257 834.745 21.2887C831.706 21.4052 831.368 21.7346 827.871 20.5866L827.892 15.8813L832.297 15.7462L836.8 15.1205Z" fill="#BBD8DC"/>
<path d="M836.8 15.1205L839.558 15.4539C839.073 18.3141 839.481 18.7128 837.764 20.2584L833.022 20.163L832.297 15.7462L836.8 15.1205Z" fill="#B9DEE3"/>
<path d="M841.69 20.1016C843.675 20.1145 846.405 20.2407 848.304 19.8746C847.847 21.6595 847.636 22.494 846.904 24.1517C844.653 25.365 845.391 25.3943 843.288 24.9396C841.655 22.801 842.113 23.1586 841.69 20.1016Z" fill="#C2DFE3"/>
<path d="M827.892 15.8814L832.297 15.7462L833.022 20.163L827.871 20.5866L827.892 15.8814Z" fill="#C5DBE2"/>
<path d="M651.836 14.3019C656.856 15.2257 663.892 13.95 666.791 16.8129C668.106 21.3995 671.09 20.3256 675.211 20.5159L674.533 22.01C672.061 20.881 661.457 21.3102 658.37 21.5791L658.314 23.491L657.395 23.9943L656.825 21.5822L653.176 21.2904C649.98 20.7148 649.063 20.8024 647.935 17.2282C649.43 14.5329 648.677 15.3405 651.836 14.3019Z" fill="#C2DFE3"/>
<path d="M742.08 15.3909C745.844 15.7518 749.44 16.1775 753.232 16.0231C750.952 16.2228 749.348 16.1052 747.645 17.828C749.172 18.6647 751.522 19.2001 753.225 19.6685C749.383 20.4126 745.274 21.2989 741.362 21.4992C739.638 21.5876 739.61 21.8748 739.61 23.969C736.697 24.9336 734.206 24.8294 731.174 24.895C734.446 18.8742 736.563 21.6609 739.652 15.8715L742.08 15.3909Z" fill="#C2DFE3"/>
<path d="M1409.79 70.417C1418.7 70.1814 1426.73 70.0028 1435.66 70.344C1436.93 74.873 1436.29 75.0811 1441 75.555V85.392C1437.64 82.5574 1436.9 79.5095 1435.24 77.1289C1434.37 75.8611 1421.16 74.9433 1419.1 74.7414C1422.86 73.6537 1431.83 75.3559 1434.95 73.4082L1434.86 72.31C1430.73 69.9991 1415.42 71.0829 1410 71.2168L1409.79 70.417Z" fill="#C2DFE3"/>
<path d="M1270.94 54.8106C1272.86 50.4708 1275 50.0511 1278.84 49.9727L1279.43 51.8396L1279.84 51.9698L1280.41 53.6929C1284.51 54.5991 1283.99 52.347 1285.76 54.6986L1285.07 55.6197C1273.59 55.8912 1275.42 62.0945 1267.62 61.2353L1268.03 60.1779C1270.35 59.6219 1270.1 57.0282 1270.42 54.7927L1270.94 54.8106Z" fill="#C2DFE3"/>
<path d="M1270.94 54.8106C1272.86 50.4708 1275 50.0511 1278.84 49.9727L1279.43 51.8396L1278.84 54.0804C1276.41 55.3866 1273.69 54.9439 1270.94 54.8106Z" fill="#BBD8DC"/>
<path d="M1007.64 45.369L1011.89 45.3432C1013.63 47.2676 1012.06 48.0071 1014.79 49.7303C1019.11 52.4483 1026.47 51.7359 1026.91 59.0716L1026.51 60.0839L1025.12 60.5689C1024.21 60.487 1023.14 60.1424 1022.24 59.8982C1021.88 58.7119 1021.77 57.838 1021.6 56.6229C1018.72 53.8526 1017.7 55.9321 1015.03 54.0783L1018.12 53.783L1018.44 52.6525L1017.09 51.7196C1016.18 51.7385 1003.59 49.5343 1003.35 49.3799L1007.11 49.1229L1007.58 47.0625L1007.07 46.3109L1007.07 45.7318L1007.64 45.369Z" fill="#B9DEE3"/>
<path d="M1395.44 79.8987C1395.67 78.4607 1396.1 76.9594 1396.48 75.55C1399.43 75.5623 1404.47 72.8612 1406.25 70.5768C1407.64 70.5143 1408.81 70.4611 1409.79 70.417L1410 71.2168L1410.48 73.5957L1412.59 74.5411L1412.62 75.0842C1409.8 75.2884 1403.05 75.5511 1401.27 77.7776L1401.49 79.0688L1395.44 79.8987Z" fill="#B9DEE3"/>
<path d="M1031.91 64.3386C1035.86 65.1837 1035.28 65.3522 1036.89 69.6711C1041.07 69.8357 1041.22 66.4592 1043.96 67.3994L1045.32 65.7588L1045.02 69.513C1042.42 73.4147 1035.05 72.2744 1031.91 69.8548C1030.39 68.6899 1030.58 67.3057 1030.23 65.3952L1031.91 64.3386Z" fill="#BBD8DC"/>
<path d="M895.552 49.7206L896.459 46.5331C901.842 43.7325 901.357 39.9373 909.195 39.4816L912.699 40.4829C909.821 41.5472 909.033 41.6945 906.014 41.9645C905.909 43.353 905.972 43.5286 906.465 44.8182L905.571 46.1501C904.396 46.2845 903.418 46.3284 902.321 46.8382L902.264 47.8084C899.309 50.0229 898.992 49.6901 895.552 49.7206Z" fill="#C2DFE3"/>
<path d="M890.022 54.5865C892.077 54.6513 895.25 54.6435 897.199 54.842C890.381 57.3289 888.221 65.1513 877.751 60.6634L882.704 59.9287C885.216 60.0753 885.477 60.6022 887.053 59.1049L887.334 54.7078L890.022 54.5865Z" fill="#BBD8DC"/>
<path d="M4.39381 86.6893C4.31381 84.7128 3.95543 82.3292 4.95841 80.7998L7.13939 80.4341L9.13055 80.9655C9.29709 84.4948 9.28555 86.8432 9.12175 90.3749L4.71744 89.3488L4.39381 86.6893Z" fill="#C2DFE3"/>
<path d="M1395.44 79.8987L1401.49 79.0688L1401.01 80.6224C1395.62 81.0515 1398.49 85.5248 1389.21 85.3506C1391.23 80.495 1390.65 80.1371 1395.44 79.8987Z" fill="#C2DFE3"/>
<path d="M895.552 49.7206C898.993 49.6901 899.309 50.0229 902.265 47.8084L901.554 50.3521C898.62 51.6574 897.375 50.8365 897.199 54.842C895.25 54.6435 892.076 54.6513 890.022 54.5865C889.529 53.051 889.6 53.6211 890.24 51.8412C892.168 50.0459 893.132 50.043 895.552 49.7206Z" fill="#C2DFE3"/>
<path d="M4.71768 89.3488L9.12199 90.3749C1.79768 92.4381 7.30217 94.9444 3.85213 99.8085C2.44127 100.181 1.44347 100.449 0 100.628V95.1562C2.46697 94.8733 2.34512 95.2898 4.16291 93.8221L4.71768 89.3488Z" fill="#BBD8DC"/>
<path d="M7.13965 80.4341C10.4284 78.4803 8.01642 78.6413 10.1229 75.2918L13.1073 74.7413L14.1134 75.6478C13.9501 76.5039 13.9914 77.2063 14.171 78.0561L13.2721 79.8339C11.8368 79.98 10.1608 79.937 9.1308 80.9655L7.13965 80.4341Z" fill="#C2DFE3"/>
<path d="M1025.12 60.5689L1026.51 60.0839L1030.94 60.1685L1031.9 64.3386L1030.23 65.3952C1028.73 65.2747 1027.98 65.0371 1026.54 64.6232C1026.08 63.136 1025.68 62.0112 1025.12 60.5689Z" fill="#C2DFE3"/>
<path d="M1392.46 76.054L1393.68 75.5652L1393.79 77.177C1393.18 77.8321 1392.97 77.8159 1392.12 78.0684L1392.46 76.054Z" fill="#C2DFE3" fill-opacity="0.0392157"/>
<path d="M9.80903 70.1788L11.9702 71.4836L11.7608 72.5857L10.1179 73.2803L9.26562 72.73L9.80903 70.1788Z" fill="#BBD8DC" fill-opacity="0.0156863"/>
<path d="M384.966 36.7663L385.696 36.4469L385.971 37.4246L385.138 38.043L384.966 36.7663Z" fill="#C2DFE3" fill-opacity="0.0117647"/>
<path d="M1036.68 465C1030.55 463.536 1024.12 465.464 1017.8 462.924C1019.13 462.342 1050.83 462.527 1055.88 462.279C1054.32 462.162 1053.59 462.099 1052.06 461.715C1051.94 461.35 1048.36 453.277 1048.51 453.475L1049.33 454.407L1049.03 453.706L1046.83 453.401L1046.99 452.867C1052.2 446.7 1077.7 441.305 1085.81 439.298C1087.36 438.65 1089.97 434.348 1091.5 434.161C1097.38 434.71 1110.82 427.282 1114.94 427.504C1123.85 427.983 1126.51 422.426 1129.86 421.983C1136.98 421.042 1145.9 418.76 1152.91 418.075C1161.92 417.193 1170.58 422.326 1179.54 415.843C1182.54 414.095 1205.24 418.163 1208.54 420.677C1208.91 420.952 1210.02 418.197 1210.7 418.041C1212.42 417.931 1214.61 418.608 1216.46 418.874C1234.61 421.485 1253.3 419.049 1271.56 420.032C1278.16 420.387 1280.53 417.579 1286.93 416.531C1303.63 413.913 1320.4 412.01 1337.22 410.826C1351.02 409.803 1365.34 411.725 1378.99 409.946C1383.56 409.349 1384.96 408.269 1388.92 413.165C1389.66 415.806 1389.76 414.839 1388.81 417.187C1386.86 418.515 1387.71 418.355 1385.44 417.786C1384.06 418.466 1370.11 418.531 1367.19 418.781C1372.43 418.781 1387.1 418.21 1391.56 419.997C1386.9 420.155 1366.99 419.064 1364.89 421.318L1364.55 424.437C1360.12 427.893 1347.15 421.58 1346.49 427.069C1346.24 429.185 1346.84 428.968 1345.12 430.508C1341.2 431.032 1335.8 429.525 1333.4 430.626C1333.29 431.35 1333 434.369 1332.72 434.56C1329.79 436.604 1322.36 433.887 1319.63 435.712L1319.33 439.212C1316.93 441.291 1310.37 439.45 1307.6 439.856C1304.6 440.291 1307.31 443.813 1303.52 444.703C1299.69 445.608 1290.35 443.058 1287.88 446.212L1287.75 449.242C1283.52 452.508 1254.28 447.322 1251.78 451.367L1251.57 454.346C1249.67 455.516 1241.36 455.246 1238.94 454.881C1230.89 453.661 1235.68 458.519 1232.93 459.968C1227.06 463.068 1216.35 455.24 1215.33 465H1036.68Z" fill="#B7E6F3" fill-opacity="0.705882"/>
<path d="M1154.38 15.0111C1161.24 14.9022 1168.46 13.4015 1173.39 18.3449C1175.2 20.1459 1181.94 20.748 1184.53 20.9086L1184.71 21.1126C1185.63 22.1626 1187.86 24.5679 1189.01 25.0935C1189.23 28.4309 1188.71 28.303 1190.56 30.2953C1192.28 30.2376 1191.66 30.4981 1192.99 28.9524C1193.03 27.6243 1193.09 26.1947 1193.05 24.8749C1195.15 25.1391 1195.95 24.8119 1197.27 26.2135L1197.2 28.7351C1199.65 31.4439 1205.08 29.9197 1205.83 30.5244C1208.39 32.5672 1203.65 35.3071 1210.16 35.2916C1210.52 35.2911 1210.87 35.2881 1211.23 35.2824C1211.61 36.9007 1211.74 37.8574 1211.93 39.5143C1214.58 40.3386 1218.78 40.4645 1220.03 41.7664L1220.63 44.9487C1221.55 45.2943 1224.37 45.5269 1224.43 45.6822C1225.8 49.7172 1222.86 50.5602 1228.78 50.3568C1229.13 52.341 1229.58 55.7227 1230.39 57.3941C1232.23 56.6336 1231.63 56.5356 1233.17 57.2532C1234.19 60.6076 1233.62 63.5865 1234.82 65.0269L1237.71 65.0611C1238.57 66.4135 1238.59 72.5377 1238.68 74.5818C1253.71 76.005 1247.76 66.9173 1259.66 60.2224C1259.98 60.043 1264.32 59.909 1265.09 59.8878L1268.03 60.1779L1267.62 61.2353C1266.09 61.8676 1265.56 64.035 1265 65.5583C1263.19 66.7449 1260.1 66.032 1257.61 66.3259L1257.08 67.912C1258.19 69.3611 1259.49 69.4491 1261.32 70.1095L1261.37 70.7014C1258.45 72.5103 1255.18 70.4841 1252.88 71.9056C1251.86 77.4137 1251.3 83.0388 1244.68 81.0382C1239.5 79.6416 1243.24 77.9656 1240.01 75.6847C1238.96 74.9374 1233.64 71.0097 1233.36 69.6887C1233.1 68.4903 1233.67 67.4996 1232.86 65.7626L1229.48 65.1068C1228.19 63.1098 1228.37 58.8674 1228.2 56.0295L1225.7 55.8328L1225.19 56.6364L1226.29 59.9608L1225.83 60.1723C1224.13 58.3997 1224.3 55.2928 1224.12 52.5899C1222.17 49.5824 1222.59 52.6979 1219.73 50.4705L1219.66 46.6245C1216.57 46.434 1214.22 46.2518 1211.16 45.7437L1210.78 44.9791L1214.55 44.6472C1215.57 36.9355 1199.34 35.586 1194.66 35.0605C1197 34.7624 1201.6 34.4918 1202.93 32.712C1199.92 28.7755 1190.93 33.9195 1184.81 30.7342C1184.56 29.972 1184.26 29.32 1183.99 28.5865C1181.14 20.8086 1159.8 29.8835 1157.28 24.6311C1158.7 23.8647 1171.95 24.1946 1174.51 24.175L1175.29 21.982C1175.64 22.7358 1175.99 23.2993 1176.41 24.0058C1178.47 24.731 1181.08 24.5334 1182.72 22.9286C1180.25 21.7239 1171.45 21.022 1168.77 21.3791C1159.2 22.6557 1109.15 19.2373 1104.2 22.7915C1102.65 22.4091 1101.01 21.8808 1099.47 21.414C1101.3 19.0448 1110.41 21.4474 1112.85 19.4647L1113.22 16.5083C1115.74 14.4924 1129.97 14.9727 1133.93 14.9518C1132.57 15.3583 1130.76 15.6809 1129.9 16.8313L1129.54 18.1057C1131.64 20.5307 1158.75 20.741 1161.74 19.5395V16.0674C1159.44 15.8976 1156.49 15.8606 1154.38 15.0111Z" fill="#C5DBE2" fill-opacity="0.976471"/>
<path d="M598.923 15.0454C600.053 14.9987 602.192 14.8376 603.228 14.9021C607.835 15.2504 629.08 14.9066 631.141 15.7553C625.239 16.2355 608.424 15.1461 604.88 16.3884C602.769 19.4427 605.358 19.0271 602.364 21.4591C596.608 21.7052 576.599 20.5378 573.241 22.6225L573.458 24.5946C575.389 24.4249 576.852 22.9354 576.918 22.9565C578.851 23.5832 580.497 24.4791 582.642 24.5036L582.475 25.4712C578.196 27.1538 571.103 24.5787 568.686 27.9488L568.87 30.7092C565.951 32.8231 560.082 30.1203 558.698 32.58C561.031 34.6806 562.96 33.3564 563.71 35.1825C561.468 36.1743 557.28 36.1717 554.708 36.3095C554.27 43.492 545.304 46.0377 541.282 51.2771C540.592 52.176 541.269 55.1692 539.05 55.3791C534.897 57.2533 528.161 54.6818 527.6 58.6352C526.438 57.0006 525.388 55.0985 523.635 54.5236C521.192 55.3392 520.872 55.6286 518.075 54.4302L520.351 53.9271L521.043 52.6127L520.265 51.6154C517.827 51.6535 517.062 51.7281 514.922 50.2341L521.511 49.9212C522.026 49.9738 525.596 50.3385 525.596 50.3385C527.863 52.8166 527.606 54.1625 531.172 54.3065C530.682 53.1697 530.779 53.6714 530.877 52.3477C538.284 48.8581 540.168 47.0183 544.965 40.0327C545.191 39.7026 550.243 41.4091 549.691 35.9618C549.629 35.3478 552.907 35.0847 553.912 34.7203L553.909 31.1744C555.895 29.7446 558.437 30.6866 560.964 30.3987C564.373 30.0102 561.659 27.3972 563.466 25.0924C563.968 25.0984 568.805 24.5665 568.819 24.6298C568.638 21.7069 570.592 20.9264 572.618 20.7094C577.219 20.2165 576.851 18.937 579.275 15.979C581.807 14.6937 584.041 14.906 586.814 14.8877L586.691 15.5034C584.896 17.6349 584.787 17.051 584.775 19.3094C587.232 20.686 591.366 19.8594 594.313 20.1558C596.732 20.2032 596.955 20.6781 598.582 19.2359L598.923 15.0454Z" fill="#C5DBE2" fill-opacity="0.988235"/>
<path d="M406.689 60.2772L408.765 60.2377C411.403 65.1098 417.117 74.6372 423.108 69.5883L423.109 66.4212C424.538 64.1524 425.589 65.9932 428.104 64.5545C428.335 64.4221 428.167 60.2883 429.4 60.2765C431.267 60.2586 434.328 60.5108 436.074 59.7655C436.088 59.2583 436.355 55.0032 436.912 55.0154C448.784 55.2754 441.997 49.1184 454.833 50.2984C451.809 50.9173 452.043 50.3972 449.849 52.3765C450.6 55.3244 454.308 54.694 456.675 54.6495C454.569 54.9022 448.33 54.9953 447.281 55.8781L447.148 59.9222C444.727 61.4206 440.73 60.4158 439.575 61.1397C437.643 62.3499 433.538 65.7423 431.631 67.2846L431.312 68.6774L432.51 69.385C430.675 71.3303 425.713 70.3564 425.19 70.7434C421.189 73.704 424.528 76.7998 418.342 75.2665C412.073 73.7126 409.138 65.7679 405.005 63.5141L404.084 60.884L406.689 60.2772Z" fill="#B9DEE3" fill-opacity="0.968627"/>
<path d="M604.664 10.0711C613.487 10.1465 647.455 7.66033 651.836 14.3019C648.677 15.3405 649.429 14.5329 647.935 17.2282C649.063 20.8024 649.98 20.7149 653.176 21.2904C644.8 22.7283 649.363 20.869 647.008 16.7291C646.039 15.8284 633.501 15.8765 631.141 15.7553C629.08 14.9067 607.835 15.2504 603.228 14.9021C604.034 13.0074 604.214 12.1165 604.664 10.0711Z" fill="#C5DBE2" fill-opacity="0.952941"/>
<path d="M1133.93 14.9518C1140.35 14.9157 1148.07 14.6571 1154.38 15.0111C1156.49 15.8606 1159.44 15.8976 1161.74 16.0674V19.5395C1158.75 20.741 1131.64 20.5307 1129.54 18.1057L1129.9 16.8313C1130.76 15.6809 1132.57 15.3583 1133.93 14.9518Z" fill="#C2DFE3" fill-opacity="0.988235"/>
<path d="M765.644 10.245C765.749 8.12539 765.44 7.02605 766.537 5.72862C774.551 4.95407 787.997 5.35719 796.476 5.37961C796.602 6.39368 797.025 9.31368 796.997 10.1637C786.576 9.68779 776.134 10.5542 765.644 10.245Z" fill="#B9DEE3" fill-opacity="0.972549"/>
<path d="M932.273 30.3728C938.824 30.1765 939.985 30.5463 945.368 26.1131C947.218 24.5929 965.97 24.2712 967.933 26.2767C968.376 27.6543 968.573 29.2722 969.678 29.5475C973.139 30.4101 979.05 29.7837 982.434 30.3167L976.608 30.7308L972.443 30.5348C959.137 30.3085 945.459 30.9233 932.273 30.3728Z" fill="#C2DFE3" fill-opacity="0.443137"/>
<path d="M454.832 50.2984C456.017 50.0538 457.199 49.7368 458.374 49.438C459.164 45.9903 460.147 45.5064 463.334 45.3387C468.378 45.0734 473.484 45.1021 478.538 45.0647C478.017 47.0268 478.143 48.162 476.602 49.3355C472.258 52.6443 459.572 46.1767 458.764 53.8696C458.157 54.1406 457.288 54.5862 456.675 54.6495C454.307 54.694 450.6 55.3244 449.849 52.3765C452.042 50.3972 451.809 50.9173 454.832 50.2984Z" fill="#BBD8DC" fill-opacity="0.984314"/>
<path d="M327.61 25.0726C328.681 22.8264 328.814 21.5754 331.169 20.9978C336.144 19.7773 340.317 19.5907 345.009 21.6418L345.694 22.7572L344.561 25.0661L327.61 25.0726Z" fill="#C2DFE3" fill-opacity="0.376471"/>
<path d="M197.457 54.8846C197.525 53.5777 197.831 52.8195 198.221 51.6122C202.532 49.1468 213.903 50.0134 219.237 50.1491C216.594 50.8092 213.196 50.7946 211.802 52.2248L210.656 54.7498C205.964 54.9608 202.16 55.0276 197.457 54.8846Z" fill="#BBD8DC" fill-opacity="0.901961"/>
<path d="M179.891 59.7657C179.882 58.3904 180.114 57.2439 180.336 55.8968C183.261 53.9691 185.969 54.7127 189.696 54.8469L189.059 60.3596C187.305 60.2992 185.016 60.5353 183.224 60.6605L179.891 59.7657Z" fill="#BBD8DC"/>
<path d="M315.132 30.4247L315.406 26.4861C317.753 24.1909 321.07 24.8954 324.459 24.9577C324.134 28.3405 324.666 28.388 322.733 30.2365C320.205 30.8942 317.727 30.5809 315.132 30.4247Z" fill="#BBD8DC" fill-opacity="0.870588"/>
<path d="M593.331 14.8376C593.803 13.5598 594.371 12.4098 594.947 11.1884C597.495 9.51124 601.593 10.0023 604.664 10.0711C604.214 12.1165 604.034 13.0074 603.228 14.9021C602.193 14.8376 600.054 14.9987 598.924 15.0454C597.265 15.2485 595.039 14.9767 593.331 14.8376Z" fill="#C2DFE3" fill-opacity="0.819608"/>
<path d="M1282.79 50.0788L1283.57 46.4794C1286.11 44.3171 1289.79 45.0973 1293.24 45.201C1291.62 52.0505 1288.95 50.3523 1282.79 50.0788Z" fill="#BBD8DC" fill-opacity="0.984314"/>
<path d="M594.313 20.1558C591.366 19.8594 587.232 20.686 584.775 19.3094C584.787 17.051 584.896 17.6349 586.691 15.5034C589.727 15.7136 592.211 15.2162 594.085 17.1396L594.313 20.1558Z" fill="#B9DEE3" fill-opacity="0.988235"/>
<path d="M0 85.4709L4.39406 86.6893L4.71768 89.3488L4.16291 93.8221C2.34512 95.2898 2.46697 94.8733 0 95.1562V85.4709Z" fill="#C2DFE3" fill-opacity="0.972549"/>
<path d="M805.447 5.34208C808.107 5.31826 812.075 4.90037 814.179 6.38867C814.679 8.66111 814.644 7.80613 814.017 10.1754C813.194 10.2867 810.964 10.242 810.021 10.2516C806.13 9.25756 806.453 9.29257 805.447 5.34208Z" fill="#C2DFE3" fill-opacity="0.847059"/>
<path d="M982.434 30.3167C986.023 30.9938 986.058 30.7016 986.558 35.1832L980.696 35.0787L980.577 34.2812C979.148 34.0658 978.733 33.8289 977.425 33.2177L976.608 30.7308L982.434 30.3167Z" fill="#BBD8DC" fill-opacity="0.796078"/>
<path d="M586.813 14.8877C588.608 14.8646 591.637 14.7307 593.33 14.8376C595.039 14.9768 597.265 15.2485 598.923 15.0454L598.582 19.2359C596.955 20.6781 596.732 20.2032 594.312 20.1558L594.084 17.1396C592.211 15.2162 589.726 15.7136 586.691 15.5034L586.813 14.8877Z" fill="#C2DFE3"/>
<path d="M999.469 40.3363C1001.88 39.9793 1002.21 39.4767 1004.16 40.5778L1005.53 44.3748L1007.64 45.369L1007.07 45.7318L1001.4 45.2318C999.455 43.6449 999.961 43.5287 999.469 40.3363Z" fill="#BBD8DC" fill-opacity="0.898039"/>
<path d="M878.061 54.27L882.275 54.8415C882.817 57.1455 882.894 57.5737 882.704 59.9287L877.751 60.6634L878.061 54.27Z" fill="#C2DFE3" fill-opacity="0.984314"/>
<path d="M1265.09 59.8878L1265.32 55.7972C1266.91 54.3419 1268 54.8305 1270.42 54.7927C1270.1 57.0282 1270.35 59.6219 1268.03 60.1779L1265.09 59.8878Z" fill="#BBD8DC" fill-opacity="0.972549"/>
<path d="M972.442 30.5348L976.608 30.7308L977.424 33.2177C978.733 33.8289 979.148 34.0658 980.576 34.2812L980.696 35.0787C978.156 35.2617 976.636 35.4853 974.11 34.9208C972.351 33.1115 972.872 33.755 972.442 30.5348Z" fill="#BBD8DC" fill-opacity="0.894118"/>
<path d="M882.274 54.8415L887.333 54.7078L887.052 59.1049C885.476 60.6022 885.216 60.0753 882.704 59.9287C882.894 57.5737 882.816 57.1455 882.274 54.8415Z" fill="#C2DFE3" fill-opacity="0.913725"/>
<path d="M801.338 5.33054L805.447 5.34208C806.453 9.29257 806.129 9.25756 810.02 10.2516L801.64 10.1715L801.338 5.33054Z" fill="#B9DEE3" fill-opacity="0.898039"/>
<path d="M292.258 39.9285L297.287 39.841C296.907 42.9248 297.377 43.3291 295.582 44.879L292.831 45.171L292.258 39.9285Z" fill="#BBD8DC" fill-opacity="0.988235"/>
<path d="M1435.66 70.344L1441 70.3791V75.555C1436.29 75.0811 1436.93 74.873 1435.66 70.344Z" fill="#BBD8DC" fill-opacity="0.988235"/>
<path d="M724.335 30.2268L725.018 26.0735C726.53 24.6287 727.579 25.0375 729.894 24.8896L729.464 29.5928L724.335 30.2268Z" fill="#C2DFE3" fill-opacity="0.980392"/>
<path d="M796.477 5.3796L801.339 5.33054L801.641 10.1715L796.997 10.1637C797.025 9.31367 796.603 6.39367 796.477 5.3796Z" fill="#B9DEE3" fill-opacity="0.937255"/>
<path d="M288.562 45.2854C288.347 43.069 288.172 42.3362 288.949 40.3196C289.88 40.8259 291.228 41.2714 291.485 42.0952L292.258 39.9285L292.831 45.171L288.562 45.2854Z" fill="#C2DFE3" fill-opacity="0.180392"/>
<path d="M1189.01 25.0935L1193.05 24.8749C1193.09 26.1947 1193.03 27.6243 1192.99 28.9524C1191.66 30.4981 1192.28 30.2376 1190.56 30.2953C1188.71 28.3029 1189.23 28.4309 1189.01 25.0935Z" fill="#B9DEE3"/>
<path d="M270.313 60.2983C270.036 57.5516 269.594 56.2024 271.959 54.9435C274.236 56.8579 273.555 56.0238 274.367 59.5606L274.449 59.9933L270.313 60.2983Z" fill="#C2DFE3" fill-opacity="0.188235"/>
<path d="M1382.87 85.4131L1388.27 85.1575C1387.1 88.1155 1387.14 89.8786 1384.05 90.6547L1382.87 85.4131Z" fill="#C2DFE3" fill-opacity="0.952941"/>
<path d="M1346.29 49.9376C1350.37 50.4526 1350.75 49.7004 1351.18 54.8778L1347.99 54.544C1346.38 53.1627 1346.74 52.5853 1346.29 49.9376Z" fill="#BBD8DC" fill-opacity="0.988235"/>
<path d="M278.727 55.0992L279.113 51.4752C280.861 49.53 281.651 50.0202 284.55 49.6551C283.216 53.0374 282.003 54.1636 278.727 55.0992Z" fill="#B9DEE3" fill-opacity="0.972549"/>
<path d="M1026.91 59.0717L1028.14 58.7388C1027.93 56.7924 1027.92 57.4499 1029.22 55.5169L1030.4 55.1413C1031.27 56.5106 1030.95 58.2128 1030.94 60.1685L1026.51 60.0839L1026.91 59.0717Z" fill="#C2DFE3" fill-opacity="0.109804"/>
<path d="M167.144 65.004C167.336 63.4951 167.485 63.0657 167.944 61.6634C169.389 61.614 169.814 61.6379 171.124 60.9359L171.395 60.7875L170.74 64.0711C169.325 65.0695 168.837 64.9905 167.144 65.004Z" fill="#C2DFE3" fill-opacity="0.0117647"/>
<path d="M265.736 61.2587L268.259 61.5701L269.808 64.8891L265.727 65.7078L265.736 61.2587Z" fill="#C2DFE3" fill-opacity="0.0235294"/>
<path d="M301.815 35.7112C301.843 34.2168 302.009 33.4962 302.287 32.0515L303.207 31.4037L304.522 33.121L304.042 33.9471L305.129 34.7339L301.815 35.7112Z" fill="#C2DFE3" fill-opacity="0.0156863"/>
</g>
<defs>
<clipPath id="clip0_2093_9265">
<rect width="1441" height="465" fill="white"/>
</clipPath>
</defs>
</svg>
