<svg width="316" height="249" viewBox="0 0 316 249" fill="none" xmlns="http://www.w3.org/2000/svg">
<path d="M178.617 15.2642C179.592 15.1211 180.273 15.2945 181.206 15.2863C188.536 15.2219 195.994 15.4934 203.306 15.3253C210.224 15.2504 219.819 15.1107 226.726 15.3632L226.687 15.5323C226.979 19.1103 226.808 24.6654 226.804 28.3833L226.759 51.4992C228.779 52.5451 234.131 51.4856 234.743 51.7324C236.713 51.9763 239.164 51.9822 241.189 52.034L240.957 52.0819C238.562 52.5643 236.697 52.0065 235.698 52.4369C234.809 53.793 234.239 57.4376 235.738 58.6468C238.024 59.3072 241.207 57.9397 243.269 59.2931C247.236 59.2997 255.003 59.5079 258.702 59.2202C259.304 59.7413 259.185 59.8818 259.196 60.7132C259.25 65.0274 259.2 69.3482 259.199 73.6632C257.564 73.2906 245.397 73.43 242.996 73.4336C243.24 75.8013 242.824 78.6843 243.161 80.7295L251.187 80.7147C253.477 80.7105 257.484 80.8068 259.665 80.6828C262.262 80.7174 264.859 80.7317 267.457 80.7261C270.578 80.7261 274.92 80.6089 277.942 80.7653L285.877 80.6918L290.452 80.747C292.812 80.7375 296.994 80.8222 299.226 80.6741L299.272 165.099L299.264 190.408C299.264 193.568 299.061 200.212 299.367 203.129L299.178 204.46L299.251 204.621C299.256 206.417 299.375 209.401 299.253 211.098C298.68 211.343 298.463 211.257 297.8 211.179L296.664 211.122C294.611 211.073 293.144 211.075 291.099 211.195C288.648 211.154 286.199 211.16 283.751 211.212C283.767 212.152 284.005 217.965 283.813 218.345L283.572 218.438C281.035 218.329 278.002 218.399 275.421 218.379L267.676 218.361C267.361 219.571 266.939 224.779 267.664 225.699L267.324 225.731C266.746 225.897 260.331 225.693 259.208 225.684C256.648 225.619 253.605 225.687 251.014 225.693C251.089 227.337 251.296 231.612 250.997 233.041C248.342 232.933 245.575 233.013 242.891 232.951C242.731 232.012 242.915 226.864 242.938 225.614C240.295 225.696 237.442 225.69 234.783 225.724C232.55 225.637 228.904 225.646 226.669 225.769C226.838 224.198 226.713 220.322 226.715 218.579C224.948 218.474 220.642 218.207 219.075 218.788L218.605 218.659L218.557 218.438C218.589 213.693 218.579 208.948 218.527 204.204C216.025 204.221 213.524 204.259 211.023 204.317C208.664 204.248 205.039 204.461 202.855 204.183C201.154 204.379 196.55 204.262 194.636 204.257C192.174 204.078 189.514 204.267 186.919 204.132C185.093 203.281 181.377 203.665 179.068 203.671L179.182 203.066L179.168 203.379L179.272 203.264L179.066 203.009C178.98 201.443 178.306 198.373 179.726 197.503C181.221 197.478 185.347 197.246 186.427 197.603L186.625 197.279C186.884 193.016 186.684 186.824 186.689 182.393L178.567 182.397L170.496 182.437C167.776 182.375 165.055 182.354 162.334 182.374C162.329 184.768 162.385 187.472 162.312 189.845C162.308 192.094 162.244 194.586 162.318 196.815C161.437 197.033 155.347 196.966 154.223 196.96L154.221 182.373C151.542 182.385 148.862 182.379 146.182 182.356C145.974 180.662 146.075 176.904 146.066 175.061C145.948 170.442 146.086 165.215 146.102 160.553L146.064 153.216C146.021 150.874 146.084 148.333 146.097 145.977L146.099 139.183L146.083 131.777L146.135 117.23L146.03 111.226L146.043 109.939L146.089 95.369L146.071 80.7485L146.057 73.3227V66.654C146.162 64.5627 146.062 61.4877 146.06 59.3303L146.096 44.7748C146.041 42.3276 146.051 39.8794 146.126 37.4327L146.054 37.1052C146.101 34.8374 146.099 32.5692 146.048 30.3017L146.123 29.8275C147.045 30.4045 152.625 30.1762 154.174 30.1655L154.226 15.5937L178.559 15.5159L178.617 15.2642ZM194.783 196.995L202.926 196.976L202.922 182.412L194.843 182.379L194.783 196.995Z" fill="#9CB8F2"/>
<path d="M194.946 109.919L202.941 109.891C202.989 111.481 202.856 113.424 202.975 114.918C202.999 115.694 203.055 116.447 202.928 117.214C200.358 117.211 197.789 117.19 195.22 117.151L195.031 117.083C194.619 115.782 194.791 111.511 194.814 109.948L194.946 109.919Z" fill="#A4BEF2"/>
<path d="M290.452 80.747C292.811 80.7375 296.994 80.8222 299.226 80.6741L299.272 165.099L299.264 190.408C299.264 193.568 299.061 200.212 299.367 203.129L299.177 204.46L299.25 204.621C299.256 206.417 299.375 209.401 299.253 211.098C298.68 211.343 298.463 211.257 297.8 211.179L296.664 211.122C294.611 211.073 293.144 211.075 291.099 211.195C288.648 211.154 286.199 211.16 283.751 211.212C283.767 212.152 284.005 217.965 283.813 218.345L283.572 218.438C281.034 218.329 278.002 218.399 275.421 218.379L267.676 218.361C267.361 219.571 266.939 224.779 267.663 225.699L267.324 225.731C266.746 225.897 260.331 225.693 259.208 225.684C256.648 225.619 253.605 225.687 251.014 225.693C251.089 227.337 251.296 231.612 250.997 233.041C248.342 232.933 245.575 233.013 242.891 232.951C242.731 232.012 242.915 226.864 242.938 225.614C240.295 225.696 237.442 225.69 234.782 225.724C232.55 225.637 228.904 225.646 226.669 225.769C226.838 224.198 226.713 220.322 226.714 218.579C226.843 211.468 226.655 204.267 226.773 197.12C227.76 194.972 226.823 185.691 226.856 182.399C229.279 182.255 232.339 182.315 234.809 182.305L234.864 182.211C234.796 179.921 234.857 177.425 234.861 175.119L234.884 167.847C234.766 165.624 234.847 162.86 234.844 160.596L234.824 153.189C234.709 148.652 234.834 143.685 234.845 139.114L234.843 131.789L234.816 117.212L234.855 117.042C234.829 114.734 234.854 112.399 234.857 110.088L234.793 109.969C235.041 105.841 234.843 99.6649 234.85 95.3269L234.836 87.9841L234.843 80.7358L243.161 80.7295L251.187 80.7147C253.477 80.7105 257.484 80.8068 259.664 80.6828C262.262 80.7174 264.859 80.7317 267.457 80.7261C270.578 80.7261 274.92 80.6089 277.942 80.7653L285.877 80.6918L290.452 80.747Z" fill="#9EBBF6"/>
<path d="M275.426 109.729C276.413 110.281 281.448 109.905 283.329 110.075C283.54 112.654 283.393 114.701 283.477 117.2C283.645 120.226 283.745 128.857 283.491 131.804C283.15 132.384 283.51 137.567 283.383 138.962C281.267 138.962 277.447 138.858 275.464 139.023C273.724 139.198 269.292 139.093 267.355 139.095L267.383 138.889C264.79 139.123 261.919 139.021 259.293 138.985C259.236 136.867 259.192 134.748 259.16 132.63L259.194 131.801L259.176 117.208C259.128 114.962 258.982 112.108 259.118 109.909C261.648 110.062 264.829 109.952 267.409 109.924L275.364 109.885L275.426 109.729Z" fill="#97B8F5"/>
<path d="M267.409 109.924L275.364 109.885C275.75 111.297 275.223 115.48 275.301 117.195C272.645 117.235 269.988 117.223 267.332 117.157L259.176 117.208C259.128 114.962 258.982 112.108 259.118 109.909C261.648 110.062 264.829 109.952 267.409 109.924Z" fill="#A4BEF2"/>
<path d="M267.332 117.157C269.988 117.223 272.644 117.235 275.301 117.195C275.823 119.256 275.415 129.259 275.42 131.784L267.318 131.783L267.332 117.157Z" fill="#7A95D0"/>
<path d="M259.194 131.801C261.944 131.785 264.909 131.818 267.64 131.692C267.248 133.768 267.371 136.702 267.382 138.889C264.79 139.123 261.918 139.021 259.293 138.985C259.235 136.867 259.191 134.748 259.16 132.63L259.194 131.801Z" fill="#A4BEF2"/>
<path d="M259.665 80.6829C262.262 80.7174 264.859 80.7317 267.457 80.7261C270.578 80.7261 274.92 80.6089 277.942 80.7653C276.581 80.8917 276.503 80.6877 275.686 81.3606C274.947 83.0997 275.491 85.7635 275.453 87.9941C275.445 89.1588 275.44 94.6551 275.226 95.3279C272.642 95.3058 270.056 95.3204 267.472 95.3719L267.392 95.4706C266.745 95.0852 265.989 95.193 265.219 95.2229C263.233 95.2457 261.247 95.2812 259.262 95.3289C257.585 95.3274 252.55 95.4237 251.124 95.2832C250.485 94.8853 244.391 95.0327 243.345 95.1023L243.083 95.3226C240.807 95.201 237.225 95.3172 234.851 95.3269L234.836 87.9841L234.844 80.7359L243.162 80.7296L251.187 80.7147C253.477 80.7106 257.484 80.8069 259.665 80.6829Z" fill="#9CB8F2"/>
<path d="M243.162 80.7295L251.187 80.7147C251.369 81.956 250.997 86.2175 251.034 87.9308C248.529 87.863 245.856 87.9957 243.338 88.0801C243.28 90.4206 243.282 92.762 243.345 95.1022L243.083 95.3225C240.807 95.2009 237.225 95.3172 234.851 95.3269L234.836 87.9841L234.844 80.7358L243.162 80.7295Z" fill="#A4BEF2"/>
<path d="M267.457 80.7261C270.578 80.7261 274.92 80.6089 277.942 80.7653C276.581 80.8917 276.503 80.6877 275.686 81.3605C274.947 83.0996 275.491 85.7635 275.453 87.994C272.956 88.0779 270.02 88.0025 267.491 87.994L267.396 87.8644C267.217 85.9879 267.234 82.5683 267.457 80.7261Z" fill="#97B8F5"/>
<path d="M267.491 87.994C270.021 88.0026 272.957 88.0779 275.454 87.994C275.446 89.1588 275.44 94.655 275.226 95.3279C272.643 95.3057 270.057 95.3203 267.472 95.3719C267.14 94.311 267.243 89.0839 267.491 87.994Z" fill="#A4BEF2"/>
<path d="M226.856 182.399C229.279 182.255 232.339 182.315 234.809 182.305L234.831 197.013C234.839 199.372 234.796 201.939 234.859 204.283C234.846 208.913 234.75 213.749 234.832 218.362C234.827 220.531 234.929 223.632 234.782 225.724C232.55 225.636 228.904 225.645 226.669 225.769C226.838 224.197 226.713 220.322 226.714 218.579C226.843 211.468 226.655 204.267 226.773 197.12C227.76 194.972 226.823 185.691 226.856 182.399Z" fill="#5879CA"/>
<path d="M265.218 95.2228C265.989 95.1929 266.744 95.0852 267.391 95.4706L267.471 95.3719C270.056 95.3204 272.642 95.3058 275.225 95.3279L275.45 95.413C275.434 100.117 275.334 105.044 275.426 109.729L275.363 109.885L267.409 109.924C264.829 109.952 261.648 110.062 259.118 109.909C259.415 105.869 259.17 99.6086 259.261 95.3289C261.247 95.2812 263.232 95.2457 265.218 95.2228Z" fill="#9CB8F2"/>
<path d="M275.226 95.3278L275.451 95.4129C275.434 100.116 275.334 105.043 275.426 109.729L275.364 109.885L267.41 109.924C267.197 106.052 267.172 99.3259 267.392 95.4706L267.472 95.3718C270.056 95.3203 272.642 95.3057 275.226 95.3278Z" fill="#7A95D0"/>
<path d="M285.877 80.6918L290.452 80.747C291.166 83.6357 290.736 91.8331 291.053 95.2952L283.545 95.293C280.994 95.3893 278.088 95.3439 275.45 95.4129L275.226 95.3278C275.439 94.655 275.445 89.1587 275.453 87.994C275.491 85.7634 274.947 83.0996 275.686 81.3605C276.503 80.6876 276.581 80.8916 277.942 80.7652L285.877 80.6918Z" fill="#9CB8F2"/>
<path d="M234.844 160.596C237.531 160.512 240.22 160.465 242.909 160.453C242.929 164.369 242.742 171.378 243.022 175.067C243.045 177.266 243.166 180.221 242.965 182.353C241.149 182.378 236.389 182.52 234.863 182.211C234.796 179.921 234.856 177.425 234.861 175.118L234.883 167.847C234.766 165.624 234.847 162.86 234.844 160.596Z" fill="#7C99DC"/>
<path d="M234.861 175.119L243.023 175.067C243.045 177.266 243.166 180.221 242.966 182.353C241.15 182.378 236.389 182.52 234.864 182.211C234.796 179.921 234.856 177.425 234.861 175.119Z" fill="#97B8F5"/>
<path d="M234.844 131.789L243.044 131.793C243.161 134.342 243.505 143.818 242.996 146.028C242.961 148.355 242.867 150.873 243.018 153.181L234.825 153.189C234.71 148.652 234.835 143.685 234.845 139.114L234.844 131.789Z" fill="#7C99DC"/>
<path d="M234.843 131.789L243.044 131.793C243.16 134.342 243.505 143.818 242.995 146.028C242.864 144.016 242.974 141.133 242.981 139.058L234.844 139.114L234.843 131.789Z" fill="#97B8F5"/>
<path d="M283.464 204.177L283.692 204.278C285.447 204.273 289.571 204.168 291.14 204.35L291.099 211.195C288.648 211.154 286.2 211.16 283.751 211.212C283.767 212.152 284.005 217.965 283.813 218.345L283.573 218.438C281.035 218.329 278.002 218.399 275.421 218.379V204.448C276.465 204.192 281.803 204.277 283.464 204.177Z" fill="#A4BEF2"/>
<path d="M283.692 204.277C285.448 204.273 289.571 204.168 291.14 204.35L291.099 211.194C288.648 211.154 286.2 211.159 283.751 211.212C283.768 212.152 284.006 217.965 283.814 218.345L283.573 218.438C283.554 215.222 283.305 207.019 283.692 204.277Z" fill="#7C99DC"/>
<path d="M259.343 204.208C259.36 204.25 259.379 204.291 259.394 204.334C260.002 205.993 258.855 217.712 260.23 218.181C261.896 218.75 265.212 217.299 267.259 218.117L267.676 218.361C267.361 219.571 266.939 224.779 267.664 225.699L267.324 225.731C266.746 225.897 260.331 225.693 259.209 225.684C256.649 225.619 253.605 225.687 251.014 225.693C250.831 224.866 251.078 219.543 251.118 218.387C253.686 218.316 256.608 218.354 259.199 218.339C259.167 214.776 258.914 207.419 259.343 204.208Z" fill="#9CBEE3"/>
<path d="M234.864 182.211C236.39 182.52 241.15 182.378 242.966 182.353C242.938 187.231 242.954 192.109 243.014 196.987L234.831 197.013L234.81 182.305L234.864 182.211Z" fill="#7C99DC"/>
<path d="M234.85 95.3269C237.225 95.3172 240.807 95.201 243.082 95.3226C242.839 99.8836 242.944 105.311 242.989 109.928C240.812 109.924 236.876 109.818 234.857 110.088L234.793 109.969C235.041 105.841 234.843 99.665 234.85 95.3269Z" fill="#7C99DC"/>
<path d="M234.855 117.042C236.571 117.321 240.98 117.185 242.966 117.169C242.956 119.993 242.702 129.419 243.044 131.793L234.843 131.789L234.816 117.212L234.855 117.042Z" fill="#7C99DC"/>
<path d="M251.104 117.168L259.176 117.209L259.194 131.801L251.096 131.81L251.104 117.168Z" fill="#7A95D0"/>
<path d="M251.124 95.2831C252.55 95.4237 257.585 95.3274 259.262 95.3289C259.171 99.6086 259.416 105.869 259.119 109.909L251.078 109.926C251.058 105.045 251.073 100.164 251.124 95.2831Z" fill="#7A95D0"/>
<path d="M267.322 182.355C268.732 182.349 274.774 182.087 275.486 182.77C275.323 187.387 275.396 192.183 275.402 196.816L275.266 196.941L267.309 196.976L267.322 182.355Z" fill="#7C99DC"/>
<path d="M234.858 204.283L242.982 204.217L242.928 218.356L234.832 218.362C234.75 213.749 234.846 208.913 234.858 204.283Z" fill="#7C99DC"/>
<path d="M267.285 204.269C269.977 204.238 272.669 204.25 275.361 204.303L275.421 204.448V218.379L267.676 218.361L267.259 218.117C267.451 213.855 267.288 208.607 267.285 204.269Z" fill="#7C99DC"/>
<path d="M267.355 139.095C269.292 139.093 273.724 139.198 275.464 139.023C275.437 142.137 275.166 150.182 275.526 152.937C274.831 153.387 268.547 153.199 267.285 153.191C267.371 148.533 267.125 143.742 267.355 139.095Z" fill="#7C99DC"/>
<path d="M251.052 204.242L259.343 204.208C258.914 207.419 259.167 214.776 259.199 218.339C256.608 218.354 253.686 218.316 251.118 218.387C251.123 213.672 251.1 208.957 251.052 204.242Z" fill="#7A95D0"/>
<path d="M283.545 95.2931L291.053 95.2953C291.372 99.0026 291.128 105.947 291.131 109.896L283.534 109.914L283.545 95.2931Z" fill="#7C99DC"/>
<path d="M283.478 117.2L291.121 117.201L291.099 131.785C288.607 131.79 285.969 131.754 283.491 131.804C283.745 128.857 283.645 120.226 283.478 117.2Z" fill="#7A95D0"/>
<path d="M234.824 153.19L243.017 153.181C242.901 155.594 242.918 158.037 242.909 160.453C240.22 160.465 237.532 160.512 234.844 160.596L234.824 153.19Z" fill="#97B8F5"/>
<path d="M275.402 196.816C276.939 197.481 281.527 197.069 283.348 196.947C283.556 199.287 283.48 201.816 283.464 204.177C281.803 204.277 276.465 204.192 275.421 204.448L275.361 204.303C275.399 202.822 275.697 197.995 275.267 196.941L275.402 196.816Z" fill="#97B8F5"/>
<path d="M299.177 204.46L299.25 204.621C299.256 206.417 299.375 209.401 299.253 211.098C298.679 211.343 298.463 211.257 297.8 211.179L296.664 211.122C294.61 211.073 293.144 211.075 291.099 211.195L291.139 204.35C291.64 204.448 298.669 204.533 299.177 204.46Z" fill="#A4BEF2"/>
<path d="M267.255 160.5L275.464 160.493C275.426 165.353 275.423 170.214 275.45 175.074L267.321 175.089L267.255 160.5Z" fill="#7A95D0"/>
<path d="M251.013 160.443L259.277 160.447C259.219 165.318 259.188 170.189 259.186 175.059L251.122 175.094C250.789 170.499 251.341 165.146 251.013 160.443Z" fill="#7C99DC"/>
<path d="M251.135 182.342L259.153 182.37L259.178 196.973C256.807 196.979 253.399 196.897 251.109 197.008C250.873 192.877 251.078 186.486 251.135 182.342Z" fill="#7C99DC"/>
<path d="M251.069 138.962C253.198 139.201 256.975 139.087 259.236 139.076L259.191 153.209C256.658 153.221 253.71 153.175 251.207 153.25C250.898 151.401 251.071 141.332 251.069 138.962Z" fill="#7A95D0"/>
<path d="M283.507 160.49L291.131 160.47C291.047 165.292 291.098 170.235 291.088 175.067L283.534 175.074L283.507 160.49Z" fill="#7A95D0"/>
<path d="M283.529 182.27C285.78 182.468 288.823 182.367 291.145 182.346L291.118 196.954C289.11 196.964 285.317 197.076 283.464 196.84C283.797 193.089 283.542 186.226 283.529 182.27Z" fill="#7C99DC"/>
<path d="M283.537 139.142C286.083 139.089 288.632 139.067 291.18 139.076C291.115 143.78 291.096 148.484 291.123 153.187C288.748 153.198 285.883 153.141 283.548 153.238L283.537 139.142Z" fill="#7C99DC"/>
<path d="M251.122 175.094L259.186 175.059C259.174 177.292 259.074 180.183 259.153 182.37L251.135 182.342C251.11 179.926 251.106 177.51 251.122 175.094Z" fill="#97B8F5"/>
<path d="M178.616 15.2642C179.592 15.1211 180.272 15.2945 181.206 15.2863C188.536 15.2219 195.994 15.4934 203.306 15.3253C210.224 15.2504 219.819 15.1107 226.726 15.3632L226.687 15.5323C226.979 19.1103 226.808 24.6654 226.804 28.3833L226.759 51.4992C228.779 52.5451 234.13 51.4856 234.743 51.7324C236.713 51.9763 239.163 51.9822 241.189 52.034L240.957 52.0819C238.561 52.5643 236.697 52.0065 235.698 52.4369C234.809 53.793 234.239 57.4376 235.738 58.6468C238.024 59.3072 241.207 57.9397 243.269 59.2931C247.236 59.2997 255.003 59.5079 258.702 59.2202C259.304 59.7413 259.185 59.8818 259.196 60.7132C259.249 65.0274 259.2 69.3482 259.199 73.6632C257.564 73.2906 245.397 73.43 242.996 73.4336C243.24 75.8013 242.824 78.6843 243.161 80.7295L234.843 80.7358C232.481 80.6999 229.03 80.6128 226.781 80.8927L226.708 81.1064L226.73 86.8475L226.66 88.3464C225.531 89.7818 227.614 94.7815 224.969 95.0273C223.741 95.1414 220.03 94.2278 218.579 95.1837C217.369 95.3962 212.843 95.3383 211.375 95.3456C211.293 95.2112 210.966 82.2751 210.88 80.8496C208.231 80.8856 205.582 80.8652 202.935 80.7884C200.735 80.6369 197.109 80.7619 194.807 80.7782C192.296 80.6466 189.35 80.8185 186.7 80.7242L178.564 80.7453C177.774 80.5311 171.748 80.6335 170.46 80.5758C169.445 80.9073 163.836 80.7978 162.367 80.8003C161.304 80.722 159.525 80.7699 158.407 80.7687C157.217 80.6763 155.469 80.7363 154.237 80.7451L146.071 80.7485L146.057 73.3227V66.654C146.162 64.5627 146.062 61.4877 146.06 59.3303L146.095 44.7748C146.041 42.3276 146.051 39.8794 146.125 37.4327L146.054 37.1052C146.101 34.8374 146.099 32.5692 146.048 30.3017L146.123 29.8275C147.045 30.4045 152.625 30.1762 154.174 30.1655L154.226 15.5937L178.559 15.5159L178.616 15.2642Z" fill="#9EBBF6"/>
<path d="M226.758 51.4992C228.778 52.5451 234.13 51.4856 234.743 51.7324C236.713 51.9763 239.163 51.9822 241.189 52.034L240.956 52.0819C238.561 52.5643 236.696 52.0065 235.697 52.4369C234.809 53.793 234.239 57.4376 235.738 58.6468C238.024 59.3072 241.206 57.9397 243.268 59.2931C247.235 59.2997 255.002 59.5079 258.701 59.2202C259.304 59.7413 259.185 59.8818 259.195 60.7132C259.249 65.0274 259.2 69.3482 259.198 73.6632C257.564 73.2906 245.396 73.43 242.996 73.4336C243.239 75.8013 242.823 78.6843 243.161 80.7295L234.843 80.7358C232.48 80.6999 229.03 80.6128 226.781 80.8927L226.708 81.1064C225.217 80.4516 220.782 80.9593 218.624 80.7833C218.646 76.079 218.62 71.3747 218.545 66.6707C218.506 65.4583 218.281 60.2804 218.503 59.3556C218.7 57.6408 218.602 53.8621 218.616 51.9948C219.904 52.0653 225.665 52.212 226.679 51.9445L226.758 51.4992Z" fill="#5879CA"/>
<path d="M258.702 59.2202C259.304 59.7413 259.186 59.8818 259.196 60.7132C259.25 65.0274 259.2 69.3482 259.199 73.6632C257.565 73.2906 245.397 73.43 242.996 73.4336L242.929 59.341L243.269 59.2931C247.236 59.2997 255.003 59.5079 258.702 59.2202Z" fill="#97B8F5"/>
<path d="M234.839 59.3546C237.535 59.3135 240.232 59.3089 242.929 59.341L242.996 73.4336C240.289 73.4127 237.582 73.425 234.876 73.471C234.837 68.7655 234.825 64.0601 234.839 59.3546Z" fill="#7C99DC"/>
<path d="M218.545 66.6708C220.603 66.6263 222.53 66.6477 224.585 66.6793C225.873 66.699 226.015 66.7082 226.731 66.0524L226.708 71.8925C226.715 74.204 226.577 78.7548 226.78 80.8927L226.708 81.1064C225.217 80.4516 220.782 80.9593 218.624 80.7833C218.646 76.079 218.62 71.3748 218.545 66.6708Z" fill="#97B8F5"/>
<path d="M218.503 59.3556C219.622 59.3391 226.066 59.1808 226.726 59.3547L226.731 66.0524C226.015 66.7082 225.873 66.6989 224.585 66.6792C222.53 66.6476 220.603 66.6262 218.545 66.6707C218.506 65.4583 218.281 60.2804 218.503 59.3556Z" fill="#A4BEF2"/>
<path d="M218.616 51.9948C219.904 52.0654 225.665 52.212 226.679 51.9445C226.751 54.4141 226.767 56.8846 226.727 59.3547C226.067 59.1808 219.622 59.3391 218.503 59.3557C218.7 57.6409 218.602 53.8621 218.616 51.9948Z" fill="#97B8F5"/>
<path d="M178.617 15.2642C179.592 15.1211 180.273 15.2945 181.206 15.2863C188.537 15.2219 195.994 15.4934 203.307 15.3253C210.224 15.2504 219.819 15.1107 226.726 15.3632L226.687 15.5323L219.159 15.5139L211.23 15.5189C210.93 17.3205 211.331 21.8929 210.851 22.8293C208.355 22.9153 205.463 22.856 202.937 22.8592C202.93 25.1381 202.846 27.9208 202.922 30.1643L202.936 37.1638L202.707 37.4159C200.278 37.5081 197.427 37.4356 194.967 37.4269L194.841 37.2878C193.807 37.5246 187.731 37.5657 186.642 37.2729L186.665 29.9296C185.9 30.3734 179.439 30.3654 178.55 30.1935C178.581 25.301 178.584 20.4084 178.559 15.5159L178.617 15.2642Z" fill="#97B8F5"/>
<path d="M178.617 15.2642C179.592 15.1211 180.273 15.2945 181.206 15.2863C188.537 15.2219 195.994 15.4934 203.307 15.3253C210.224 15.2504 219.819 15.1107 226.726 15.3632L226.687 15.5323L219.159 15.5139L211.23 15.5189L186.68 15.571L186.665 29.9296C185.9 30.3734 179.439 30.3654 178.55 30.1935C178.581 25.301 178.584 20.4084 178.559 15.5159L178.617 15.2642Z" fill="#5879CA"/>
<path d="M194.797 22.8324L202.937 22.8592C202.93 25.1381 202.846 27.9209 202.922 30.1643L202.936 37.1638L202.707 37.4159C200.278 37.5081 197.427 37.4356 194.967 37.4269L194.841 37.2878L194.797 30.307L194.797 22.8324Z" fill="#7C99DC"/>
<path d="M194.797 30.307C197.385 30.0769 200.298 30.1523 202.922 30.1642L202.936 37.1637L202.707 37.4159C200.278 37.508 197.427 37.4356 194.967 37.4268L194.841 37.2877L194.797 30.307Z" fill="#7A95D0"/>
<path d="M154.226 15.5937L178.559 15.5158C178.583 20.4084 178.58 25.301 178.549 30.1934C176.298 30.057 172.574 30.1616 170.234 30.1618L154.174 30.1655L154.226 15.5937Z" fill="#97B8F5"/>
<path d="M146.123 29.8275C147.045 30.4045 152.625 30.1762 154.174 30.1655L170.234 30.1618C172.574 30.1616 176.298 30.057 178.55 30.1935C179.439 30.3654 185.9 30.3734 186.664 29.9296L186.642 37.2729L186.512 37.405C176.249 37.6766 164.556 37.4483 154.16 37.44L146.125 37.4327L146.054 37.1051C146.101 34.8374 146.099 32.5692 146.048 30.3017L146.123 29.8275Z" fill="#5879CA"/>
<path d="M154.247 66.5827C156.905 66.4932 159.68 66.5511 162.349 66.5722C165.124 66.6133 167.683 66.6437 170.465 66.553L170.46 80.5758C169.445 80.9072 163.836 80.7978 162.367 80.8002C161.304 80.7219 159.525 80.7698 158.407 80.7686C157.218 80.6762 155.47 80.7363 154.237 80.745L146.071 80.7484L146.057 73.3227C148.772 73.2989 151.488 73.2918 154.204 73.3008L154.247 66.5827Z" fill="#9EBBF6"/>
<path d="M162.349 66.5722C165.124 66.6133 167.683 66.6437 170.465 66.553L170.46 80.5758C169.445 80.9072 163.836 80.7978 162.367 80.8002L162.349 66.5722Z" fill="#7A95D0"/>
<path d="M146.057 73.3228C148.772 73.2989 151.488 73.2919 154.204 73.3009C154.21 75.6197 154.14 78.4664 154.237 80.7451L146.071 80.7485L146.057 73.3228Z" fill="#7C99DC"/>
<path d="M170.464 66.553C171.661 66.5318 180.253 66.1868 180.635 66.5938C182.655 66.6359 184.675 66.6573 186.695 66.658C186.663 71.3467 186.665 76.0354 186.699 80.7241L178.564 80.7453C177.773 80.531 171.747 80.6334 170.459 80.5758L170.464 66.553Z" fill="#A4BEF2"/>
<path d="M180.636 66.5939C182.656 66.636 184.676 66.6574 186.696 66.6581C186.664 71.3468 186.665 76.0355 186.7 80.7242L178.565 80.7454C178.497 77.4568 178.36 69.9506 178.693 66.9203C179.321 66.5383 179.776 66.6443 180.636 66.5939Z" fill="#7A95D0"/>
<path d="M154.183 59.3128L162.175 59.3152C162.491 61.6924 162.089 64.2597 162.349 66.5722C159.68 66.5511 156.905 66.4932 154.247 66.5827L154.204 73.3008C151.488 73.2918 148.772 73.2989 146.057 73.3227V66.6539C146.162 64.5627 146.062 61.4877 146.06 59.3303L154.183 59.3128Z" fill="#A4BEF2"/>
<path d="M146.057 66.6539C148.398 66.6422 152.009 66.729 154.247 66.5827L154.204 73.3008C151.488 73.2918 148.772 73.2989 146.057 73.3227V66.6539Z" fill="#7A95D0"/>
<path d="M178.558 44.7718L186.675 44.7475L186.676 50.8235L186.699 59.3099L178.566 59.3354L178.558 44.7718Z" fill="#7A95D0"/>
<path d="M194.817 44.8535C197.025 44.6408 200.594 44.7453 202.908 44.7538L202.968 59.3349L194.78 59.3473C194.785 57.0309 194.72 54.2815 194.803 51.996L194.817 44.8535Z" fill="#7C99DC"/>
<path d="M146.095 44.7748C148.546 44.7592 151.84 44.6549 154.224 44.8098L154.209 52.0522L154.182 59.3129L146.06 59.3304L146.095 44.7748Z" fill="#7A95D0"/>
<path d="M186.696 66.658C188.645 66.2561 192.724 66.3643 194.811 66.4939L194.807 80.7781C192.296 80.6465 189.35 80.8185 186.7 80.7241C186.665 76.0354 186.664 71.3467 186.696 66.658Z" fill="#A4BEF2"/>
<path d="M194.811 66.494C196.994 66.7493 200.623 66.6455 202.928 66.6384C202.884 71.3551 202.887 76.072 202.936 80.7884C200.736 80.6369 197.11 80.7619 194.808 80.7782L194.811 66.494Z" fill="#7A95D0"/>
<path d="M211.022 44.7495L218.614 44.7113L218.616 51.9948C218.603 53.8621 218.7 57.6408 218.503 59.3556C216.193 59.272 213.361 59.3345 211.009 59.3272L211.022 44.7495Z" fill="#7C99DC"/>
<path d="M211.051 66.6135L218.546 66.6707C218.62 71.3747 218.647 76.0789 218.625 80.7832C216.866 80.6327 212.973 80.7321 211.058 80.7287L211.051 66.6135Z" fill="#7A95D0"/>
<path d="M146.125 37.4327L154.16 37.44C154.689 38.5656 154.33 43.0172 154.418 44.7704L154.224 44.8098C151.84 44.6549 148.547 44.7592 146.095 44.7748C146.04 42.3276 146.05 39.8794 146.125 37.4327Z" fill="#A4BEF2"/>
<path d="M210.851 22.8293L211.096 22.8765C211.077 24.6733 211.157 28.4764 210.993 30.1207L202.922 30.1642C202.845 27.9208 202.929 25.138 202.936 22.8592C205.462 22.856 208.354 22.9152 210.851 22.8293Z" fill="#9CB8F2"/>
<path d="M186.642 37.273C187.731 37.5657 193.807 37.5246 194.841 37.2878L194.967 37.4269C194.628 39.1142 195.137 44.0796 194.472 44.7313L186.675 44.7476C186.696 43.2964 186.905 38.5119 186.512 37.405L186.642 37.273Z" fill="#9CB8F2"/>
<path d="M162.376 46.3135C162.665 48.084 162.605 50.3653 162.617 52.1942C164.603 52.164 168.606 52.1852 170.452 51.9989L170.49 59.3361C168.025 59.3378 164.779 59.4244 162.375 59.2885C162.305 56.9845 162.361 54.3788 162.358 52.0534C162.294 50.1606 162.348 48.2121 162.376 46.3135Z" fill="#7C99DC"/>
<path d="M154.209 52.0522L162.358 52.0534C162.361 54.3788 162.306 56.9845 162.376 59.2885L162.175 59.3153L154.183 59.3128L154.209 52.0522Z" fill="#97B8F5"/>
<path d="M154.418 44.7704C156.995 44.7444 159.808 44.7668 162.364 44.6498L162.377 46.3135C162.349 48.2122 162.295 50.1606 162.358 52.0534L154.209 52.0522L154.224 44.8098L154.418 44.7704Z" fill="#A4BEF2"/>
<path d="M202.922 30.1643L210.993 30.1208L211.051 30.3445L211.058 37.4205C209.477 37.4249 204.051 37.6066 202.935 37.1638L202.922 30.1643Z" fill="#A4BEF2"/>
<path d="M194.967 37.4269C197.427 37.4356 200.279 37.5081 202.707 37.4159C203.182 38.9722 202.543 42.8305 202.91 44.7539C200.595 44.7454 197.026 44.6408 194.818 44.8536L194.473 44.7313C195.137 44.0796 194.628 39.1142 194.967 37.4269Z" fill="#A4BEF2"/>
<path d="M186.675 44.7476L194.472 44.7313L194.818 44.8536L194.804 51.996C192.694 52.0048 189.453 52.2703 187.386 51.8538C186.909 51.7577 186.856 51.278 186.676 50.8235L186.675 44.7476Z" fill="#A4BEF2"/>
<path d="M162.363 44.6498C164.937 44.82 167.864 44.7359 170.471 44.7133L170.452 51.999C168.606 52.1852 164.603 52.1641 162.617 52.1942C162.605 50.3654 162.665 48.084 162.376 46.3135L162.363 44.6498Z" fill="#7A95D0"/>
<path d="M211.229 15.5189L219.158 15.5139C218.541 18.4334 219.057 20.8617 218.644 22.8289L211.096 22.8765L210.851 22.8293C211.33 21.8929 210.929 17.3205 211.229 15.5189Z" fill="#9CB8F2"/>
<path d="M211.097 22.8765L218.645 22.8289C218.559 25.2915 218.545 27.7557 218.601 30.219C216.616 30.315 212.928 29.8688 211.051 30.3445L210.993 30.1208C211.158 28.4765 211.078 24.6734 211.097 22.8765Z" fill="#7C99DC"/>
<path d="M211.051 30.3445C212.927 29.8688 216.616 30.315 218.601 30.219L218.595 37.4432C216.741 37.4439 212.739 37.5562 211.058 37.4205L211.051 30.3445Z" fill="#7A95D0"/>
<path d="M170.46 80.5759C171.748 80.6335 177.774 80.5311 178.565 80.7454L186.7 80.7242C189.35 80.8186 192.297 80.6466 194.807 80.7782C197.11 80.7619 200.735 80.6369 202.936 80.7884C205.583 80.8652 208.232 80.8857 210.88 80.8497C210.966 82.2751 211.294 95.2112 211.375 95.3457L211.102 95.3958C210.397 95.0261 204.247 95.2737 202.987 95.2936C202.929 100.078 202.781 105.129 202.942 109.891L194.947 109.919L194.815 109.948C194.792 111.511 194.62 115.782 195.032 117.083C193.595 117.161 187.447 117.18 186.655 117.34L186.711 131.305L186.694 131.765C183.946 131.8 181.198 131.819 178.45 131.821C178.468 132.915 178.501 138.393 178.709 139.12L178.634 139.226C178.557 141.467 178.54 143.71 178.582 145.952C177.908 146.166 171.192 146.281 170.499 146.225L170.441 145.855L170.478 139.068C168.102 139.168 164.736 139.097 162.296 139.108C162.06 138.254 162.351 132.922 162.377 131.732C159.742 131.664 156.999 131.868 154.21 131.777L146.083 131.777L146.135 117.23L146.03 111.226L146.043 109.939L146.09 95.369L146.071 80.7485L154.237 80.7451C155.47 80.7364 157.218 80.6763 158.408 80.7687C159.525 80.7699 161.304 80.722 162.367 80.8003C163.836 80.7979 169.445 80.9073 170.46 80.5759Z" fill="#9CB8F2"/>
<path d="M170.46 80.5759C171.748 80.6335 177.774 80.5311 178.565 80.7454L186.7 80.7242C189.35 80.8186 192.296 80.6466 194.807 80.7782C197.109 80.7619 200.735 80.6369 202.935 80.7884C205.583 80.8652 208.231 80.8857 210.88 80.8497C210.966 82.2751 211.294 95.2112 211.375 95.3457L211.101 95.3958C210.397 95.0261 204.247 95.2737 202.986 95.2936L194.545 95.3367C194.396 99.8179 194.527 105.13 194.524 109.668C193.455 109.523 188.83 109.547 187.437 109.514C186.452 108.228 186.972 97.5166 187.282 95.5728L186.998 95.3345L178.587 95.3126C176.597 95.4792 172.684 95.3921 170.527 95.4281L170.047 95.3017C170.069 93.7877 170.257 89.9272 169.907 88.5748C168.463 88.1504 156.729 87.9778 154.506 87.9377C154.398 85.8832 154.559 83.159 154.618 81.0576L158.407 80.7687C159.525 80.7699 161.304 80.722 162.367 80.8003C163.836 80.7979 169.445 80.9073 170.46 80.5759Z" fill="#A4BEF2"/>
<path d="M146.09 95.3689C148.812 95.3373 151.534 95.3181 154.256 95.3118C154.242 98.0889 153.994 107.593 154.348 109.92C154.191 112.473 154.177 114.669 154.192 117.212L146.135 117.23L146.03 111.226L146.043 109.939L146.09 95.3689Z" fill="#7C99DC"/>
<path d="M146.043 109.939C148.793 109.932 151.603 109.899 154.348 109.92C154.191 112.473 154.177 114.669 154.192 117.212L146.135 117.23L146.03 111.226L146.043 109.939Z" fill="#A4BEF2"/>
<path d="M178.547 117.189L186.524 117.242L186.655 117.34L186.711 131.305L186.694 131.765C183.946 131.8 181.198 131.819 178.45 131.821C178.812 129.171 178.554 120.242 178.547 117.189Z" fill="#7C99DC"/>
<path d="M162.336 117.177L170.487 117.187C170.48 121.908 170.348 127.106 170.491 131.788C168.45 131.788 164.249 131.9 162.376 131.732L162.336 117.177Z" fill="#7C99DC"/>
<path d="M146.135 117.23L154.192 117.212C154.261 122.072 154.136 126.946 154.209 131.777L146.083 131.777L146.135 117.23Z" fill="#7A95D0"/>
<path d="M194.545 95.3366L202.986 95.2936C202.929 100.078 202.781 105.129 202.942 109.891L194.947 109.919C194.359 107.747 195.282 98.7538 194.545 95.3366Z" fill="#7A95D0"/>
<path d="M178.587 95.3125L186.998 95.3344C186.393 97.0219 186.677 107.436 186.705 109.901L178.573 109.926C178.572 105.278 178.438 99.9058 178.587 95.3125Z" fill="#7A95D0"/>
<path d="M170.046 95.3016L170.526 95.428L170.455 102.656C169.078 102.622 163.286 102.365 162.316 102.833C162.263 100.407 162.318 97.7646 162.321 95.3229L170.046 95.3016Z" fill="#7C99DC"/>
<path d="M162.316 102.833C163.287 102.365 169.078 102.622 170.456 102.656L170.469 109.9L162.323 109.949L162.316 102.833Z" fill="#7A95D0"/>
<path d="M186.818 109.942C189.483 109.9 192.149 109.902 194.815 109.948C194.792 111.511 194.62 115.782 195.032 117.083C193.595 117.161 187.447 117.18 186.655 117.34L186.524 117.242C186.771 116.531 186.798 111.007 186.818 109.942Z" fill="#97B8F5"/>
<path d="M170.477 139.068C171.911 139.003 177.596 138.77 178.634 139.226C178.557 141.467 178.539 143.71 178.582 145.952C177.908 146.166 171.192 146.281 170.499 146.225L170.44 145.855L170.477 139.068Z" fill="#A4BEF2"/>
<path d="M226.722 139.115C229.372 139.099 232.21 139.037 234.845 139.114C234.834 143.685 234.709 148.652 234.824 153.189L234.844 160.596C234.847 162.86 234.766 165.624 234.884 167.847C233.323 167.807 227.67 168.081 226.733 167.596L226.722 139.115Z" fill="#5879CA"/>
<path d="M226.732 167.596C227.67 168.081 233.322 167.807 234.883 167.847L234.861 175.118C234.856 177.425 234.796 179.921 234.863 182.211L234.809 182.305C232.338 182.315 229.279 182.255 226.855 182.399C226.823 185.691 227.76 194.972 226.773 197.12C226.336 188.233 226.708 176.731 226.732 167.596Z" fill="#617FC5"/>
<path d="M202.986 95.2935C204.247 95.2736 210.397 95.0261 211.101 95.3957C210.855 100.243 211.152 105.227 211.03 110.066C208.702 110.036 205.633 109.973 203.347 110.056C203.331 111.514 203.413 113.584 202.975 114.918C202.856 113.424 202.989 111.481 202.942 109.891C202.781 105.129 202.929 100.078 202.986 95.2935Z" fill="#9EBBF6"/>
<path d="M154.232 161.222C154.318 160.941 154.462 160.864 154.699 160.63C156.351 160.364 160.523 160.419 162.365 160.431L162.316 175.093C160.66 175.119 155.301 175.553 154.245 174.851C154.108 170.432 154.218 165.666 154.232 161.222Z" fill="#A4BEF2"/>
<path d="M226.78 80.8927C229.029 80.6128 232.48 80.6998 234.843 80.7358L234.835 87.984L234.85 95.3269C232.777 95.4395 228.174 95.0472 226.728 95.6282C226.741 93.222 226.794 90.7437 226.659 88.3464L226.73 86.8475L226.708 81.1064L226.78 80.8927Z" fill="#617FC5"/>
<path d="M226.781 80.8927C229.031 80.6128 232.481 80.6998 234.844 80.7358L234.836 87.984C232.957 87.9488 228.939 88.3707 227.151 87.7808C226.846 87.6801 226.83 87.2244 226.731 86.8475L226.709 81.1064L226.781 80.8927Z" fill="#5E78BC"/>
<path d="M146.102 160.553C148.797 160.506 151.492 160.482 154.188 160.481L154.231 161.222C154.218 165.666 154.108 170.432 154.244 174.851C153.417 175.207 147.397 175.064 146.066 175.061C145.948 170.442 146.086 165.215 146.102 160.553Z" fill="#7C99DC"/>
<path d="M162.365 160.431C164.425 160.646 168.301 160.523 170.499 160.509C170.449 165.36 170.439 170.211 170.469 175.062L162.315 175.093L162.365 160.431Z" fill="#7A95D0"/>
<path d="M195.032 117.083L195.221 117.151C194.461 118.307 194.825 129.612 194.843 131.749C192.979 131.763 187.836 132.153 186.711 131.305L186.655 117.34C187.447 117.18 193.595 117.161 195.032 117.083Z" fill="#9EBBF6"/>
<path d="M234.85 95.3269C234.843 99.6649 235.041 105.841 234.793 109.969C232.677 109.906 228.718 109.87 226.718 110.108L226.728 95.6281C228.174 95.0472 232.778 95.4395 234.85 95.3269Z" fill="#5879CA"/>
<path d="M195.22 117.151C197.789 117.19 200.358 117.211 202.928 117.214C202.868 122.071 202.858 126.93 202.897 131.787C200.212 131.809 197.527 131.796 194.842 131.749C194.824 129.612 194.46 118.307 195.22 117.151Z" fill="#7A95D0"/>
<path d="M226.886 117.293C229.161 117.119 232.463 117.209 234.816 117.212L234.842 131.789C232.913 131.758 228.444 132.232 227.028 131.497L226.725 130.461L226.771 120.622C226.879 119.767 226.863 118.204 226.886 117.293Z" fill="#5879CA"/>
<path d="M178.709 139.12L186.646 139.09C186.707 143.78 186.575 148.507 186.649 153.166L178.591 153.177L178.581 145.952C178.539 143.71 178.556 141.467 178.633 139.226L178.709 139.12Z" fill="#7C99DC"/>
<path d="M162.296 139.108C164.736 139.097 168.102 139.168 170.477 139.068L170.44 145.855L170.499 146.225C170.328 147.992 170.438 151.29 170.436 153.17L162.315 153.189C162.435 149.725 162.321 145.943 162.382 142.409C162.372 141.309 162.344 140.208 162.296 139.108Z" fill="#7C99DC"/>
<path d="M162.296 139.108C164.736 139.097 168.102 139.168 170.477 139.068L170.44 145.855C168.073 145.982 164.956 145.904 162.534 145.905C162.558 144.638 162.485 143.659 162.382 142.409C162.372 141.309 162.344 140.208 162.296 139.108Z" fill="#7A95D0"/>
<path d="M195.023 139.112L202.945 139.109C202.744 143.612 202.89 148.633 202.922 153.174L194.83 153.189C194.814 150.278 194.605 141.491 195.023 139.112Z" fill="#7C99DC"/>
<path d="M211.375 95.3456C212.843 95.3383 217.369 95.3962 218.579 95.1836L218.597 109.899C216.843 109.9 212.561 109.813 211.03 110.066C211.152 105.227 210.855 100.243 211.101 95.3957L211.375 95.3456Z" fill="#7C99DC"/>
<path d="M146.063 153.216L154.304 153.186C154.614 154.473 154.396 159.096 154.187 160.481C151.492 160.482 148.797 160.505 146.102 160.553L146.063 153.216Z" fill="#9EBBF6"/>
<path d="M211.025 196.984C213.487 196.975 216.065 196.929 218.516 196.97C218.521 198.932 218.393 202.333 218.527 204.204C216.025 204.221 213.524 204.259 211.022 204.317C208.664 204.248 205.039 204.461 202.854 204.183C204.864 203.155 208.556 204.696 210.15 203.616L210.524 203.825C210.821 202.713 210.767 198.636 211.025 196.984Z" fill="#97B8F5"/>
<path d="M178.45 131.821C181.198 131.818 183.946 131.8 186.694 131.765C187.069 134.259 186.468 136.791 186.646 139.09L178.709 139.12C178.501 138.393 178.468 132.915 178.45 131.821Z" fill="#A4BEF2"/>
<path d="M226.718 110.108C228.719 109.87 232.677 109.906 234.793 109.969L234.858 110.088C234.854 112.399 234.83 114.734 234.855 117.042L234.816 117.212C232.463 117.209 229.162 117.119 226.886 117.293C226.864 118.204 226.879 119.767 226.772 120.622C226.564 117.697 226.721 113.154 226.718 110.108Z" fill="#617FC5"/>
<path d="M146.096 145.977C148.801 145.912 151.494 145.878 154.198 146.012C154.201 147.867 154.091 151.468 154.303 153.186L146.063 153.216C146.021 150.874 146.084 148.333 146.096 145.977Z" fill="#7C99DC"/>
<path d="M194.842 131.749C197.527 131.796 200.212 131.809 202.898 131.787C203.181 133.387 202.959 137.241 202.945 139.109L195.023 139.111C194.679 137.691 194.828 133.4 194.842 131.749Z" fill="#A4BEF2"/>
<path d="M226.725 130.461L227.028 131.497C228.445 132.232 232.914 131.758 234.843 131.789L234.845 139.114C232.21 139.037 229.372 139.099 226.722 139.115L226.725 130.461Z" fill="#617FC5"/>
<path d="M210.968 182.407L218.634 182.374C218.616 184.725 218.539 187.339 218.588 189.67L211.005 189.653C210.973 187.238 210.961 184.822 210.968 182.407Z" fill="#7C99DC"/>
<path d="M146.099 139.183C148.802 139.1 151.505 139.062 154.21 139.068L154.199 146.011C151.494 145.878 148.802 145.912 146.097 145.977L146.099 139.183Z" fill="#7C99DC"/>
<path d="M211.005 189.653L218.588 189.67C218.585 191.498 218.704 195.298 218.517 196.97C216.065 196.929 213.488 196.975 211.025 196.984C211.108 194.597 211.032 192.053 211.005 189.653Z" fill="#7C99DC"/>
<path d="M194.843 182.379L202.921 182.412L202.926 196.976L194.782 196.995L194.843 182.379Z" fill="#7A95D0" fill-opacity="0.988235"/>
<path d="M178.547 160.526L186.832 160.498C186.726 162.924 186.681 165.352 186.697 167.78C186.622 170.063 186.691 172.747 186.692 175.057L178.584 175.065L178.558 167.733C178.55 165.352 178.507 162.901 178.547 160.526Z" fill="#7C99DC"/>
<path d="M178.559 167.733C180.243 167.758 185.229 167.93 186.697 167.78C186.622 170.063 186.691 172.747 186.693 175.057L178.585 175.064L178.559 167.733Z" fill="#7A95D0"/>
<path d="M194.765 160.531L202.913 160.513C202.88 165.371 202.886 170.229 202.93 175.087L194.795 175.101L194.765 160.531Z" fill="#7C99DC"/>
<path d="M211.02 160.535L218.601 160.496C218.514 165.291 218.588 170.259 218.589 175.067L211.066 175.067L211.02 160.535Z" fill="#7A95D0"/>
<path d="M211.048 117.179C213.482 117.235 216.132 117.189 218.584 117.191C218.49 121.955 218.572 127.024 218.57 131.808L211.066 131.803C211.184 127.137 211.058 121.886 211.048 117.179Z" fill="#7A95D0"/>
<path d="M211.064 139.085L218.646 139.071C218.504 143.644 218.591 148.565 218.578 153.165L211.053 153.169C211.121 148.534 211.061 143.73 211.064 139.085Z" fill="#7C99DC"/>
<path d="M97.3214 73.2648L106.064 73.2823C106.04 76.245 105.879 80.3788 106.072 83.2496L106.071 124.467C103.354 124.493 100.637 124.504 97.9204 124.5C97.8703 119.688 97.9534 114.707 97.972 109.883L89.8602 109.876C89.7871 114.706 89.8331 119.672 89.822 124.511L97.9204 124.5L97.9896 131.727L106.067 131.799L106.079 139.093C100.703 139.119 95.3269 139.121 89.9508 139.096L89.7655 139.029C90.0025 138.391 89.8104 132.974 89.8036 131.916C87.1945 131.761 84.3297 131.8 81.6964 131.789L73.6003 131.772L73.5553 145.904L81.7124 145.894C83.3411 145.981 89.0962 145.787 89.8507 145.907L89.8245 167.912C87.1171 167.875 84.4406 167.819 81.7327 167.917C81.7778 170.157 82.0062 172.977 81.6464 175.118L81.5019 175.159C79.1273 175.155 76.7313 175.143 74.3621 175.02C68.4991 174.717 62.6401 174.983 56.7616 175.055C47.5443 174.758 36.1153 174.96 26.8243 175.038C25.6855 175.046 17.7112 175.386 17.2652 175.26C17.5403 167.614 17.2454 158.22 17.2565 150.428L17.2497 96.1894C17.2447 93.3519 16.9138 74.7493 17.5012 73.224C25.1907 73.4564 33.462 73.3098 41.1748 73.294L73.0489 73.322L89.0277 73.3186C91.2741 73.3171 95.1886 73.4134 97.3214 73.2648ZM25.4252 167.77L33.5965 167.795L33.5786 153.266C35.7035 153.206 39.716 153.036 41.7156 153.132C41.3775 156.822 41.602 163.884 41.5871 167.826C44.3145 167.871 47.0903 167.859 49.8223 167.871C49.7663 162.97 49.7726 158.068 49.8407 153.167C47.102 153.191 44.4571 153.217 41.7156 153.132C41.9161 152.482 41.7549 146.994 41.7595 145.92L49.8129 145.914L49.7872 139.135C47.082 139.043 44.4171 139.086 41.7127 139.114L41.6467 139.251C40.7874 138.948 34.6497 139.071 33.5724 139.255L33.5597 145.906L25.4763 145.922L25.459 153.159L25.4252 167.77ZM57.8419 167.833L65.5044 167.847C65.4708 162.969 65.4798 158.091 65.5314 153.213L57.8463 153.197L57.8419 167.833ZM81.7424 153.188L73.5478 153.161L73.547 160.494L81.7383 160.481L81.7424 153.188Z" fill="#9EBBF6" fill-opacity="0.988235"/>
<path d="M25.3984 131.757C28.1048 131.749 30.9039 131.704 33.5989 131.834C36.3528 131.912 38.9016 131.869 41.6487 131.816C41.6598 133.84 41.5665 137.193 41.7123 139.114L41.6463 139.251C40.787 138.948 34.6494 139.071 33.5721 139.255L33.5594 145.906L25.4759 145.922L25.418 139.079L25.3984 131.757Z" fill="#97B8F5"/>
<path d="M33.5985 131.834C36.3524 131.912 38.9012 131.869 41.6484 131.816C41.6595 133.84 41.5661 137.193 41.7119 139.114L41.6459 139.251C40.7867 138.948 34.649 139.071 33.5717 139.255L33.5 139.11C33.6177 136.888 33.569 134.115 33.5985 131.834Z" fill="#9CB8F2"/>
<path d="M25.418 139.079L33.5003 139.11L33.572 139.255L33.5593 145.906L25.4759 145.922L25.418 139.079Z" fill="#7A95D0"/>
<path d="M41.7153 153.132C44.4567 153.217 47.1016 153.191 49.8403 153.167C49.7722 158.068 49.7659 162.97 49.822 167.871C47.09 167.859 44.3141 167.871 41.5867 167.826C41.6016 163.884 41.3771 156.822 41.7153 153.132Z" fill="#7C99DC" fill-opacity="0.960784"/>
<path d="M25.4586 153.159C27.3219 153.167 31.9296 153.078 33.5783 153.266L33.5961 167.795L25.4248 167.77L25.4586 153.159Z" fill="#7A95D0" fill-opacity="0.976471"/>
<path d="M89.8309 88.0254L97.9384 88.0448L97.9439 102.636L89.8047 102.643L89.8309 88.0254Z" fill="#7A95D0"/>
<path d="M25.4127 109.923L33.5976 109.902C33.4385 114.626 33.5475 119.803 33.5416 124.561L25.4033 124.562C25.4374 119.682 25.4405 114.803 25.4127 109.923Z" fill="#7C99DC"/>
<path d="M41.6776 88.0145L49.7978 87.9996C49.7201 92.7956 49.7899 97.7967 49.7897 102.607L41.6543 102.575L41.6776 88.0145Z" fill="#7C99DC"/>
<path d="M25.4238 88.0295L33.5732 88.0219C33.4756 92.7843 33.5543 97.8482 33.5492 102.631L25.4482 102.606L25.4238 88.0295Z" fill="#7A95D0"/>
<path d="M73.6058 87.9889C76.134 88.0728 79.1596 88.0101 81.7273 88.014C81.6616 92.8352 81.7246 97.7607 81.7298 102.59L73.5703 102.611C73.6758 97.8548 73.5968 92.7681 73.6058 87.9889Z" fill="#7C99DC"/>
<path d="M73.6074 109.918L81.7352 109.901C81.6803 114.772 81.6703 119.643 81.7055 124.515L73.618 124.534L73.6074 109.918Z" fill="#7C99DC"/>
<path d="M41.6123 109.937L49.7831 109.888C49.6828 114.662 49.7912 119.71 49.8072 124.505L41.6607 124.499C41.776 119.756 41.6456 114.702 41.6123 109.937Z" fill="#7C99DC"/>
<path d="M33.5723 139.255C34.6496 139.071 40.7873 138.948 41.6465 139.251C41.6563 140.818 41.5697 144.523 41.7593 145.92C41.7547 146.994 41.916 152.482 41.7155 153.132C39.7159 153.036 35.7034 153.206 33.5785 153.266L33.5596 145.906L33.5723 139.255Z" fill="#A4BEF2" fill-opacity="0.988235"/>
<path d="M57.8461 153.198L65.5313 153.213C65.4796 158.091 65.4707 162.969 65.5043 167.847L57.8418 167.834L57.8461 153.198Z" fill="#7A95D0" fill-opacity="0.968627"/>
<path d="M57.8789 87.9874L65.4919 87.9872L65.4846 102.615L57.8978 102.601L57.8789 87.9874Z" fill="#7C99DC"/>
<path d="M57.8921 109.912L65.5242 109.898C65.4601 114.766 65.4455 119.634 65.4807 124.502L57.8721 124.485L57.8921 109.912Z" fill="#7A95D0"/>
<path d="M57.896 131.792L65.4946 131.78L65.4778 139.159L65.4997 145.887L57.876 145.893L57.8811 139.157L57.896 131.792Z" fill="#7C99DC"/>
<path d="M57.8811 139.157C60.5512 139.039 62.8027 139.078 65.4778 139.159L65.4997 145.887L57.876 145.893L57.8811 139.157Z" fill="#7A95D0"/>
<path d="M73.5477 153.162L81.7423 153.189L81.7383 160.482L73.5469 160.494L73.5477 153.162Z" fill="#7C99DC" fill-opacity="0.956863"/>
<path d="M41.6492 131.816L49.8038 131.772L49.7873 139.135C47.0821 139.043 44.4172 139.086 41.7128 139.114C41.5669 137.193 41.6603 133.84 41.6492 131.816Z" fill="#7C99DC"/>
<path d="M25.4763 145.922L33.5597 145.906L33.5786 153.266C31.9299 153.078 27.3222 153.167 25.459 153.159L25.4763 145.922Z" fill="#9CB8F2" fill-opacity="0.988235"/>
<path d="M41.7132 139.114C44.4176 139.086 47.0825 139.043 49.7877 139.135L49.8134 145.914L41.76 145.92C41.5703 144.523 41.6569 140.818 41.6472 139.251L41.7132 139.114Z" fill="#7A95D0" fill-opacity="0.988235"/>
<path d="M97.9348 145.905L138.069 145.878C137.864 149.089 137.985 153.085 137.991 156.349L138.007 175.38C135.704 175.111 132.821 175.137 130.45 175.11C127.753 175.111 124.901 175.157 122.221 175.01C121.574 174.779 115.322 175.077 114.189 175.113C111.958 174.952 109.036 175.114 106.542 174.97L106.139 174.687C106.186 173.738 106.149 173.096 106.079 172.146C105.641 173.439 105.499 174.911 103.777 174.792C101.962 174.667 100.119 174.772 98.3052 174.927C98.3169 173.268 98.5203 169.31 97.9889 167.942C97.7736 166.204 97.8907 162.237 97.8948 160.302L97.9348 145.905ZM106.051 167.836L114.151 167.811L114.151 160.495L106.073 160.578L106.051 167.836Z" fill="#97B8F5"/>
<path d="M122.282 153.172L130.412 153.187L130.404 160.449L130.415 167.749L122.316 167.778L122.292 160.624L122.282 153.172Z" fill="#7C99DC"/>
<path d="M122.292 160.624C124.422 160.368 129.431 160.687 130.405 160.449L130.415 167.749L122.316 167.778L122.292 160.624Z" fill="#7C99DC"/>
<path d="M106.066 153.186L114.206 153.198L114.151 160.495L106.072 160.578L106.066 153.186Z" fill="#7A95D0"/>
<path d="M106.073 160.578L114.151 160.495L114.151 167.811L106.051 167.836L106.073 160.578Z" fill="#7C99DC" fill-opacity="0.988235"/>
<path d="M122.842 73.2044C124.934 73.1861 127.69 73.0937 129.729 73.1988L129.878 73.9472C130.93 72.6086 131.207 66.0305 131.134 64.1929C131.031 61.5916 130.56 58.9999 130.443 56.3913C130.355 54.4433 129.803 38.7013 130.963 37.7265C131.108 37.6044 131.599 37.5195 131.806 37.4938C133.519 37.2817 135.438 37.4259 137.167 37.4473L137.471 84.2248C137.476 85.0117 137.051 89.9472 137.207 90.1969C137.534 89.4978 137.557 89.1822 137.67 88.4527C137.798 99.5607 137.661 110.75 137.182 121.844C137.15 122.591 137.191 123.056 136.983 123.798C136.62 123.421 136.54 120.955 136.273 119.986L136.076 120.013C136.069 121.264 136.194 122.526 135.432 123.56C133.762 124.595 129.555 123.516 127.234 123.889C123.488 124.492 123.559 122.725 123.533 120.081C123.441 120.847 123.273 122.994 122.943 123.565C122.148 121.852 122.633 107.11 122.368 103.86C122.578 95.9343 122.288 87.3828 122.328 79.3836L122.376 79.6168C122.741 81.4746 122.319 86.1239 122.795 87.0924C123.176 85.8961 122.798 75.3836 122.842 73.2044Z" fill="#7C99DC" fill-opacity="0.113725"/>
<path d="M299.335 80.3652C299.93 81.7792 299.467 83.993 299.684 85.5862C299.784 84.2325 299.941 82.678 299.919 81.3372C302.213 81.3272 305.481 80.7652 306.783 81.7795C307.316 82.7879 307.191 86.3758 307.051 87.4924C306.71 87.8761 306.618 88.092 306.629 88.5767C306.926 99.7792 306.683 110.947 306.637 122.147C306.629 123.909 306.288 125.709 306.317 127.48C306.407 129.587 306.642 131.642 306.666 133.764L306.68 156.517C306.602 156.09 306.566 155.431 306.242 155.164C305.609 156.091 305.208 165.777 306.61 166.807L306.547 166.71C307.024 169.462 306.607 173.586 306.68 176.471C306.794 180.865 306.65 185.349 306.653 189.749C306.485 193.142 305.687 192.644 306.039 196.961C304.694 196.627 301.518 196.02 300.179 196.415C298.94 197.522 299.767 201.188 299.367 203.129C299.061 200.212 299.264 193.568 299.264 190.408L299.272 165.099L299.226 80.6741L299.335 80.3652Z" fill="#5879CA" fill-opacity="0.937255"/>
<path d="M17.2977 73.0107L17.5014 73.224C16.914 74.7494 17.2449 93.3519 17.25 96.1894L17.2568 150.428C17.2456 158.22 17.5405 167.614 17.2654 175.26C15.9892 174.959 10.7694 175.081 9.18641 175.096C9.42305 166.656 9.07318 157.855 9.17813 149.369C9.49275 123.929 8.90025 98.2942 9.25304 72.8729C10.7734 73.9202 15.5136 73.5097 17.2977 73.0107Z" fill="#5E7AC8" fill-opacity="0.839216"/>
<path d="M114.727 124.885C115.967 124.85 120.284 124.639 121.333 124.928C121.627 124.649 121.676 124.624 121.891 124.276L121.974 124.518L122.112 134.833C122.102 136.094 122.033 137.72 122.212 138.942L122.475 138.961C124.322 139.209 133.617 139.23 135.784 139.065C136.293 139.089 137.353 139.11 137.802 139.214C137.79 140.15 138.19 139.82 138.236 140.875C138.3 142.337 138.582 144.489 138.068 145.879L97.9346 145.905L97.8945 160.302C97.8905 162.237 97.7733 166.204 97.9887 167.943C97.9765 170.43 98.0025 173.001 97.8972 175.48C95.9799 171.545 101.234 165.838 90.4958 168.179C90.4937 169.773 90.9141 174.437 89.909 175.37C89.7261 173.244 89.8265 170.111 89.8246 167.912L89.8509 145.907C89.8352 143.716 89.7556 141.259 89.951 139.096C95.327 139.121 100.703 139.12 106.079 139.093L114.15 139.064C114.119 134.847 113.907 128.888 114.211 124.808C114.558 125.603 114.35 132.566 114.622 134.417C114.578 134.084 114.624 134.121 114.651 133.894C115.009 130.939 114.673 127.854 114.727 124.885Z" fill="#5879CA" fill-opacity="0.956863"/>
<path d="M146.054 37.1051L146.126 37.4327C146.051 39.8794 146.041 42.3276 146.096 44.7748L146.06 59.3303C146.062 61.4877 146.162 64.5627 146.057 66.654V73.3227L146.071 80.7485L146.09 95.369L146.043 109.939L146.03 111.226C145.742 112.249 145.804 114.757 145.598 115.217L145.555 110.233C144.597 110.235 139.029 110.147 138.49 110.465C138.556 113.503 139.007 129.596 138.17 131.897L137.924 131.348L137.943 124.359C138.14 114.388 137.948 103.83 137.948 93.8193L137.972 36.8642C138.687 37.3678 139.189 37.7315 140.119 37.7016C141.822 37.6472 144.867 38.3212 146.054 37.1051Z" fill="#5E78BC" fill-opacity="0.945098"/>
<path d="M138.17 131.897C139.007 129.596 138.556 113.503 138.49 110.465C139.029 110.147 144.597 110.235 145.555 110.233L145.598 115.217C145.804 114.757 145.742 112.249 146.03 111.226L146.135 117.23L146.083 131.777L146.099 139.183L146.097 145.977C146.084 148.333 146.022 150.874 146.064 153.216L146.102 160.553C146.086 165.215 145.948 170.442 146.066 175.061C146.075 176.904 145.974 180.662 146.182 182.356C144.032 182.316 140.279 182.798 138.541 182.083C138.072 181.89 138.093 180.934 138.014 180.368L138.006 175.38L137.991 156.349C137.985 153.085 137.864 149.089 138.069 145.879C138.582 144.489 138.3 142.337 138.236 140.875C138.19 139.82 137.79 140.15 137.802 139.214C137.876 138.54 137.883 137.554 137.912 136.851C138.045 135.268 137.698 133.498 138.17 131.897Z" fill="#5E78BC" fill-opacity="0.984314"/>
<path d="M106.072 83.2496C106.228 82.8029 106.419 81.7352 106.525 81.2238C107.821 80.2611 112.578 80.8075 114.204 81.1791L114.211 124.808C113.907 128.888 114.119 134.847 114.15 139.064L106.08 139.093L106.067 131.799L106.071 124.467L106.072 83.2496Z" fill="#7C99DC" fill-opacity="0.984314"/>
<path d="M265.678 58.8457C264.15 58.8705 260.659 59.2139 259.692 58.2665C259.228 56.9702 259.319 53.7483 259.905 52.5898C261.337 52.4816 265.098 52.2693 266.21 52.8746C266.474 53.4594 266.628 53.6238 267.048 54.1337C267.223 57.8648 267.31 61.5986 267.311 65.3331C267.289 67.9529 267.286 70.5728 267.304 73.1926C274.625 73.579 283.761 73.403 291.183 73.3935C291.54 73.9323 291.118 79.0468 291.223 80.4392C289.889 80.4681 287.113 80.4747 285.877 80.6918L277.942 80.7652C274.92 80.6089 270.578 80.7261 267.457 80.7261C264.859 80.7317 262.261 80.7173 259.664 80.6828C257.793 79.3272 252.122 81.9638 251.648 79.5489C249.871 70.4818 254.993 75.0217 259.198 73.6632C259.2 69.3482 259.249 65.0274 259.195 60.7132C259.185 59.8818 259.304 59.7413 258.702 59.2202C259.854 58.7212 264.906 60.3378 265.823 58.8999C266.472 57.8825 266.155 54.6553 265.808 53.4655L265.611 53.5586C265.708 55.3548 265.693 57.047 265.678 58.8457Z" fill="#5879CA" fill-opacity="0.964706"/>
<path d="M115.979 73.4034C117.951 73.4866 120.074 73.8326 121.711 73.0421C122.388 73.872 121.928 100.331 122.108 103.913C122.125 110.779 122.086 117.721 122.194 124.582L121.974 124.518L121.891 124.276C121.676 124.624 121.627 124.649 121.333 124.928C120.284 124.639 115.967 124.85 114.728 124.885C114.673 127.854 115.009 130.939 114.651 133.894C114.624 134.121 114.578 134.084 114.622 134.417C114.35 132.566 114.558 125.603 114.211 124.808L114.204 81.1791C114.201 78.5548 114.186 76.0148 114.332 73.3898C115.039 73.515 115.295 73.6193 115.979 73.4034Z" fill="#5E78BC" fill-opacity="0.87451"/>
<path d="M16.4512 66.5355C22.684 66.6184 28.8771 66.4942 35.1021 66.5C48.1269 66.5121 61.1973 66.83 74.2223 66.5503C72.2952 69.0398 74.5537 70.7765 73.0487 73.322L41.1746 73.294C33.4618 73.3098 25.1904 73.4564 17.501 73.224L17.2972 73.0107C16.693 70.84 18.3496 68.6666 16.4512 66.5355Z" fill="#5E78BC" fill-opacity="0.862745"/>
<path d="M26.8245 175.038C36.1154 174.96 47.5445 174.758 56.7618 175.055C59.9724 175.694 69.4302 175.192 73.5877 175.535C73.4811 177.35 73.3277 179.243 73.4432 181.051C72.3837 180.554 59.7903 180.786 57.8624 180.906L57.2939 181.573C56.6154 181.639 55.9358 181.696 55.2556 181.745C56.7371 181.901 58.358 182.107 59.8376 182.149L58.16 182.352C50.2445 182.336 41.3192 182.132 33.5022 182.393L26.138 182.335C25.3528 182.126 24.9908 182.03 24.1445 182.101C24.4503 181.431 24.9764 181.23 25.6727 180.823C26.576 178.926 24.5628 176.6 26.8245 175.038Z" fill="#A0C2CB" fill-opacity="0.85098"/>
<path d="M114.189 175.113C115.322 175.077 121.574 174.779 122.221 175.01L122.277 189.691L130.424 189.711C130.458 191.141 130.687 195.864 130.22 196.944L122.524 196.87C121.165 197.099 116.046 196.978 114.395 196.969C110.873 196.792 109.292 196.799 105.866 197.102L105.651 196.59C106.109 194.979 106.223 191.363 106.021 189.698L114.194 189.673C114.144 184.82 114.143 179.966 114.189 175.113Z" fill="#9DBEE6" fill-opacity="0.972549"/>
<path d="M226.726 15.3632C228.53 16.1058 231.1 16.2426 233.028 15.8387C233.505 15.7389 234.018 15.1199 234.574 15.0334C235.046 22.4714 234.697 31.0251 234.82 38.5612C234.863 41.1896 235.017 49.5855 234.743 51.7324C234.13 51.4856 228.779 52.5451 226.758 51.4992L226.804 28.3833C226.808 24.6654 226.979 19.1103 226.687 15.5323L226.726 15.3632Z" fill="#5E78BC" fill-opacity="0.909804"/>
<path d="M241.189 52.0339C249.512 51.7159 258.26 52.2579 266.783 51.8956C267.184 52.467 267.083 53.3864 267.048 54.1337C266.628 53.6237 266.474 53.4594 266.209 52.8746C265.098 52.2693 261.337 52.4816 259.905 52.5898C259.319 53.7482 259.228 56.9702 259.692 58.2665C260.658 59.2138 264.149 58.8705 265.678 58.8457C265.692 57.047 265.708 55.3548 265.611 53.5586L265.807 53.4654C266.155 54.6552 266.472 57.8825 265.823 58.8999C264.905 60.3378 259.853 58.7212 258.701 59.2202C255.002 59.5078 247.235 59.2997 243.268 59.2931C241.206 57.9397 238.024 59.3072 235.738 58.6468C234.239 57.4375 234.809 53.793 235.697 52.4369C236.696 52.0065 238.561 52.5643 240.956 52.0818L241.189 52.0339Z" fill="#5E78BC" fill-opacity="0.921569"/>
<path d="M154.222 196.96C155.347 196.966 161.436 197.033 162.318 196.815L162.409 196.976C163.522 198.037 168.491 196.937 169.986 197.618C170.02 198.871 170.286 201.762 169.865 202.751C168.516 203.652 165.533 202.886 163.097 203.059C164.008 203.651 176.552 203.416 178.42 203.374L179.065 203.009L179.271 203.264L179.167 203.379L179.182 203.066L179.067 203.671C181.376 203.665 185.093 203.281 186.918 204.132L186.64 204.213C183.514 204.402 178.637 204.206 175.267 204.246C168.911 204.008 160.866 204.222 154.41 204.265C152.287 204.332 148.098 204.476 146.072 204.347L146.123 197.143C147.187 196.898 152.742 196.974 154.222 196.96Z" fill="#9FBFDA" fill-opacity="0.921569"/>
<path d="M178.498 8.20936C185.046 8.2381 195.539 7.95972 201.675 8.31433L203.749 8.65415L202.349 9.19872C202.12 9.90392 202.598 10.2333 202.845 11.0488C203.309 12.5766 203.339 13.7628 203.306 15.3253C195.994 15.4934 188.536 15.2219 181.205 15.2863C180.272 15.2945 179.592 15.1211 178.616 15.2642C178.594 12.9124 178.554 10.5607 178.498 8.20936Z" fill="#5E78BC" fill-opacity="0.905882"/>
<path d="M153.685 8.2923C161.755 8.28722 170.496 8.43185 178.498 8.20928C178.555 10.5607 178.594 12.9123 178.616 15.2642C171.011 15.1867 161.515 15.1651 153.976 15.4204C153.817 14.6962 154.467 10.7002 154.38 9.29965L153.579 8.67762L153.685 8.2923Z" fill="#7A95D0" fill-opacity="0.839216"/>
<path d="M74.2225 66.5504C79.7197 66.5975 85.2173 66.6116 90.7148 66.5924C92.5797 66.5922 97.0367 66.4906 98.6037 66.643C100.47 66.892 102.305 66.9309 104.188 67.0029C102.46 67.1218 99.522 67.24 97.9576 67.6434L97.7201 67.9184C98.229 70.2285 99.0006 71.2483 97.3213 73.2649C95.1886 73.4134 91.274 73.3171 89.0277 73.3186L73.0488 73.322C74.5539 70.7766 72.2954 69.0399 74.2225 66.5504Z" fill="#5C78B0" fill-opacity="0.854902"/>
<path d="M154.41 204.265C160.865 204.222 168.911 204.008 175.267 204.246C176.35 204.412 177.452 204.621 178.547 204.59C178.718 206.628 178.854 208.668 178.956 210.709C181.127 210.723 184.144 210.663 186.246 210.835L186.234 211.044L171.381 210.915C169.281 210.921 155.521 210.802 154.452 211.182C154.512 208.876 154.498 206.57 154.41 204.265Z" fill="#5E78BC" fill-opacity="0.360784"/>
<path d="M201.675 8.31428C209.001 8.25876 216.328 8.23732 223.655 8.24996C224.488 8.28804 225.28 8.30239 226.103 8.43401C226.028 8.20821 226.711 15.4867 226.726 15.3632C219.819 15.1107 210.224 15.2504 203.306 15.3253C203.339 13.7628 203.31 12.5766 202.846 11.0488C202.598 10.2333 202.121 9.90387 202.349 9.19867C202.755 9.24098 203.161 9.2783 203.568 9.31062C205.444 9.45769 209.996 9.78245 211.383 8.73371C210.712 8.35046 204.83 8.53539 203.749 8.6541L201.675 8.31428Z" fill="#617FC5" fill-opacity="0.819608"/>
<path d="M97.9889 167.943C98.5203 169.31 98.3168 173.268 98.3052 174.927C100.119 174.772 101.962 174.667 103.777 174.792C105.499 174.911 105.641 173.44 106.079 172.146C106.149 173.096 106.186 173.738 106.139 174.687L106.542 174.97C106.418 175.086 106.294 175.202 106.17 175.318C106.02 178.797 105.937 185.868 106.002 188.964L106.022 189.698C104.408 189.882 99.8341 189.71 97.8896 189.754C97.9516 184.996 97.9543 180.238 97.8975 175.48C98.0027 173.001 97.9768 170.43 97.9889 167.943Z" fill="#9EBBF6" fill-opacity="0.976471"/>
<path d="M153.975 15.4204C161.515 15.1651 171.011 15.1867 178.616 15.2641L178.559 15.5158L154.225 15.5936L154.174 30.1654C152.624 30.1761 147.045 30.4045 146.123 29.8274C146.156 27.6416 146.149 25.4556 146.103 23.2699L146.254 22.6659C146.498 21.4215 146.414 16.9712 146.419 15.4829C148.542 15.5639 151.935 15.6893 153.975 15.4204Z" fill="#7C99DC" fill-opacity="0.988235"/>
<path d="M122.221 175.01C124.901 175.157 127.753 175.111 130.45 175.11C130.399 179.977 130.39 184.844 130.424 189.711L122.277 189.691L122.221 175.01Z" fill="#7C99DC" fill-opacity="0.984314"/>
<path d="M146.182 182.356C148.862 182.379 151.542 182.385 154.222 182.373L154.223 196.96C152.743 196.974 147.188 196.898 146.124 197.143L146.069 197.026C146.198 194.971 146.103 191.772 146.108 189.636L146.182 182.356Z" fill="#7A95D0" fill-opacity="0.980392"/>
<path d="M106.541 174.97C109.035 175.114 111.957 174.952 114.188 175.113C114.142 179.966 114.144 184.82 114.193 189.673L106.021 189.698L106.001 188.964C105.936 185.868 106.02 178.797 106.169 175.318C106.293 175.202 106.417 175.086 106.541 174.97Z" fill="#7C99DC" fill-opacity="0.968627"/>
<path d="M178.567 182.397L186.689 182.393C186.683 186.824 186.883 193.016 186.625 197.279C185.479 196.802 180.169 196.986 178.579 196.998C178.54 194.604 178.58 192.145 178.587 189.746C178.684 187.631 178.576 184.574 178.567 182.397Z" fill="#7A95D0" fill-opacity="0.984314"/>
<path d="M89.8598 109.876L97.9716 109.883C97.9529 114.707 97.8699 119.688 97.9199 124.5L89.8216 124.511C89.8327 119.672 89.7867 114.706 89.8598 109.876Z" fill="#7C99DC"/>
<path d="M62.208 182.158C65.6905 182.001 70.1843 182.071 73.6874 182.191C74.8935 182.217 80.8907 182.377 81.7508 182.251C83.2967 182.214 84.084 182.23 85.6312 182.351C84.2455 182.892 82.6974 182.746 81.1612 182.74C81.5259 184.217 81.8414 186.216 81.1845 187.65C79.8515 188.683 79.3307 187.792 78.6554 188.539C80.2233 189.059 88.2926 188.026 89.5033 189.022L89.5956 189.333L89.8404 189.706C86.0987 189.575 82.0816 189.638 78.3129 189.646C76.4437 189.39 68.3227 189.446 65.9932 189.422C65.5812 188.615 66.629 186.911 66.4835 185.887C65.8466 181.406 70.3374 183.901 73.5131 182.657C71.352 182.444 67.297 182.323 65.0912 182.381L62.208 182.158Z" fill="#9FBFDA" fill-opacity="0.705882"/>
<path d="M73.6006 131.772L81.6967 131.789L81.7092 139.195L81.7127 145.894L73.5557 145.904L73.6006 131.772Z" fill="#7C99DC"/>
<path d="M130.45 175.11C132.821 175.137 135.703 175.111 138.006 175.38L138.013 180.368C137.977 182.208 137.805 188.122 138.103 189.699L137.998 190.135C136.723 189.1 132.772 190.148 130.423 189.711C130.39 184.844 130.398 179.977 130.45 175.11Z" fill="#9CB8F2"/>
<path d="M90.4956 168.179C101.234 165.838 95.9796 171.545 97.897 175.48C97.9538 180.238 97.9511 184.996 97.8892 189.754L97.6232 189.617C97.3548 187.921 98.5182 183.21 97.1292 182.228C95.8081 181.936 91.4125 182.049 90.3206 182.745L89.941 182.611C89.8488 180.412 89.724 177.512 89.9088 175.37C90.9139 174.437 90.4935 169.772 90.4956 168.179Z" fill="#5E78BC" fill-opacity="0.94902"/>
<path d="M121.975 124.518L122.194 124.582L122.346 125.082C122.081 127.083 122.196 129.632 122.225 131.687L122.811 132.13C125.46 132.154 136.025 131.834 137.924 131.348L138.17 131.897C137.698 133.498 138.045 135.268 137.913 136.851C136.668 137.328 137.194 137.904 135.849 138.652L135.784 139.065C133.617 139.23 124.322 139.209 122.475 138.961L123.028 138.72C123.785 138.787 123.935 138.802 124.681 138.677L124.712 138.275C122.963 135.949 122.432 138.557 122.112 134.833L121.975 124.518Z" fill="#9EBBF6" fill-opacity="0.666667"/>
<path d="M98.6037 66.6431C103.782 66.5813 108.961 66.5674 114.139 66.6012C114.124 68.1796 114.078 71.5944 114.426 72.9904C114.874 73.3284 115.171 73.2698 115.795 73.2946L115.978 73.4035C115.295 73.6194 115.038 73.5151 114.332 73.3899C113.64 73.2425 107.265 73.2843 106.064 73.2824L97.3213 73.2649C99.0006 71.2483 98.229 70.2285 97.7201 67.9184L97.9576 67.6434C99.5219 67.24 102.46 67.1218 104.188 67.0029C102.305 66.931 100.47 66.8921 98.6037 66.6431Z" fill="#617FC5" fill-opacity="0.768627"/>
<path d="M307.051 87.4924L307.319 87.6203C307.108 94.6755 307.264 102.253 307.267 109.363L307.27 149.452L307.292 184.8C307.292 191.182 307.07 197.92 307.346 204.252C306.772 204.408 306.783 204.506 306.361 204.35C306.134 204.165 305.858 203.941 305.53 203.675C305.706 202.214 306.915 198.193 306.039 196.961C305.687 192.644 306.485 193.142 306.653 189.749C306.65 185.349 306.794 180.865 306.68 176.471C306.607 173.586 307.024 169.462 306.548 166.71L306.61 166.807C305.208 165.777 305.609 156.091 306.242 155.164C306.566 155.431 306.602 156.09 306.68 156.517L306.667 133.764C306.642 131.642 306.407 129.587 306.318 127.48C306.288 125.709 306.629 123.909 306.637 122.147C306.683 110.947 306.926 99.7792 306.629 88.5767C306.618 88.092 306.71 87.8761 307.051 87.4924Z" fill="#5879CA" fill-opacity="0.952941"/>
<path d="M137.757 211.031L137.951 211.077C138.056 212.681 138.362 217.01 137.249 218.214L136.44 218.287L136.453 218.102L137.109 217.816L137.172 217.476C136.649 217.085 135.716 216.975 135.01 216.827C127.986 216.32 122.586 221.05 123.978 211.372C125.658 211.235 134.822 211.381 135.484 211.087L137.757 211.031Z" fill="#A2C3DE" fill-opacity="0.411765"/>
<path d="M9.06638 180.91C9.55656 178.574 8.99195 174.813 8.97266 172.291C8.93395 167.232 8.92621 162.175 8.92221 157.117L8.94369 88.0818C8.936 84.9053 8.51046 70.8419 9.15507 68.8823C9.29037 70.2476 9.26182 71.5063 9.25303 72.8728C8.90024 98.2942 9.49274 123.929 9.17812 149.369C9.07317 157.855 9.42304 166.656 9.1864 175.096C10.7694 175.081 15.9892 174.958 17.2654 175.26C17.2939 176.763 17.4783 181.201 17.2531 182.464C14.4362 182.357 12.2051 182.314 9.36406 182.383C10.3821 181.985 11.874 181.924 12.4193 181.349C11.6191 180.672 10.0589 180.522 9.06638 180.91Z" fill="#7C99DC" fill-opacity="0.411765"/>
<path d="M122.847 131.487C123.628 128.876 123.87 127.904 123.92 125.177C124.914 124.788 134.787 125.172 136.164 125.404L136.576 125.155L136.824 125.269C135.968 126.808 136.479 129.522 135.719 130.774C131.655 131.983 126.686 130.324 122.225 131.687C122.196 129.631 122.08 127.083 122.346 125.082C122.869 125.888 122.429 129.673 122.847 131.487Z" fill="#9CB8F2" fill-opacity="0.411765"/>
<path d="M137.671 88.4526C137.878 83.8646 137.7 78.274 137.703 73.5691L137.7 43.9361C137.698 42.1029 137.543 31.3499 137.91 30.1718C138.06 32.3586 137.993 34.6645 137.972 36.8642L137.949 93.8193C137.948 103.83 138.14 114.388 137.943 124.359L137.457 125.227C137.309 125.242 136.972 125.292 136.825 125.269L136.576 125.155L136.165 125.404C134.788 125.172 124.915 124.788 123.921 125.177C123.871 127.904 123.629 128.876 122.848 131.487C122.43 129.673 122.87 125.888 122.346 125.082L122.194 124.582C122.086 117.721 122.125 110.779 122.108 103.913L122.369 103.86C122.634 107.11 122.149 121.852 122.944 123.565C123.274 122.994 123.442 120.846 123.534 120.081C123.56 122.725 123.489 124.492 127.235 123.889C129.556 123.516 133.763 124.595 135.433 123.56C136.195 122.526 136.07 121.264 136.077 120.013L136.274 119.986C136.541 120.955 136.621 123.421 136.984 123.798C137.193 123.056 137.151 122.591 137.183 121.844C137.662 110.75 137.799 99.5606 137.671 88.4526Z" fill="#9CB8F2" fill-opacity="0.360784"/>
<path d="M299.618 73.3896C302.053 73.402 304.919 73.3521 307.318 73.4647C307.381 77.7079 307.608 83.4882 307.318 87.6203L307.05 87.4923C307.191 86.3757 307.316 82.7878 306.783 81.7794C305.481 80.7652 302.213 81.3272 299.919 81.3371C299.94 82.6779 299.784 84.2325 299.683 85.5862C299.467 83.993 299.93 81.7792 299.334 80.3652C299.224 78.3547 298.91 75.2692 299.618 73.3896Z" fill="#5E78BC" fill-opacity="0.729412"/>
<path d="M170.461 196.997C173.116 196.993 175.94 196.941 178.579 196.998C180.169 196.986 185.478 196.802 186.625 197.279L186.426 197.603C185.347 197.246 181.22 197.478 179.726 197.503C178.306 198.373 178.979 201.443 179.065 203.009L178.419 203.374C176.552 203.416 164.008 203.651 163.097 203.059C165.533 202.886 168.516 203.652 169.865 202.751C170.286 201.762 170.02 198.871 169.986 197.617C168.491 196.937 163.521 198.037 162.409 196.976C164.865 196.978 168.06 196.906 170.461 196.997Z" fill="#A0C2CB" fill-opacity="0.933333"/>
<path d="M242.996 73.4336C245.397 73.43 257.564 73.2907 259.199 73.6632C254.993 75.0217 249.871 70.4819 251.649 79.549C252.122 81.9638 257.793 79.3272 259.665 80.6828C257.484 80.8069 253.477 80.7106 251.187 80.7147L243.161 80.7295C242.824 78.6843 243.24 75.8013 242.996 73.4336Z" fill="#5E78BC"/>
<path d="M137.952 211.077C139.816 211.025 144.828 211.129 146.337 210.996C148.55 210.987 152.4 210.871 154.453 211.182C152.365 211.512 148.861 211.107 146.202 211.432C145.948 213.844 145.904 216.037 145.848 218.45C142.927 218.486 125.56 218.731 123.768 218.389C127.505 217.991 132.561 218.223 136.44 218.287L137.25 218.215C138.362 217.01 138.057 212.681 137.952 211.077Z" fill="#5E78BC" fill-opacity="0.333333"/>
<path d="M56.7617 175.055C62.6402 174.982 68.4992 174.717 74.3622 175.02C76.7314 175.143 79.1274 175.155 81.502 175.159C81.7874 176.48 81.7003 180.633 81.7509 182.251C80.8908 182.377 74.8936 182.217 73.6875 182.191L73.4432 181.051C73.3276 179.243 73.481 177.35 73.5876 175.535C69.4301 175.192 59.9723 175.694 56.7617 175.055Z" fill="#A4BEF2" fill-opacity="0.882353"/>
<path d="M223.655 8.24999C226.671 7.9133 231.542 8.15063 234.734 8.06611C234.363 10.7571 234.751 12.6895 234.575 15.0334C234.019 15.12 233.505 15.7389 233.029 15.8387C231.1 16.2426 228.531 16.1058 226.726 15.3632C226.712 15.4867 226.029 8.20824 226.104 8.43404C225.281 8.30241 224.489 8.28807 223.655 8.24999Z" fill="#617FC5" fill-opacity="0.670588"/>
<path d="M106.064 73.2824C107.265 73.2844 113.64 73.2425 114.332 73.3899C114.186 76.0148 114.201 78.5549 114.204 81.1792C112.578 80.8076 107.821 80.2612 106.525 81.2239C106.419 81.7353 106.227 82.803 106.072 83.2497C105.879 80.3789 106.041 76.2451 106.064 73.2824Z" fill="#7C99DC"/>
<path d="M114.139 66.6011C116.24 66.6021 119.963 66.6989 121.931 66.5024C122.116 70.7947 122.248 75.0888 122.329 79.3835C122.288 87.3827 122.578 95.9342 122.369 103.86L122.108 103.913C121.928 100.331 122.388 73.872 121.711 73.0421C120.074 73.8326 117.951 73.4866 115.978 73.4034L115.795 73.2945C115.171 73.2697 114.875 73.3283 114.426 72.9903C114.078 71.5943 114.125 68.1795 114.139 66.6011Z" fill="#617FC5" fill-opacity="0.568627"/>
<path d="M17.2652 175.26C17.7112 175.386 25.6856 175.046 26.8243 175.038C24.5627 176.6 26.5759 178.926 25.6726 180.823C24.9763 181.23 24.4502 181.431 24.1444 182.101C24.9907 182.03 25.3527 182.126 26.1379 182.335C23.176 182.364 20.2143 182.407 17.2529 182.464C17.4781 181.201 17.2937 176.763 17.2652 175.26Z" fill="#9FBFDA" fill-opacity="0.796078"/>
<path d="M146.255 22.666L146.226 22.4434C146.049 20.9814 146.037 8.77169 146.5 8.26262C148.8 8.07038 151.358 8.21511 153.685 8.29239L153.579 8.6777L154.38 9.29974C154.467 10.7002 153.817 14.6963 153.976 15.4204C151.935 15.6894 148.543 15.564 146.42 15.483C146.414 16.9713 146.498 21.4216 146.255 22.666Z" fill="#7A95D0" fill-opacity="0.694118"/>
<path d="M122.524 196.87L130.22 196.944L130.341 197.021C130.294 199.139 130.47 202.375 130.259 204.341L130.2 204.448C128.072 204.343 124.298 204.137 122.289 204.547L122.006 204.293C122.496 202.107 121.925 199.146 122.524 196.87Z" fill="#A4BEF2" fill-opacity="0.952941"/>
<path d="M202.473 210.876C203.794 211.184 209.19 211.088 210.802 211.047L211.046 211.113C211.055 212.223 211.204 216.128 211.066 216.943L210.644 215.77L210.41 215.71C210.204 216.674 210.312 217.382 210.431 218.359C208.444 218.518 204.905 218.504 202.973 218.396L202.821 218.096C202.923 217.295 202.762 211.946 202.588 211.185L201.851 211.005L202.473 210.876Z" fill="#9FBFDA" fill-opacity="0.466667"/>
<path d="M298.503 73.226L299.618 73.3896C298.909 75.2693 299.223 78.3548 299.334 80.3653L299.226 80.6741C296.994 80.8222 292.811 80.7376 290.452 80.747L285.877 80.6918C287.113 80.4747 289.889 80.4681 291.223 80.4392C291.117 79.0468 291.54 73.9324 291.182 73.3935C293.642 73.3984 296.05 73.4385 298.503 73.226Z" fill="#5879CA"/>
<path d="M138.013 180.368C138.092 180.934 138.072 181.89 138.541 182.083C140.279 182.798 144.031 182.316 146.182 182.356L146.107 189.636L138.103 189.699C137.805 188.122 137.976 182.208 138.013 180.368Z" fill="#617FC5" fill-opacity="0.988235"/>
<path d="M137.91 30.1718C139.546 30.2 144.851 30.1514 146.048 30.3017C146.099 32.5692 146.101 34.8374 146.054 37.1052C144.867 38.3212 141.822 37.6472 140.119 37.7016C139.189 37.7315 138.687 37.3678 137.972 36.8642C137.993 34.6645 138.06 32.3586 137.91 30.1718Z" fill="#617FC5" fill-opacity="0.768627"/>
<path d="M105.865 197.102C109.291 196.799 110.872 196.792 114.395 196.969C113.897 199.483 114.477 201.752 113.84 204.255C111.597 204.375 108.459 204.29 106.187 204.251C106.138 203.827 106.178 202.6 106.179 202.113C105.904 200.835 106.129 198.786 105.865 197.102Z" fill="#A0C2CB" fill-opacity="0.752941"/>
<path d="M137.64 23.2141C139.54 22.9349 144.595 22.1105 145.638 23.7083L146.103 23.27C146.149 25.4557 146.156 27.6417 146.123 29.8275L146.047 30.3017C144.85 30.1514 139.545 30.2001 137.909 30.1718C138.185 28.8909 137.829 24.5569 137.64 23.2141Z" fill="#7C99DC" fill-opacity="0.27451"/>
<path d="M106.021 189.698C106.223 191.363 106.109 194.979 105.651 196.59L105.866 197.102C104.672 196.849 100.269 196.982 98.8062 197.001L97.5752 196.975C97.8317 194.416 97.8628 192.31 97.8896 189.754C99.834 189.71 104.408 189.882 106.021 189.698Z" fill="#9FBFDA" fill-opacity="0.843137"/>
<path d="M162.334 182.374C165.055 182.354 167.776 182.375 170.496 182.437L170.442 189.715C167.514 189.677 165.255 189.687 162.312 189.845C162.385 187.472 162.329 184.767 162.334 182.374Z" fill="#7A95D0" fill-opacity="0.988235"/>
<path d="M226.669 225.769C228.904 225.646 232.55 225.637 234.782 225.724C234.788 226.735 234.7 232.4 235.043 232.938L234.864 232.97C232.168 233.007 229.472 233.009 226.776 232.977C226.662 230.663 226.696 228.103 226.669 225.769Z" fill="#5E78BC" fill-opacity="0.756863"/>
<path d="M138.103 189.699L146.108 189.636C146.103 191.772 146.197 194.971 146.069 197.026C143.921 196.946 140.021 196.905 137.969 197.075L137.998 190.135L138.103 189.699Z" fill="#5E78BC" fill-opacity="0.972549"/>
<path d="M137.969 197.075C140.021 196.905 143.921 196.946 146.069 197.026L146.124 197.143L146.072 204.347C143.7 204.142 140.366 204.253 137.997 204.406L137.969 197.075Z" fill="#617FC5" fill-opacity="0.941176"/>
<path d="M162.311 189.845C165.255 189.687 167.514 189.677 170.442 189.715L170.462 196.997C168.06 196.906 164.866 196.978 162.41 196.975L162.318 196.815C162.243 194.586 162.308 192.094 162.311 189.845Z" fill="#97B8F5" fill-opacity="0.964706"/>
<path d="M251.014 225.693C253.605 225.687 256.648 225.619 259.208 225.684L259.211 232.971L258.687 233.114C256.416 232.841 253.299 232.905 250.997 233.041C251.296 231.612 251.089 227.337 251.014 225.693Z" fill="#7C99DC" fill-opacity="0.976471"/>
<path d="M170.496 182.437L178.566 182.397C178.576 184.574 178.684 187.631 178.587 189.746C177.755 189.635 171.63 189.712 170.441 189.715L170.496 182.437Z" fill="#97B8F5" fill-opacity="0.988235"/>
<path d="M275.42 218.379C278.001 218.399 281.034 218.329 283.572 218.438C283.575 220.62 283.483 223.433 283.618 225.566C280.739 225.628 277.858 225.644 274.977 225.614C275.401 225.47 275.631 225.465 276.08 225.495C276.513 224.89 275.339 224.769 275.312 224.222C275.215 222.333 275.412 220.319 275.42 218.379Z" fill="#A0C2CB" fill-opacity="0.831373"/>
<path d="M114.394 196.969C116.045 196.978 121.164 197.099 122.524 196.87C121.925 199.146 122.496 202.107 122.005 204.293C120.936 204.32 114.565 204.387 113.84 204.255C114.476 201.752 113.897 199.483 114.394 196.969Z" fill="#9EBBF6" fill-opacity="0.898039"/>
<path d="M170.441 189.715C171.63 189.712 177.755 189.635 178.587 189.746C178.58 192.145 178.54 194.604 178.579 196.998C175.94 196.942 173.116 196.993 170.462 196.997L170.441 189.715Z" fill="#A4BEF2" fill-opacity="0.980392"/>
<path d="M89.9412 182.611L90.3208 182.745C91.4127 182.049 95.8083 181.936 97.1294 182.228C98.5184 183.21 97.355 187.921 97.6234 189.617C95.6865 189.705 92.0753 189.559 90.3838 190.205L89.8405 189.706L89.5957 189.333C90.0656 188.757 89.8454 183.974 89.9412 182.611Z" fill="#617FC5" fill-opacity="0.858824"/>
<path d="M97.9199 124.501C100.637 124.504 103.354 124.493 106.07 124.467L106.067 131.799L97.9892 131.727L97.9199 124.501Z" fill="#A4BEF2"/>
<path d="M81.6963 131.789C84.3295 131.8 87.1944 131.761 89.8035 131.916C89.8103 132.974 90.0024 138.391 89.7654 139.029C87.0699 139.054 84.4026 139.066 81.7087 139.195L81.6963 131.789Z" fill="#A4BEF2"/>
<path d="M259.208 225.685C260.33 225.693 266.745 225.897 267.324 225.731L267.308 233.17C264.609 233 262.1 232.995 259.403 232.982L259.211 232.971L259.208 225.685Z" fill="#A0C2CB" fill-opacity="0.898039"/>
<path d="M267.676 218.361L275.42 218.379C275.412 220.319 275.215 222.333 275.312 224.222C275.339 224.769 276.513 224.89 276.08 225.495C275.631 225.465 275.401 225.47 274.976 225.614C272.964 225.743 269.77 225.679 267.663 225.699C266.939 224.779 267.36 219.571 267.676 218.361Z" fill="#A0C2CB" fill-opacity="0.984314"/>
<path d="M81.7328 167.917C84.4407 167.819 87.1172 167.875 89.8246 167.912C89.8265 170.111 89.7261 173.244 89.909 175.37C86.9511 175.166 84.5957 175.128 81.6465 175.118C82.0063 172.977 81.778 170.157 81.7328 167.917Z" fill="#A4BEF2" fill-opacity="0.972549"/>
<path d="M218.604 218.659L219.074 218.788C220.641 218.207 224.947 218.474 226.714 218.579C226.712 220.322 226.837 224.197 226.668 225.769C224.217 225.586 221.344 225.634 218.89 225.78L218.638 225.425L218.671 223.54C218.58 221.8 218.499 220.398 218.604 218.659Z" fill="#A4BEF2" fill-opacity="0.917647"/>
<path d="M234.782 225.724C237.442 225.69 240.295 225.696 242.938 225.614C242.915 226.864 242.731 232.012 242.891 232.951L242.733 232.965C240.256 232.859 237.54 232.923 235.043 232.938C234.7 232.4 234.788 226.735 234.782 225.724Z" fill="#7C99DC" fill-opacity="0.937255"/>
<path d="M81.6464 175.118C84.5957 175.128 86.9511 175.166 89.909 175.37C89.7242 177.512 89.8489 180.412 89.9412 182.611C88.6298 182.393 86.9475 182.249 85.6313 182.351C84.0841 182.23 83.2968 182.215 81.7509 182.251C81.7003 180.633 81.7874 176.48 81.502 175.159L81.6464 175.118Z" fill="#97B8F5" fill-opacity="0.894118"/>
<path d="M267.311 65.3331L267.745 67.3577C268.287 67.3643 268.077 67.4642 268.381 67.2383C269.864 66.1387 273.015 66.8517 275.263 66.6849C275.317 68.2769 275.328 70.5877 275.577 72.1014L275.177 72.8442C276.086 73.5098 295.522 72.9999 298.503 73.226C296.049 73.4385 293.641 73.3984 291.182 73.3935C283.761 73.403 274.625 73.5791 267.304 73.1927C267.286 70.5728 267.288 67.953 267.311 65.3331Z" fill="#7C99DC" fill-opacity="0.305882"/>
<path d="M242.732 232.965L242.891 232.951C245.574 233.013 248.341 232.933 250.997 233.041C250.818 235.346 251.399 236.946 251.01 239.934C249.286 239.925 246.851 239.833 245.231 240.148C244.823 240.183 243.485 240.127 243.005 240.116C242.93 237.732 242.839 235.348 242.732 232.965Z" fill="#9FBFDA" fill-opacity="0.713725"/>
<path d="M89.8405 189.706L90.3837 190.205C92.0752 189.56 95.6865 189.705 97.6233 189.617L97.8893 189.754C97.8625 192.31 97.8314 194.416 97.5749 196.975L97.3419 196.966C94.7468 196.955 92.5692 196.951 89.9679 197.126C89.7725 194.899 89.8475 191.99 89.8405 189.706Z" fill="#7A95D0" fill-opacity="0.701961"/>
<path d="M43.0101 182.624C44.9959 182.579 48.4576 182.379 50.2691 182.758C49.3817 183.892 49.0268 188.581 50.7943 189.472L52.6226 189.42C53.6867 189.45 57.153 189.495 57.9971 189.662C54.412 190.105 46.133 189.32 41.617 189.458C41.6005 187.847 41.8424 185.727 41.8297 184.06C41.8237 183.288 42.3827 183.061 43.0101 182.624Z" fill="#5E78BC" fill-opacity="0.207843"/>
<path d="M226.669 225.769C226.696 228.103 226.662 230.663 226.777 232.976C223.968 232.963 221.905 232.96 219.086 232.754C218.89 230.403 218.902 228.133 218.892 225.78C221.345 225.634 224.218 225.586 226.669 225.769Z" fill="#617FC5" fill-opacity="0.176471"/>
<path d="M146.073 204.347C148.099 204.476 152.288 204.332 154.411 204.265C154.498 206.57 154.512 208.876 154.453 211.182C152.4 210.871 148.55 210.987 146.337 210.996C145.899 210.307 146.074 205.53 146.073 204.347Z" fill="#A4BEF2" fill-opacity="0.764706"/>
<path d="M130.341 197.021C132.766 197.109 135.545 197.148 137.969 197.075L137.997 204.406C136.867 204.485 131.772 204.338 130.259 204.341C130.47 202.375 130.293 199.14 130.341 197.021Z" fill="#9CAEFF" fill-opacity="0.956863"/>
<path d="M89.7656 139.029L89.951 139.096C89.7556 141.259 89.8352 143.716 89.8509 145.907C89.0963 145.787 83.3412 145.981 81.7125 145.894L81.709 139.195C84.4028 139.066 87.0702 139.054 89.7656 139.029Z" fill="#9CB8F2"/>
<path d="M33.502 182.393C41.3189 182.132 50.2443 182.336 58.1597 182.352C57.6137 184.058 57.8924 187.19 58.134 188.985C55.6279 188.339 53.388 188.216 50.7951 188.69L50.7204 188.983C51.4036 189.321 51.8543 189.324 52.6221 189.42L50.7938 189.472C49.0263 188.581 49.3812 183.892 50.2686 182.758C48.457 182.379 44.9954 182.579 43.0095 182.624C41.5697 182.563 40.1772 182.591 38.7379 182.608C36.9209 182.593 35.3068 182.613 33.502 182.393Z" fill="#5879CA" fill-opacity="0.364706"/>
<path d="M202.855 204.183C205.04 204.461 208.664 204.248 211.023 204.317C211.041 205.582 211.279 210.194 210.803 211.047C209.191 211.088 203.795 211.184 202.474 210.876C203.17 209.519 202.902 205.859 202.855 204.183Z" fill="#9EBBF6" fill-opacity="0.941176"/>
<path d="M130.423 189.711C132.771 190.148 136.722 189.1 137.997 190.135L137.968 197.075C135.544 197.148 132.766 197.109 130.34 197.021L130.219 196.944C130.686 195.864 130.457 191.141 130.423 189.711Z" fill="#9EBBF6" fill-opacity="0.984314"/>
<path d="M137.998 204.406C140.366 204.253 143.7 204.142 146.073 204.347C146.074 205.53 145.899 210.307 146.337 210.996C144.828 211.129 139.816 211.025 137.952 211.077L137.758 211.031L138.21 210.203C137.879 208.826 137.991 205.932 137.998 204.406Z" fill="#617FC5" fill-opacity="0.827451"/>
<path d="M194.636 204.257C196.549 204.262 201.153 204.379 202.854 204.183C202.901 205.859 203.169 209.519 202.473 210.876L201.85 211.005C199.826 211.124 197.58 210.988 195.337 211.123L195.105 211.117L194.752 210.875L195.069 210.297C194.855 208.369 194.763 206.209 194.636 204.257Z" fill="#83A4B2" fill-opacity="0.843137"/>
<path d="M9.15456 68.8823C9.1323 67.9607 9.13395 67.6621 9.30106 66.7502C10.1185 66.4806 15.3344 66.5236 16.4511 66.5355C18.3496 68.6666 16.6929 70.84 17.2971 73.0107C15.5131 73.5097 10.7728 73.9202 9.25253 72.8729C9.26132 71.5063 9.28986 70.2477 9.15456 68.8823Z" fill="#5E78BC" fill-opacity="0.701961"/>
<path d="M291.099 211.195C293.144 211.075 294.611 211.073 296.664 211.122C295.114 211.265 291.848 211.196 291.031 212.082C290.688 213.206 291.418 216.991 291.418 218.385L283.813 218.345C284.005 217.966 283.767 212.152 283.751 211.212C286.199 211.16 288.648 211.154 291.099 211.195Z" fill="#83A4B2" fill-opacity="0.913725"/>
<path d="M235.043 232.938C237.54 232.923 240.255 232.859 242.732 232.965C242.839 235.348 242.93 237.732 243.005 240.117C240.641 239.952 238.224 239.747 235.881 240.153C236.073 239.458 236.279 239.012 235.999 238.333C235.354 238.748 235.295 239.281 234.951 240.05C235.009 238.785 235.429 233.804 234.863 232.97L235.043 232.938Z" fill="#617FC5" fill-opacity="0.266667"/>
<path d="M306.36 204.349C306.782 204.506 306.771 204.408 307.345 204.252C307.353 205.917 307.588 209.718 306.62 210.948C305.989 211.25 300.435 210.585 299.253 211.098C299.374 209.401 299.255 206.417 299.25 204.621L299.594 204.307L306.36 204.349ZM305.835 210.853L306.122 210.222C305.765 209.702 305.427 209.667 304.775 209.451L304.217 210.188C304.588 210.739 304.934 210.644 305.835 210.853Z" fill="#7A95D0" fill-opacity="0.478431"/>
<path d="M304.775 209.451C305.427 209.666 305.765 209.702 306.122 210.222L305.836 210.853C304.935 210.644 304.588 210.739 304.218 210.188L304.775 209.451Z" fill="#7A95D0" fill-opacity="0.560784"/>
<path d="M85.6311 182.351C86.9473 182.249 88.6296 182.393 89.9409 182.611C89.8451 183.974 90.0654 188.757 89.5954 189.333L89.5032 189.022C88.2925 188.026 80.2231 189.059 78.6553 188.539C79.3306 187.792 79.8514 188.683 81.1844 187.65C81.8412 186.217 81.5258 184.217 81.1611 182.74C82.6973 182.746 84.2453 182.892 85.6311 182.351Z" fill="#97B8F5" fill-opacity="0.72549"/>
<path d="M113.84 204.255C114.565 204.387 120.936 204.32 122.005 204.293L122.288 204.547C122.31 205.715 122.104 210.093 122.213 210.816C120.683 211.18 116.815 211.061 115.091 211.001L116.497 210.661L116.59 210.293L116.195 209.931C114.61 209.681 114.699 209.899 114.153 211.026L114.048 208.95C114.048 207.826 114.134 205.206 113.84 204.255Z" fill="#A0C2CB" fill-opacity="0.74902"/>
<path d="M211.023 204.317C213.524 204.259 216.026 204.221 218.527 204.204C218.579 208.948 218.589 213.693 218.557 218.438L218.324 218.342C218.448 216.11 218.35 213.56 218.32 211.302C215.833 211.061 212.752 211.316 211.046 211.113L210.803 211.047C211.279 210.194 211.041 205.582 211.023 204.317Z" fill="#7C99DC" fill-opacity="0.980392"/>
<path d="M122.289 204.547C124.298 204.136 128.072 204.343 130.2 204.448C130.303 205.745 130.322 208.889 130.17 210.186L130.192 211C128.029 210.964 124.628 210.858 122.601 211.174L122.214 210.816C122.104 210.093 122.311 205.715 122.289 204.547Z" fill="#9EBBF6" fill-opacity="0.886275"/>
<path d="M211.046 211.113C212.752 211.316 215.832 211.061 218.32 211.303C218.35 213.56 218.447 216.11 218.324 218.342C217.744 218.412 216.316 218.357 215.66 218.346C214.103 218.335 212.731 218.368 211.178 218.429C211.066 218.07 211.079 217.353 211.066 216.943C211.204 216.128 211.056 212.223 211.046 211.113Z" fill="#97B8F5" fill-opacity="0.854902"/>
<path d="M299.367 203.129C299.768 201.188 298.94 197.522 300.179 196.415C301.518 196.02 304.694 196.627 306.039 196.961C306.915 198.193 305.706 202.214 305.53 203.675C305.858 203.941 306.134 204.165 306.361 204.349L299.594 204.307L299.251 204.621L299.178 204.46L299.367 203.129Z" fill="#617FC5" fill-opacity="0.823529"/>
<path d="M38.7381 182.608C40.1774 182.591 41.5699 182.563 43.0098 182.623C42.3824 183.06 41.8234 183.288 41.8294 184.06C41.8421 185.727 41.6002 187.847 41.6167 189.458C39.0744 189.236 36.3619 189.133 33.7998 188.999C34.0114 187.112 33.9416 184.904 33.9313 182.981C35.6071 182.991 37.1205 183.012 38.7381 182.608Z" fill="#7C99DC" fill-opacity="0.0313725"/>
<path d="M175.268 204.246C178.638 204.206 183.514 204.402 186.64 204.213C186.606 205.739 186.491 208.053 186.789 209.518L185.93 208.973L185.408 209.124C185.268 209.739 185.234 209.481 185.661 210.109C186.118 210.21 186.117 210.234 186.596 210.134L186.634 210.432L187.098 211.142L186.246 210.835C184.145 210.663 181.127 210.723 178.956 210.709C178.855 208.668 178.719 206.628 178.548 204.59C177.453 204.621 176.351 204.412 175.268 204.246Z" fill="#5879CA" fill-opacity="0.505882"/>
<path d="M250.998 233.041C253.3 232.905 256.416 232.841 258.687 233.114L258.437 233.136C256.945 233.258 253.03 232.976 252.332 233.661C253.298 234.684 256.876 234.227 258.337 234.058C259.673 235.611 257.899 238.25 259.381 239.929C256.064 240.145 248.562 240.308 245.232 240.148C246.852 239.833 249.287 239.925 251.011 239.934C251.4 236.946 250.819 235.346 250.998 233.041Z" fill="#97B8F5" fill-opacity="0.556863"/>
<path d="M195.338 211.123C197.58 210.988 199.827 211.124 201.851 211.005L202.588 211.185C202.762 211.946 202.923 217.295 202.821 218.096C202.669 217.784 202.656 217.342 202.348 216.725L201.823 216.624L201.544 216.898C201.62 217.324 201.725 217.557 201.493 217.926C200.205 218.279 197.268 218.017 195.928 217.786C194.514 216.827 195.829 212.839 195.338 211.123Z" fill="#5E78BC" fill-opacity="0.196078"/>
<path d="M98.805 197.001C100.268 196.982 104.671 196.849 105.865 197.103C106.129 198.786 105.904 200.835 106.178 202.113L105.295 201.977L105 202.287L105.186 203.636C103.644 203.659 100.936 203.585 99.5691 204.089C98.8719 204.025 98.7201 204.036 98.1701 203.659C97.5732 202.821 97.738 201.569 97.7518 200.537C97.9745 200.959 98.1703 201.577 98.334 202.035L98.5524 202.095C98.5951 201.197 98.6189 200.215 98.7591 199.333L98.7823 199.196C98.9971 198.555 98.857 197.697 98.805 197.001Z" fill="#7A95D0" fill-opacity="0.247059"/>
<path d="M186.918 204.132C189.513 204.267 192.173 204.078 194.636 204.257C194.763 206.209 194.855 208.369 195.069 210.297C193.146 209.674 189.961 210.187 187.458 209.978L186.634 210.432L186.596 210.134L186.788 209.518C186.49 208.053 186.605 205.739 186.64 204.213L186.918 204.132Z" fill="#A4BEF2" fill-opacity="0.701961"/>
<path d="M106.187 204.251C108.459 204.29 111.596 204.375 113.84 204.255C114.134 205.206 114.048 207.826 114.048 208.95L113.865 208.969C113.218 209.581 113.955 209.636 113.443 210.504C111.968 210.519 107.197 210.933 106.497 210.632C106.331 210.386 106.347 205.457 106.187 204.251Z" fill="#7C99DC" fill-opacity="0.027451"/>
<path d="M59.8378 182.149L62.2083 182.158L65.0916 182.381C63.221 182.826 60.1059 182.267 58.8157 182.981C60.4555 183.498 63.2256 182.287 64.5253 183.59C64.5851 184.658 64.9111 187.513 64.6606 188.35C64.2518 188.616 63.972 188.807 63.5911 189.105C64.1325 189.216 64.6728 189.332 65.2122 189.451C63.7992 189.424 59.1227 189.605 58.1125 189.348L58.1344 188.985C57.8928 187.19 57.6142 184.058 58.1601 182.352L59.8378 182.149Z" fill="#9EBBF6" fill-opacity="0.486275"/>
<path d="M296.664 211.122L297.8 211.179C297.365 213.168 298.398 215.822 296.862 216.553C296.607 216.674 295.528 217.173 295.487 217.211C296.145 217.359 296.632 217.421 297.289 217.506L297.433 217.837L296.883 218.02C297.4 217.966 298.585 218.135 299.256 218.149C297.194 218.492 293.621 218.394 291.418 218.385C291.418 216.991 290.688 213.206 291.031 212.082C291.848 211.196 295.114 211.265 296.664 211.122Z" fill="#A0C2CB" fill-opacity="0.74902"/>
<path d="M130.259 204.341C131.772 204.338 136.867 204.485 137.998 204.406C137.991 205.932 137.879 208.826 138.21 210.203C136.841 209.499 132.063 210.08 130.17 210.186C130.322 208.889 130.303 205.745 130.2 204.448L130.259 204.341Z" fill="#9CB8F2" fill-opacity="0.870588"/>
<path d="M215.66 218.346C216.315 218.357 217.743 218.412 218.323 218.342L218.556 218.438L218.605 218.659C218.499 220.398 218.581 221.8 218.671 223.54C218.374 223.044 218.285 222.662 217.811 222.485C217.472 223.156 217.498 224.443 217.745 225.095C216.6 225.509 216.455 225.253 215.704 225.441C214.506 225.596 212.714 225.478 211.46 225.434C211.992 223.835 211.807 221.493 211.987 219.939C212.096 219.001 214.302 219.726 215.49 219.177L215.66 218.346Z" fill="#617FC5" fill-opacity="0.329412"/>
<path d="M122.6 211.174C124.627 210.858 128.028 210.964 130.192 211.001C131.493 211.006 134.307 210.958 135.484 211.087C134.822 211.381 125.658 211.235 123.978 211.372C122.586 221.05 127.986 216.32 135.011 216.827L134.749 217.626C135.238 218.07 135.731 218.029 136.453 218.102L136.44 218.287C132.561 218.223 127.504 217.991 123.767 218.389L122.987 218.337C122.102 217.324 122.253 212.455 122.6 211.174Z" fill="#9FBFDA" fill-opacity="0.443137"/>
<path d="M59.8369 182.149C58.3573 182.107 56.7364 181.901 55.2549 181.745C55.935 181.696 56.6147 181.639 57.2932 181.573L57.8616 180.906C59.7895 180.786 72.383 180.554 73.4425 181.051L73.6868 182.191C70.1837 182.071 65.6899 182.001 62.2074 182.158L59.8369 182.149Z" fill="#9EBBF6" fill-opacity="0.909804"/>
<path d="M136.824 125.269C136.971 125.292 137.308 125.242 137.456 125.227L137.942 124.359L137.923 131.348C136.024 131.834 125.459 132.154 122.81 132.13L122.225 131.687C126.686 130.324 131.654 131.983 135.719 130.774C136.479 129.522 135.968 126.808 136.824 125.269Z" fill="#9CB8F2" fill-opacity="0.431373"/>
<path d="M65.0913 182.381C67.2971 182.323 71.3521 182.444 73.5132 182.657C70.3375 183.901 65.8467 181.406 66.4836 185.888C66.6291 186.911 65.5813 188.615 65.9933 189.422L65.212 189.451C64.6725 189.332 64.1322 189.216 63.5909 189.105C63.9718 188.807 64.2515 188.616 64.6603 188.35C64.9109 187.513 64.5849 184.658 64.5251 183.59C63.2254 182.287 60.4552 183.498 58.8154 182.981C60.1057 182.267 63.2208 182.826 65.0913 182.381Z" fill="#9EBBF6" fill-opacity="0.529412"/>
<path d="M297.8 211.179C298.463 211.257 298.68 211.343 299.253 211.098C299.14 213.735 299.202 215.565 299.256 218.149C298.585 218.135 297.4 217.966 296.883 218.02L297.433 217.837L297.289 217.506C296.632 217.421 296.145 217.359 295.487 217.211C295.528 217.173 296.607 216.674 296.862 216.553C298.398 215.822 297.365 213.168 297.8 211.179Z" fill="#A0C2CB" fill-opacity="0.807843"/>
<path d="M52.6224 189.42C51.8546 189.324 51.4038 189.321 50.7207 188.983L50.7954 188.69C53.3883 188.216 55.6282 188.339 58.1343 188.985L58.1123 189.347C59.1226 189.605 63.799 189.424 65.2121 189.451L65.9934 189.422C68.3228 189.446 76.4439 189.39 78.3131 189.646C74.7546 189.873 70.323 189.715 66.6714 189.736C64.332 189.75 60.1791 189.848 57.9968 189.662C57.1527 189.495 53.6864 189.45 52.6224 189.42Z" fill="#5879CA" fill-opacity="0.411765"/>
<path d="M259.211 232.971L259.403 232.982C259.028 234.015 259.267 238.684 259.38 239.929C257.899 238.25 259.672 235.611 258.336 234.058C256.875 234.227 253.297 234.684 252.331 233.661C253.03 232.976 256.944 233.258 258.436 233.136L258.686 233.114L259.211 232.971Z" fill="#97B8F5" fill-opacity="0.47451"/>
<path d="M211.178 218.429C212.73 218.368 214.103 218.335 215.66 218.346L215.49 219.177C214.301 219.726 212.096 219.001 211.987 219.939C211.807 221.493 211.992 223.835 211.46 225.434C210.975 224.382 211.457 220.126 211.178 218.429Z" fill="#617FC5" fill-opacity="0.290196"/>
<path d="M130.17 210.186C132.063 210.08 136.841 209.499 138.21 210.203L137.758 211.031L135.485 211.087C134.308 210.958 131.494 211.006 130.192 211.001L130.17 210.186Z" fill="#9CB8F2" fill-opacity="0.901961"/>
<path d="M186.634 210.432L187.458 209.978C189.961 210.187 193.146 209.674 195.069 210.298L194.752 210.875C192.445 211.296 189.536 210.883 187.097 211.142L186.634 210.432Z" fill="#9FBFDA" fill-opacity="0.729412"/>
<path d="M195.105 211.117L195.337 211.123C195.828 212.839 194.514 216.827 195.927 217.786C197.268 218.017 200.205 218.279 201.493 217.926C201.724 217.557 201.62 217.324 201.543 216.898L201.823 216.624L202.348 216.725C202.655 217.342 202.669 217.784 202.821 218.096L202.973 218.396L195.062 218.493C195.073 216.158 194.709 213.365 195.105 211.117Z" fill="#5E78BC" fill-opacity="0.133333"/>
<path d="M203.75 8.65416C204.83 8.53544 210.713 8.35052 211.383 8.73377C209.997 9.78251 205.444 9.45774 203.568 9.31068C203.162 9.27836 202.755 9.24103 202.35 9.19872L203.75 8.65416Z" fill="#5879CA" fill-opacity="0.878431"/>
<path d="M105.186 203.636L105.001 202.287L105.295 201.977L106.178 202.113C106.177 202.6 106.138 203.827 106.186 204.251C105.766 204.034 100.471 204.124 99.5693 204.089C100.937 203.585 103.644 203.659 105.186 203.636Z" fill="#5E78BC" fill-opacity="0.211765"/>
<path d="M122.111 134.833C122.431 138.557 122.962 135.949 124.711 138.275L124.68 138.677C123.934 138.802 123.784 138.787 123.027 138.72L122.474 138.961L122.211 138.942C122.032 137.72 122.101 136.094 122.111 134.833Z" fill="#9CB8F2" fill-opacity="0.627451"/>
<path d="M9.06641 180.91C10.059 180.522 11.6192 180.672 12.4193 181.349C11.874 181.924 10.3821 181.985 9.36409 182.383L9.06641 180.91Z" fill="#7C99DC" fill-opacity="0.482353"/>
<path d="M215.704 225.441C216.455 225.253 216.6 225.509 217.745 225.095C217.498 224.443 217.472 223.156 217.811 222.485C218.285 222.662 218.374 223.044 218.671 223.54L218.638 225.425C217.817 225.608 216.492 225.749 215.704 225.441Z" fill="#5E78BC" fill-opacity="0.290196"/>
<path d="M135.784 139.065L135.848 138.652C137.193 137.904 136.668 137.328 137.912 136.851C137.883 137.554 137.876 138.54 137.802 139.214C137.353 139.11 136.293 139.089 135.784 139.065Z" fill="#A4BEF2" fill-opacity="0.619608"/>
<path d="M97.8586 198.31L98.7825 199.196L98.7592 199.333C98.6191 200.215 98.5953 201.197 98.5525 202.095L98.3342 202.035C98.1705 201.577 97.9746 200.959 97.752 200.537L97.8586 198.31Z" fill="#7A95D0" fill-opacity="0.258824"/>
<path d="M135.011 216.827C135.717 216.975 136.65 217.085 137.173 217.476L137.11 217.816L136.454 218.102C135.732 218.029 135.239 218.069 134.75 217.626L135.011 216.827Z" fill="#9FBFDA" fill-opacity="0.521569"/>
<path d="M97.3418 196.966L97.5747 196.975L98.8057 197.001C98.8577 197.697 98.9978 198.555 98.783 199.196L97.8591 198.31C97.7914 197.623 97.7579 197.546 97.3418 196.966Z" fill="#7A95D0" fill-opacity="0.32549"/>
<path d="M114.152 211.026C114.698 209.899 114.609 209.681 116.194 209.931L116.589 210.293L116.496 210.661L115.091 211.001L114.152 211.026Z" fill="#A0C2CB" fill-opacity="0.796078"/>
<path d="M210.432 218.359C210.313 217.382 210.205 216.675 210.41 215.71L210.645 215.77L211.067 216.943C211.08 217.353 211.066 218.07 211.179 218.429L210.432 218.359Z" fill="#9FBFDA" fill-opacity="0.435294"/>
<path d="M234.952 240.05C235.296 239.281 235.355 238.748 235.999 238.333C236.28 239.012 236.074 239.458 235.881 240.153C235.601 240.175 235.244 240.095 234.952 240.05Z" fill="#617FC5" fill-opacity="0.32549"/>
<path d="M186.596 210.134C186.117 210.234 186.119 210.21 185.661 210.109C185.234 209.481 185.268 209.739 185.408 209.124L185.93 208.973L186.789 209.518L186.596 210.134Z" fill="#5879CA" fill-opacity="0.454902"/>
</svg>
