<svg width="60" height="60" viewBox="0 0 60 60" fill="none" xmlns="http://www.w3.org/2000/svg">
<g clip-path="url(#clip0_2274_4887)">
<path d="M17.7322 14.7322C16.7559 15.7085 16.7559 17.2914 17.7322 18.2678L26.6951 27.2306L17.7322 36.1936C16.7559 37.1698 16.7559 38.7528 17.7322 39.7291C18.7085 40.7053 20.2915 40.7053 21.2678 39.7291L30.2306 30.7661L39.1936 39.7291C40.1698 40.7053 41.7528 40.7053 42.7291 39.7291C43.7053 38.7528 43.7053 37.1698 42.7291 36.1936L33.7661 27.2306L42.7291 18.2678C43.7053 17.2915 43.7053 15.7086 42.7291 14.7323C41.7526 13.756 40.1698 13.756 39.1936 14.7323L30.2306 23.6951L21.2678 14.7322C20.2915 13.7559 18.7085 13.7559 17.7322 14.7322Z" fill="#0F0F0F"/>
</g>
<defs>
<clipPath id="clip0_2274_4887">
<rect width="60" height="60" fill="white"/>
</clipPath>
</defs>
</svg>
