<svg width="17" height="180" viewBox="0 0 17 180" fill="none" xmlns="http://www.w3.org/2000/svg">
<g clip-path="url(#clip0_2093_9051)">
<path d="M8.96604 -39.0151L9.03138 -39.0199L9.04262 -38.999C9.67673 -39.0978 10.3222 -39.016 10.9572 -39.014L11.0237 -39.0118L11.9572 -39.0149L16.0044 -39.0154L16.0041 -37.9623L16.0043 -31.9613L16.0043 -30.983L16.0044 -29.9834L16.0044 -25.9736L16.004 -17.047L16.0036 -16.0713L16.0047 -15.9827L16.0043 -14.995L16.0045 -13.9925L16.0043 -8.03245L16.0047 -7.01757L16.0038 -6.93854L16.0044 -5.97187L16.0045 -4.99875L16.0044 -3.02528L16.0042 5.96393L16.0043 6.99708L16.0043 7.97411L16.0045 8.99265L16.0041 14.0102L16.0047 16.949L16.0038 17.8872L16.005 18.0157L16.0041 20.0689L16.0044 30.9949L16.0042 32.9851L16.0036 33.9188L16.0049 33.9865L16.0044 35.9813L16.0043 39.0194L16.0044 39.979L16.0041 40.999L16.0042 42.019V43.0264C16.0038 43.6685 16.0051 44.4389 16.0029 45.069C16.005 47.3813 16.0054 49.6936 16.0041 52.0058V52.9913L16.0042 55.9092L16.0034 57.8615L16.0055 57.9778L16.0038 58.0256L16.0044 59.0064L16.0043 61.986L16.0043 63.9364V64.9624L16.0044 65.9943L16.0043 66.9831L16.0048 67.9672L16.0031 68.0688L16.0044 69.0072L16.0042 78.9469V80.9835L16.0037 81.8807L16.0044 81.979L16.0045 82.9478L16.0044 86.9601L16.0043 88.9523L16.0045 89.9431L16.0051 90.9392L16.0033 90.987L16.004 91.9831L16.0038 92.9765L16.0039 97.0014L16.0038 99.9658C16.0039 101.005 16.0077 102.627 16.0028 103.62L16.0043 105.943L16.0042 106.932C16.0042 109.055 15.9979 111.913 16.0052 113.979L16.0035 114.076L16.0045 114.964L16.0046 115.98L16.0047 117.938L16.0047 129.898L16.0046 130.985L16.0045 131.97L16.0044 137.936L16.0043 138.945L16.0035 139.035L16.0049 139.992L16.0034 140.075L16.0044 140.974L16.0045 143.925L16.0041 153.795L16.0044 154.936L16.0038 155.9L16.0052 155.968L16.0041 162.969L16.005 163.943L16.0034 164.025L16.004 164.968V171.002L16.0042 172.92V173.924L16.0042 177.967L16.0044 178.971H14.0115L8.10218 178.969L6.12768 178.971C5.77079 178.953 5.4139 178.959 5.05702 178.989C4.75051 178.815 4.34564 178.971 4.03294 178.971H1.99291L1.99207 177.927L1.9943 177.819C1.99187 176.231 1.98975 174.549 1.99555 172.968C1.99297 172.655 1.99345 172.276 1.99311 171.954L1.99134 171.912L1.99213 170.991L1.99387 170.944C1.99002 168.664 1.99259 166.238 1.99211 163.946L1.99231 162.979L1.99289 149.02L1.9932 147.96L1.99346 146.979L1.99239 139.984L1.99292 139.049L1.99206 138.948C1.99638 137.466 1.9921 135.602 1.99214 134.088L1.99253 124.013L1.99231 122.936L1.99288 121.96C1.99547 120.003 1.99274 117.942 1.99262 115.977L1.99278 114.966L1.99269 113.969L1.99234 112.935C1.99037 110.966 1.99222 108.948 1.99228 106.975L1.99211 105.969L1.99229 103.94L1.99312 98.9703L1.99304 97.9868C1.9897 96.0471 1.99264 93.9567 1.99249 92.0043L1.99283 90.9245L1.99301 89.9464L1.99365 75.0833L1.99154 75.0196L1.99242 73.9425L1.99305 72.9942C1.99575 71.0273 1.99251 68.9341 1.99215 66.9579L1.99286 65.9937L1.99291 64.9737C1.98485 60.4813 1.99263 55.5333 1.99268 51.0064L1.99251 49.9911L1.99316 49.0242L1.99184 48.9538C1.99804 46.7451 1.99299 44.2277 1.99243 41.9964L1.99267 40.9831L1.99285 27.0192L1.99267 25.9739L1.99262 24.9792L1.99253 24.011L1.99288 18.9552L1.99286 17.9805L1.99334 17.0415L1.99209 16.9534L1.99334 15.931L1.99309 2.03141L1.99222 0.989101L1.99281 0.884716L1.9921 -0.0390625L1.99332 -6.94777L1.99241 -7.03277L1.99343 -8.02568L1.9925 -9.99728L1.99286 -21.9715L1.99247 -23.0288L1.99196 -24.0045L1.99292 -31.0092L1.99267 -31.9829L1.99279 -36.9548L1.9934 -37.9134L1.99105 -37.9819L1.9926 -39.014L3.98707 -39.0104L6.64286 -39.0188C7.06694 -39.0191 7.55964 -39.1762 7.97956 -39.0055L8.96604 -39.0151Z" fill="#B87B21"/>
<path d="M8.9596 73.9425L8.96288 73.9664L8.96376 74.0222C8.99753 74.0302 9.002 73.9584 9.02576 74.1543C9.03449 75.0143 9.04172 81.287 9.02828 81.9544L9.03587 81.989L16.0042 81.979L16.0043 82.9479L16.0042 86.9601L16.0041 88.9523L16.0043 89.9431L16.005 90.9392L16.0032 90.987L16.0039 91.9831L16.0037 92.9765L16.0038 97.0014L16.0037 99.9658C16.0038 101.005 16.0076 102.627 16.0027 103.62L16.0042 105.943L16.004 106.932C16.0041 109.055 15.9978 111.913 16.0051 113.979L16.0034 114.076L16.0044 114.964L16.0045 115.98L16.0046 117.938L16.0045 129.898L16.0044 130.985L16.0044 131.97L16.0043 137.936L16.0041 138.945L16.0034 139.035L16.0048 139.992L16.0033 140.075L16.0042 140.974L16.0044 143.925L16.0039 153.795L16.0043 154.936L16.0037 155.9L16.0051 155.968L16.004 162.969L16.0048 163.943L16.0033 164.025L16.0039 164.968V171.002L16.004 172.92V173.924L16.0041 177.967L16.0043 178.971H14.0113L8.10205 178.969L6.12755 178.971C5.77066 178.953 5.41377 178.959 5.05689 178.989C4.75038 178.815 4.34552 178.971 4.03281 178.971H1.99279L1.99194 177.927L1.99417 177.819C1.99174 176.231 1.98962 174.549 1.99543 172.968C1.99284 172.655 1.99332 172.276 1.99299 171.954L1.99121 171.912L1.992 170.991L1.99375 170.944C1.98989 168.664 1.99246 166.238 1.99199 163.946L1.99219 162.979L1.99276 149.02L1.99307 147.96L1.99333 146.979L1.99226 139.984L1.99279 139.049L1.99193 138.948C1.99625 137.466 1.99197 135.602 1.99201 134.088L1.9924 124.013L1.99218 122.936L1.99276 121.96C1.99534 120.003 1.99261 117.942 1.99249 115.977L1.99265 114.966L1.99257 113.969L1.99222 112.935C1.99024 110.966 1.99209 108.948 1.99216 106.975L1.99198 105.969L1.99216 103.94L1.993 98.9704L1.99292 97.9869C1.98957 96.0471 1.99251 93.9567 1.99236 92.0043L1.9927 90.9246L1.99288 89.9464L1.99353 75.0834L1.99141 75.0196L1.99229 73.9425H8.9596Z" fill="#E5A039"/>
<path d="M15.001 139.125C15.045 138.964 15.2648 139.029 15.3266 139.029L16.0034 139.035L16.0048 139.992L16.0033 140.075L16.0042 140.974L16.0044 143.925L16.0039 153.795L16.0043 154.936L16.0037 155.9L16.0051 155.968L16.004 162.969L16.0048 163.943L16.0033 164.025L16.0039 164.968V171.002L16.004 172.92V173.924L16.0041 177.967L16.0043 178.971H14.0113L8.10205 178.969L6.12755 178.971C5.77066 178.953 5.41377 178.959 5.05689 178.989C4.75038 178.815 4.34552 178.971 4.03281 178.971H1.99279L1.99194 177.927L1.99417 177.819C1.99174 176.231 1.98962 174.549 1.99543 172.968C1.99284 172.655 1.99332 172.276 1.99299 171.954L1.99121 171.912L1.992 170.991L1.99375 170.944C1.98989 168.664 1.99246 166.238 1.99199 163.946L1.99219 162.979L1.99276 149.02L1.99307 147.96L1.99333 146.979L2.99279 146.989C3.22834 146.844 3.54253 146.964 3.78299 146.964L5.30126 146.965L7.68537 146.964C8.1098 146.963 8.54358 146.891 8.9672 146.972C9.28769 146.888 9.60767 146.982 9.9276 146.903C9.87078 146.822 9.74631 146.859 9.68621 146.86L9.26536 146.87C9.20305 146.871 9.10753 146.912 9.04922 146.807C9.01924 145.407 9.04255 143.278 9.03295 141.792C9.02669 140.82 9.0448 140.14 9.0467 139.22C9.08895 139.127 9.37202 139.19 9.43531 139.19L10.2694 139.131L13.5566 139.181L14.5053 139.18C14.6333 139.184 14.8862 139.295 15.001 139.125Z" fill="#DB972E"/>
<path d="M9.031 162.944C9.22327 163.083 9.50076 162.975 9.69976 162.975L10.9636 162.983L15.0078 162.972C15.3343 162.973 15.6787 163.038 16.004 162.969L16.0048 163.943L16.0033 164.025L16.0039 164.968V171.002L16.004 172.92V173.924L16.0041 177.967L16.0043 178.971H14.0113L8.10205 178.969L6.12755 178.971C5.77066 178.953 5.41377 178.959 5.05689 178.989C4.75038 178.815 4.34552 178.971 4.03281 178.971H1.99279L1.99194 177.927L1.99417 177.819C1.99174 176.231 1.98962 174.549 1.99543 172.968C1.99284 172.655 1.99332 172.276 1.99299 171.954L1.99121 171.912L1.992 170.991L1.99375 170.944C1.98989 168.664 1.99246 166.238 1.99199 163.946L1.99219 162.979L6.66568 162.978L8.21339 162.959C8.43271 162.955 8.75244 163.077 8.9634 162.936C8.98095 162.91 9.01221 162.937 9.031 162.944Z" fill="#DB972E"/>
<path d="M1.99161 163.946L8.966 163.918C8.96477 166.26 8.96518 168.602 8.96718 170.944L4.36645 170.943L2.79353 170.941C2.53251 170.941 2.25326 170.874 1.99337 170.944C1.98952 168.664 1.99209 166.238 1.99161 163.946Z" fill="#B87B21"/>
<path d="M9.031 162.944C9.22327 163.083 9.50076 162.975 9.69976 162.975L10.9636 162.983L15.0078 162.972C15.3343 162.973 15.6787 163.038 16.004 162.969L16.0048 163.943L16.0033 164.025C15.958 163.914 15.7625 163.969 15.7044 163.965C15.4729 163.945 15.2394 164.026 15.0078 163.957C14.355 163.843 13.6893 163.935 13.0352 163.934L9.03367 163.952L9.03233 169.93C9.03285 170.443 9.04003 170.536 9.02222 170.879C9.00482 170.924 8.98927 170.965 8.97171 171C8.96211 171.268 8.96432 171.418 8.96468 171.712L8.95657 171.862C8.83723 172.005 8.56221 171.911 8.43641 171.91L7.27366 171.846L3.46732 171.914L2.44412 171.897C2.37819 171.894 2.03801 171.837 1.99299 171.954L1.99121 171.912L1.992 170.991L1.99375 170.944C2.25363 170.874 2.53288 170.941 2.79391 170.941L4.36682 170.943L8.96756 170.944C8.96555 168.602 8.96514 166.26 8.96637 163.918L1.99199 163.946L1.99219 162.979L6.66568 162.978L8.21339 162.959C8.43271 162.955 8.75244 163.077 8.9634 162.936C8.98095 162.91 9.01221 162.937 9.031 162.944Z" fill="#C4872B"/>
<path d="M1.99344 177.819C2.04615 177.953 2.23601 177.899 2.29922 177.897C2.50041 177.88 2.7016 177.878 2.90279 177.89L5.7553 177.953L16.0033 177.967L16.0035 178.971H14.0106L8.10132 178.969L6.12682 178.971C5.76993 178.953 5.41304 178.959 5.05615 178.989C4.74965 178.815 4.34478 178.971 4.03208 178.971H1.99205L1.99121 177.927L1.99344 177.819Z" fill="#CC9339"/>
<path d="M9.03153 169.93C9.34063 169.928 9.70347 169.809 10.0083 169.988C9.94944 170.104 9.80423 170.069 9.74017 170.068L9.2718 170.052C9.21257 170.049 9.10514 170 9.05083 170.111C9.04554 170.43 9.04395 170.469 9.04477 170.789C9.34053 170.943 9.67011 170.639 9.96155 170.831L9.96381 170.894C9.85233 170.914 9.08065 170.785 9.03538 171.062C9.02696 171.352 9.02758 171.427 9.02512 171.732C8.9994 172.06 8.98508 172.035 8.95649 172.035C8.47944 172.037 2.05028 171.896 2.00487 172.23C2.00248 172.408 1.99805 172.812 1.99463 172.968C1.99204 172.655 1.99252 172.276 1.99219 171.954C2.03721 171.837 2.37739 171.894 2.44332 171.897L3.46652 171.914L7.27286 171.846L8.43561 171.91C8.56141 171.911 8.83643 172.005 8.95577 171.862L8.96388 171.712C8.96352 171.418 8.96131 171.268 8.97091 171C8.98847 170.965 9.00402 170.924 9.02142 170.879C9.03923 170.536 9.03205 170.443 9.03153 169.93Z" fill="#CC9339"/>
<path d="M1.99333 146.979L2.99279 146.989C2.92339 147.165 2.80029 147.089 2.72654 147.087L2.23341 147.068C2.17154 147.065 2.04645 146.862 2.00174 147.376L1.99793 147.591C2.03282 147.97 2.25661 147.828 2.31762 147.827L2.89314 147.833C3.65765 147.956 4.42225 147.953 5.18675 147.825C6.44712 147.773 7.70749 147.805 8.96781 147.92L8.9674 152.917C8.96715 153.74 8.95981 155.322 8.96535 156.053C8.97387 155.445 8.96617 155.485 8.99235 155.068L9.00698 155.068C9.03038 155.398 9.02356 155.384 9.03126 155.906C9.03084 156.854 9.0254 159.043 9.03285 159.929L9.031 162.944C9.01221 162.937 8.98095 162.91 8.9634 162.936C8.75244 163.077 8.43271 162.955 8.21339 162.959L6.66568 162.978L1.99219 162.979L1.99276 149.02L1.99308 147.96L1.99333 146.979Z" fill="#E5A039"/>
<path d="M8.9646 156.053C8.97312 155.445 8.96542 155.485 8.9916 155.068L9.00623 155.068C9.02963 155.398 9.0228 155.385 9.0305 155.906C9.03009 156.854 9.02465 159.043 9.0321 159.929L9.03025 162.944C9.01146 162.937 8.9802 162.91 8.96265 162.936C8.96326 160.732 8.95731 158.217 8.9646 156.053Z" fill="#CC9339"/>
<path d="M9.03062 155.906C9.03052 155.556 9.02723 155.321 9.04099 155.025C9.08303 154.892 9.46897 154.965 9.54832 154.968L10.6708 154.94L16.0037 154.936L16.0031 155.9L16.0044 155.968L16.0033 162.969C15.678 163.038 15.3337 162.973 15.0072 162.972L10.963 162.983L9.69913 162.975C9.50012 162.975 9.22264 163.083 9.03037 162.944L9.03221 159.929C9.02477 159.043 9.03021 156.854 9.03062 155.906Z" fill="#B87B21"/>
<path d="M9.03062 155.906C9.03052 155.556 9.02723 155.321 9.04099 155.025C9.08303 154.892 9.46897 154.965 9.54832 154.968L10.6708 154.94L16.0037 154.936L16.0031 155.9L9.03827 156.097C9.03935 156.684 9.04695 159.567 9.03221 159.929C9.02477 159.043 9.03021 156.854 9.03062 155.906Z" fill="#B67C26"/>
<path d="M8.9595 73.9425L8.96279 73.9664L8.96366 74.0222C8.99743 74.0302 9.0019 73.9584 9.02566 74.1543C9.03439 75.0143 9.04163 81.287 9.02818 81.9544L9.03578 81.989L16.0041 81.979L16.0042 82.9479L16.0041 86.9601L16.004 88.9523L16.0042 89.9431L16.0049 90.9392L16.0031 90.987L16.0038 91.9831L16.0036 92.9765L16.0037 97.0014L16.0036 99.9658C16.0037 101.005 16.0075 102.627 16.0026 103.62L16.0041 105.943L11.5266 105.936C10.9562 105.902 10.3859 105.908 9.81551 105.953C9.58504 105.966 9.26634 105.812 9.04404 105.992C9.01822 106.376 9.04599 106.567 9.01802 106.972C8.99338 107.053 8.99307 107.043 8.96725 107.033C8.96761 109.024 8.9671 111.014 8.96576 113.005L8.9651 113.93L8.96489 114.966H1.99256L1.99247 113.969L1.99212 112.935C1.99014 110.966 1.992 108.948 1.99206 106.975L1.99188 105.969L1.99206 103.94L1.9929 98.9704L1.99282 97.9869C1.98948 96.0471 1.99241 93.9567 1.99226 92.0043L1.9926 90.9246L1.99279 89.9464L1.99343 75.0834L1.99131 75.0196L1.9922 73.9425H8.9595Z" fill="#E5A039"/>
<path d="M8.9594 73.9425L8.96268 73.9664L8.96356 74.0222C8.99733 74.0302 9.0018 73.9584 9.02556 74.1543C9.03429 75.0143 9.04152 81.287 9.02808 81.9544C8.9903 82.0115 8.98727 81.9245 8.96838 82.1968L8.96433 82.9206C8.96617 85.2548 8.96592 87.5897 8.96361 89.9245L4.27126 89.9511L2.76462 89.9504C2.51459 89.9511 2.24003 90.0334 1.99268 89.9464L1.99333 75.0834L1.99121 75.0196L1.99209 73.9425H8.9594Z" fill="#E5A039"/>
<path d="M9.0359 81.989L16.0043 81.979L16.0044 82.9479L16.0043 86.9601L16.0042 88.9523L16.0044 89.9431C15.6776 89.8634 15.3278 89.9331 15.0005 89.9438C14.7807 90.0049 14.5456 89.9504 14.3249 89.9504L13.0218 89.9471L9.03343 89.9278C9.03123 87.2815 9.03205 84.6346 9.0359 81.989Z" fill="#B87B21"/>
<path d="M15.0002 89.9437C14.9994 89.5971 14.9957 89.3341 15.0077 89.0313C15.0506 88.8866 15.2648 88.941 15.3221 88.9417L16.0039 88.9523L16.0041 89.9431C15.6773 89.8634 15.3276 89.9331 15.0002 89.9437Z" fill="#B67C26"/>
<path d="M1.9926 90.9246C2.74183 90.738 3.53362 90.8814 4.28601 90.8854L8.96494 90.9392C8.96566 93.2654 8.96479 95.6255 8.96787 97.949L4.90986 97.9517L3.62915 97.951C3.45225 97.9503 3.139 97.8215 2.969 97.9928L1.99282 97.9869C1.98947 96.0471 1.99241 93.9567 1.99226 92.0043L1.9926 90.9246Z" fill="#B87B21"/>
<path d="M9.02777 81.9544L9.03536 81.9889C9.03151 84.6346 9.03069 87.2815 9.0329 89.9278L13.0213 89.9471L14.3244 89.9504C14.5451 89.9504 14.7801 90.0048 14.9999 89.9437C15.3273 89.9331 15.6771 89.8634 16.0038 89.9431L16.0045 90.9392L16.0026 90.987C15.9474 90.8515 15.6462 90.9166 15.5673 90.9179L14.5104 90.9591L10.575 90.9465L9.73482 91.0255C9.65146 91.0255 9.07596 90.9013 9.04116 91.1975C9.03341 92.1112 9.04445 92.9639 9.04291 93.8518C9.04055 95.2111 9.04296 96.5425 9.04342 97.8906C9.3536 97.8906 9.7073 97.781 10.0139 97.9198C9.73877 98.0838 9.42607 97.9284 9.14736 97.965L4.4192 98.1615C4.2488 98.1615 3.04119 98.3727 2.96858 97.9928C3.13859 97.8215 3.45184 97.9503 3.62874 97.951L4.90945 97.9517L8.96745 97.949C8.96437 95.6255 8.96525 93.2654 8.96453 90.9392L4.2856 90.8854C3.5332 90.8814 2.74141 90.738 1.99219 90.9246L1.99237 89.9464C2.23971 90.0334 2.51428 89.951 2.76431 89.9504L4.27095 89.9511L8.9633 89.9245C8.96561 87.5896 8.96586 85.2548 8.96401 82.9206L8.96807 82.1968C8.98696 81.9245 8.98999 82.0115 9.02777 81.9544Z" fill="#C4872B"/>
<path d="M1.99219 112.935C2.6623 112.752 3.37313 112.912 4.04639 112.909L8.96583 113.005L8.96516 113.93L8.96496 114.966H1.99262L1.99254 113.969L1.99219 112.935Z" fill="#DCA348"/>
<path d="M1.99219 113.969L8.96482 113.93L8.96461 114.966H1.99227L1.99219 113.969Z" fill="#DB972E"/>
<path d="M15.992 105.785C15.9916 105.106 15.9867 104.241 16.0028 103.62L16.0043 105.943L11.5268 105.936C10.9565 105.902 10.3861 105.908 9.81574 105.953C9.58527 105.966 9.26657 105.812 9.04427 105.992C9.01845 106.376 9.04622 106.567 9.01824 106.972C8.99361 107.053 8.9933 107.043 8.96748 107.033C8.96615 106.579 8.9605 106.242 8.98206 105.936C9.15965 105.653 9.56453 105.784 9.7604 105.784L11.194 105.782L15.992 105.785Z" fill="#DB972E"/>
<path d="M1.99266 114.966H8.965C8.96577 115.643 8.96607 116.32 8.96592 116.996C8.97649 117.742 8.9768 120.895 8.97772 121.798C8.99246 121.821 9.00719 121.843 9.02197 121.863C8.97932 122.271 8.9612 121.359 8.96433 122.947C8.61735 122.824 8.22879 122.933 7.87806 122.934L5.75548 122.941L3.27369 122.945C2.84959 122.942 2.41546 122.835 1.99219 122.936L1.99276 121.96C1.99534 120.003 1.99262 117.942 1.9925 115.977L1.99266 114.966Z" fill="#B87B21"/>
<path d="M8.96592 116.996C8.97649 117.742 8.9768 120.895 8.97772 121.798C8.99246 121.821 9.00719 121.843 9.02197 121.863C8.97932 122.271 8.9612 121.359 8.96433 122.947C8.61735 122.824 8.22879 122.933 7.87806 122.934L5.75548 122.941L3.27369 122.945C2.84959 122.942 2.41546 122.835 1.99219 122.936L1.99276 121.96L8.96638 121.975C8.9633 120.535 8.95632 118.407 8.96592 116.996Z" fill="#B67C26"/>
<path d="M16.0044 130.985L16.0044 131.97L16.0043 137.936L16.0041 138.945C15.7509 138.829 15.4518 138.928 15.1959 138.93L13.6093 138.944L9.03434 138.892C9.03265 136.268 9.03285 133.644 9.03491 131.019L16.0044 130.985Z" fill="#B87B21"/>
<path d="M1.99272 139.049L6.73767 139.051L8.25242 139.072L8.70375 139.069C8.77623 139.068 8.88433 139.027 8.95234 139.11C8.97477 139.92 8.96712 145.646 8.96712 146.972C8.54351 146.891 8.10973 146.963 7.68529 146.964L5.30119 146.965L3.78291 146.964C3.54246 146.964 3.22827 146.844 2.99271 146.989L1.99326 146.979L1.99219 139.984L1.99272 139.049Z" fill="#B87B21"/>
<path d="M9.03356 106.996L14.0059 106.933C14.6693 106.934 15.3415 106.838 16.0039 106.932C16.0039 109.055 15.9976 111.913 16.0049 113.979L16.0032 114.076C15.9496 113.992 15.8184 114.039 15.7585 114.039L15.276 114.048C14.7762 113.985 14.2765 113.968 13.7767 113.996L9.03397 113.91C9.02827 111.77 9.03325 109.17 9.03356 106.996Z" fill="#B87B21"/>
<path d="M8.96663 107.033C8.99244 107.043 8.99275 107.053 9.01739 106.972C9.04536 106.567 9.01759 106.376 9.04341 105.992C9.26572 105.812 9.58442 105.966 9.81488 105.953C10.3852 105.908 10.9556 105.902 11.526 105.936L16.0035 105.943L16.0033 106.932C15.341 106.838 14.6687 106.934 14.0053 106.933L9.03299 106.996C9.03269 109.17 9.02771 111.77 9.0334 113.91L13.7762 113.996C14.2759 113.968 14.7757 113.985 15.2754 114.048L15.758 114.039C15.8179 114.039 15.949 113.992 16.0027 114.076L16.0037 114.964L16.0038 115.98L16.0039 117.938L16.0038 129.898L16.0037 130.985L9.03417 131.019C9.03212 133.644 9.03192 136.268 9.03361 138.892L13.6086 138.944L15.1952 138.93C15.4511 138.928 15.7502 138.829 16.0034 138.945L16.0027 139.035L15.3259 139.029C15.2641 139.029 15.0442 138.964 15.0002 139.125C14.8855 139.295 14.6326 139.184 14.5046 139.18L13.5559 139.181L10.2687 139.132L9.43459 139.19C9.3713 139.19 9.08822 139.127 9.04598 139.22C9.04408 140.14 9.02596 140.82 9.03222 141.792C9.04182 143.278 9.01852 145.407 9.04849 146.807C9.1068 146.912 9.20233 146.871 9.26464 146.871L9.68548 146.86C9.74559 146.859 9.87006 146.822 9.92688 146.903C9.60695 146.982 9.28697 146.888 8.96647 146.972C8.96647 145.646 8.97412 139.92 8.95169 139.11C8.88368 139.027 8.77558 139.068 8.70311 139.069L8.25177 139.072L6.73702 139.051L1.99207 139.049L1.99121 138.948L8.96555 138.933C8.96688 137.778 8.95615 131.661 8.97227 131.022C8.99291 131.019 9.00276 131.01 9.02324 130.978L9.03228 130.819C9.03228 130.462 9.03176 130.411 9.03741 130.048C9.06451 129.869 9.73419 129.944 9.81709 129.944H11.3528L15.9992 129.946C15.9989 125.17 15.9842 119.799 15.9943 115.126L11.2345 115.102C10.543 115.094 9.85138 115.013 9.15988 115.005C9.13319 115.004 9.05548 114.964 9.03885 115.16C9.03407 115.474 9.03043 115.538 9.03946 115.832C9.07308 115.933 9.27526 115.885 9.31966 115.885L10.0307 115.879L10.034 115.966C9.96553 116.244 9.17071 116.04 9.04321 116.039C9.04347 117.59 9.04721 119.456 9.04069 120.979L9.60977 120.972C9.69221 120.97 9.86349 120.918 9.93925 121.064C9.67147 121.25 9.31535 121.114 9.04105 121.113C9.0391 121.666 9.04926 122.385 9.03453 122.81C9.00569 123.055 9.00625 122.962 8.9636 122.947C8.96047 121.359 8.97859 122.271 9.02124 121.863C9.00646 121.843 8.99173 121.821 8.97699 121.798C8.97607 120.895 8.97576 117.742 8.96519 116.996C8.96534 116.32 8.96503 115.643 8.96426 114.966L8.96447 113.93L8.96514 113.005C8.96647 111.014 8.96699 109.024 8.96663 107.033Z" fill="#C4872B"/>
<path d="M9.03379 113.91L13.7765 113.996C14.2763 113.968 14.7761 113.985 15.2758 114.048L15.7583 114.039C15.8182 114.039 15.9494 113.992 16.0031 114.076L16.004 114.964C15.4503 114.786 14.8353 114.945 14.2768 114.945L10.9119 114.944L9.71101 114.919C9.51478 114.919 9.23607 115.034 9.04549 114.894C9.0284 114.597 9.0343 114.347 9.03379 113.91Z" fill="#B67C26"/>
<path d="M8.96523 -39.0151L9.03057 -39.0199L9.04181 -38.999C9.67592 -39.0978 10.3214 -39.016 10.9564 -39.014L11.0229 -39.0118L11.9564 -39.0149L16.0036 -39.0154L16.0032 -37.9623L16.0034 -31.9613L16.0035 -30.983L16.0036 -29.9834L16.0035 -25.9736L16.0032 -17.047L16.0028 -16.0713L16.0039 -15.9827L16.0034 -14.995L16.0036 -13.9925L16.0035 -8.03245L16.0039 -7.01757L16.003 -6.93854L16.0036 -5.97187L16.0037 -4.99875L16.0036 -3.02528L16.0034 5.96393L16.0034 6.99708L16.0035 7.97411L16.0036 8.99265L16.0033 14.0102L16.0039 16.949C15.9286 16.9024 15.8501 16.9202 15.7745 16.9228C15.0935 16.9465 14.4123 16.9628 13.7313 16.9619L9.03072 16.9641C8.78522 17.1902 8.43767 17.0486 8.18319 17.0433L6.63738 17.0062L1.99252 17.0415L1.99128 16.9534L1.99252 15.931L1.99228 2.03141L1.99141 0.989101L1.992 0.884716L1.99129 -0.0390625L1.99251 -6.94777L1.99159 -7.03277L1.99262 -8.02568L1.99169 -9.99728L1.99205 -21.9715L1.99166 -23.0288L1.99115 -24.0045L1.99211 -31.0092L1.99186 -31.9829L1.99198 -36.9548L1.99259 -37.9134L1.99023 -37.9819L1.99179 -39.014L3.98626 -39.0104L6.64205 -39.0188C7.06613 -39.0191 7.55883 -39.1762 7.97875 -39.0055L8.96523 -39.0151Z" fill="#E29D34"/>
<path d="M8.03802 -7.0545C8.11983 -6.9531 8.92703 -6.962 8.96152 -7.15478L8.9723 -7.82787C8.99529 -8.09071 8.99288 -8.00352 9.03179 -8.03778C9.03235 -7.53044 9.02486 -7.39391 9.04421 -7.10584C9.10195 -6.99593 9.26179 -7.05337 9.328 -7.05497L9.87645 -7.0634L11.9855 -7.07004L12.622 -7.0731C12.7021 -7.07356 12.8755 -7.13479 12.9502 -7.02402L14.9927 -7.03046L15.6563 -7.03226C15.7622 -7.03246 15.8996 -7.08326 16.0038 -7.01751L16.0029 -6.93849L16.0035 -5.97181L16.0036 -4.9987L16.0035 -3.02524L16.0033 5.96398L16.0034 6.99713L16.0034 7.97416L16.0036 8.9927L16.0032 14.0102L16.0038 16.949C15.9285 16.9025 15.85 16.9202 15.7744 16.9228C15.0934 16.9465 14.4122 16.9628 13.7312 16.962L9.03066 16.9641C8.78515 17.1902 8.43761 17.0486 8.18312 17.0433L6.63731 17.0063L1.99246 17.0415L1.99121 16.9534L1.99246 15.931L1.99222 2.03146L1.99134 0.989153L1.99193 0.884765L1.99123 -0.0390134L1.99244 -6.94772L1.99153 -7.03272C2.54389 -7.15544 3.11973 -7.06732 3.6741 -7.06612L6.64383 -7.05344C7.10379 -7.04826 7.57888 -6.95489 8.03802 -7.0545Z" fill="#E29D34"/>
<path d="M8.038 -7.0545C8.11982 -6.9531 8.92701 -6.962 8.9615 -7.15478L8.97228 -7.82787C8.99528 -8.09071 8.99287 -8.00352 9.03177 -8.03778C9.03234 -7.53044 9.02484 -7.39391 9.04419 -7.10584C9.10194 -6.99593 9.26178 -7.05337 9.32799 -7.05497L9.87643 -7.0634L11.9855 -7.07004L12.6219 -7.0731C12.7021 -7.07356 12.8755 -7.13479 12.9501 -7.02402C12.8683 -6.88703 12.6409 -6.962 12.5464 -6.96366L11.7456 -6.9711L9.03844 -6.84459C9.02726 -4.768 9.03218 -1.15371 9.03957 0.971622C8.57936 1.01419 8.11915 1.01824 7.65894 0.983774L5.14759 0.994467L3.05378 0.995926C2.70815 0.995992 2.33515 1.08956 1.99133 0.989153L1.99191 0.884765L1.99121 -0.0390134L1.99243 -6.94772L1.99151 -7.03272C2.54388 -7.15544 3.11972 -7.06732 3.67408 -7.06612L6.64382 -7.05344C7.10377 -7.04826 7.57887 -6.95489 8.038 -7.0545Z" fill="#B87B21"/>
<path d="M8.03886 -7.0545C8.12068 -6.9531 8.92787 -6.962 8.96236 -7.15478L8.97314 -7.82787C8.99614 -8.09071 8.99372 -8.00352 9.03263 -8.03778C9.0332 -7.53044 9.0257 -7.39391 9.04505 -7.10584C9.1028 -6.99593 9.26263 -7.05337 9.32885 -7.05497L9.87729 -7.0634L11.9863 -7.07004L12.6228 -7.0731C12.703 -7.07356 12.8764 -7.13479 12.951 -7.02402C12.8692 -6.88703 12.6418 -6.962 12.5473 -6.96366L11.7464 -6.9711L9.0393 -6.84459C9.02811 -4.768 9.03304 -1.15371 9.04043 0.971622C8.58022 1.01419 8.12001 1.01824 7.6598 0.983774L5.14845 0.994467L3.05464 0.995926C2.70901 0.995992 2.33601 1.08956 1.99219 0.989153L1.99277 0.884765L8.96293 0.877258C8.96554 -1.72646 8.96637 -4.33052 8.96539 -6.93444L1.99329 -6.94772L1.99237 -7.03272C2.54473 -7.15544 3.12058 -7.06732 3.67494 -7.06612L6.64467 -7.05344C7.10463 -7.04826 7.57973 -6.95489 8.03886 -7.0545Z" fill="#B67C26"/>
<path d="M13.3307 8.96619L16.0037 8.99268L16.0033 14.0102L16.0039 16.949C15.9286 16.9025 15.8501 16.9202 15.7745 16.9228C15.0935 16.9465 14.4123 16.9628 13.7313 16.962L9.03073 16.9641C9.0316 15.8245 9.02041 9.79792 9.04916 9.2443C9.12071 9.05152 9.26278 9.13287 9.34183 9.12423C9.51753 9.10511 9.69554 9.16175 9.87134 9.1229C10.6529 8.98093 11.4346 8.94115 12.2163 9.00364L12.9245 9.00484C13.0507 9.00477 13.2066 9.0567 13.3307 8.96619Z" fill="#B87B21"/>
<path d="M8.96532 16.9623C8.96501 15.6089 8.95541 10.0189 8.97307 9.07084C8.98913 8.98644 8.9916 8.98538 9.00838 8.97057L9.02327 8.95869C9.04113 8.66358 9.02599 8.58263 9.03569 8.05457C9.03636 8.1318 9.04149 8.78603 9.04683 8.78789C9.18736 8.83809 9.32883 8.81412 9.46957 8.81412L12.0526 8.8108L12.8803 8.80263C12.9459 8.8019 13.2949 8.69558 13.3306 8.96619C13.2065 9.0567 13.0506 9.00477 12.9244 9.00484L12.2162 9.00364C11.4345 8.94115 10.6528 8.98093 9.87126 9.12291C9.69547 9.16175 9.51746 9.10511 9.34176 9.12424C9.26271 9.13287 9.12064 9.05152 9.04909 9.2443C9.02034 9.79793 9.03153 15.8245 9.03066 16.9641C8.78515 17.1902 8.43761 17.0486 8.18312 17.0433L6.63731 17.0063L1.99246 17.0415L1.99121 16.9534C2.29977 16.9412 2.6899 17.0907 2.99215 16.9262C3.1981 16.8159 3.45556 16.9087 3.66452 16.9096L4.94205 16.9157L8.96532 16.9623Z" fill="#CC9339"/>
<path d="M1.99246 15.931L2.62973 15.9653C2.70766 15.9662 2.9094 15.9027 2.97805 16.0202C2.99444 16.3024 2.99127 16.5622 2.99215 16.9262C2.6899 17.0907 2.29977 16.9412 1.99121 16.9534L1.99246 15.931Z" fill="#DCA348"/>
<path d="M9.03119 16.9641L13.7317 16.9619C14.4128 16.9628 15.094 16.9465 15.7749 16.9228C15.8505 16.9202 15.929 16.9024 16.0043 16.949L16.0035 17.8872L16.0046 18.0157L16.0038 20.0689L16.004 30.9949L16.0039 32.9851L16.0032 33.9188C15.7833 34.0868 15.4641 33.94 15.2371 33.95L13.5849 33.9772L9.0318 34.039L9.02688 33.8816C9.02061 33.3344 9.02831 33.3948 9.00388 33.0914C8.9621 33.357 8.97591 33.7308 8.96523 34.2196C8.96395 36.4754 8.9639 38.7319 8.96497 40.9877L1.99232 40.9831L1.99251 27.0192L1.99232 25.9739L1.99227 24.9792L1.99219 24.011L1.99253 18.9552L1.99251 17.9805L1.99299 17.0415L6.63784 17.0062L8.18365 17.0433C8.43814 17.0486 8.78568 17.1902 9.03119 16.9641Z" fill="#DB972E"/>
<path d="M1.99219 25.9739C2.38728 25.823 2.82486 25.9432 3.22422 25.9435L5.60077 25.9612L8.14107 26.0051C8.42692 26.0347 8.73273 25.9182 9.01638 26.0591C9.00483 26.2547 8.9805 26.0827 8.97039 26.4175C8.96202 26.6944 8.96818 27.5889 8.97044 27.8904C8.98358 29.6508 8.95098 32.5515 8.9651 34.2196C8.96381 36.4754 8.96376 38.7319 8.96484 40.9877L1.99219 40.9831L1.99237 27.0191L1.99219 25.9739Z" fill="#E5A039"/>
<path d="M2.98881 17.9636C3.62281 17.8245 4.28162 17.9407 4.9174 17.9413L8.96693 17.9786C8.9603 19.704 8.96918 21.3416 8.96318 23.0026L8.96641 24.9989C8.74262 24.8556 8.41576 24.9824 8.18596 24.9824L6.65714 24.9838L1.99227 24.9792L1.99219 24.011L1.99253 18.9552L1.99251 17.9806C2.30243 17.9806 2.68441 18.1058 2.98881 17.9636Z" fill="#B87B21"/>
<path d="M1.99219 24.011L7.00238 23.8498C7.19722 23.8456 8.91626 23.9683 8.95384 23.7624C8.95825 23.4945 8.96046 23.272 8.96318 23.0026L8.96641 24.9989C8.74262 24.8556 8.41576 24.9824 8.18596 24.9825L6.65714 24.9839L1.99227 24.9792L1.99219 24.011Z" fill="#B67C26"/>
<path d="M1.99219 17.9806C2.30211 17.9806 2.68409 18.1058 2.98849 17.9636C2.98876 18.2972 2.99342 18.6529 2.97904 18.8969C2.92828 19.0176 2.72554 18.9597 2.66266 18.9594L1.99221 18.9552L1.99219 17.9806Z" fill="#B67C26"/>
<path d="M9.03086 16.9641L13.7314 16.9619C14.4125 16.9628 15.0936 16.9465 15.7746 16.9228C15.8502 16.9202 15.9287 16.9024 16.004 16.949L16.0032 17.8872L9.03153 17.9771C9.03102 19.4848 9.03174 20.9925 9.03369 22.5001C9.0342 23.0784 9.03795 24.3553 9.0323 24.8805C9.01239 25.0713 8.99216 25.0108 8.96609 24.9989L8.96285 23.0026C8.96886 21.3416 8.95998 19.704 8.9666 17.9785L4.91708 17.9413C4.2813 17.9407 3.62249 17.8245 2.98849 17.9636C2.68409 18.1058 2.30211 17.9806 1.99219 17.9805L1.99266 17.0415L6.63752 17.0062L8.18333 17.0433C8.43782 17.0486 8.78536 17.1902 9.03086 16.9641Z" fill="#C4872B"/>
<path d="M9.02637 33.8816C9.02801 33.5529 9.02739 33.4274 9.03607 33.11C9.06281 32.9253 9.68065 33.017 9.76216 33.0143L11.5296 32.9864L16.0033 32.9851L16.0027 33.9188C15.7828 34.0868 15.4636 33.94 15.2366 33.95L13.5844 33.9772L9.03129 34.039L9.02637 33.8816Z" fill="#B67C26"/>
<path d="M16.0026 57.8616L16.0047 57.9778L16.0031 58.0256L16.0036 59.0064L16.0035 61.9861L16.0036 63.9364V64.9624L16.0036 65.9943L16.0036 66.9831L16.004 67.9673L16.0023 68.0689L16.0036 69.0072L16.0035 78.9469V80.9836L16.003 81.8807L16.0036 81.979L9.03526 81.989L9.02766 81.9544C9.04111 81.287 9.03387 75.0143 9.02515 74.1543C9.00138 73.9584 8.99692 74.0302 8.96314 74.0222L8.96227 73.9664L8.95898 73.9425C8.97361 73.1489 8.96514 67.0734 8.96206 65.9811C8.95893 63.4224 8.96412 60.6526 8.96422 58.0721C8.98526 58.082 8.98372 58.0754 9.00374 58.0462C9.16173 57.8184 9.34888 57.9061 9.50907 57.9061L10.508 57.9114L14.2807 57.8875L15.44 57.9027C15.5753 57.9054 15.8851 58.0336 16.0026 57.8616Z" fill="#DB972E"/>
<path d="M16.0026 57.8616L16.0047 57.9778L16.0031 58.0256L16.0036 59.0064L16.0035 61.9861L16.0036 63.9364V64.9624L16.0036 65.9943H15.005L9.03413 65.9884C9.03254 68.6632 9.03043 71.1893 9.04398 73.8582C9.00944 73.9418 8.99733 73.9618 8.96227 73.9664L8.95898 73.9425C8.97361 73.1489 8.96514 67.0734 8.96206 65.9811C8.95893 63.4224 8.96412 60.6526 8.96422 58.0721C8.98526 58.082 8.98372 58.0754 9.00374 58.0462C9.16173 57.8184 9.34888 57.9061 9.50907 57.9061L10.508 57.9114L14.2807 57.8875L15.44 57.9027C15.5753 57.9054 15.8851 58.0336 16.0026 57.8616Z" fill="#B87B21"/>
<path d="M16.0026 57.8616L16.0047 57.9778L16.0031 58.0256L9.03233 58.0468C9.03156 60.6938 9.03213 63.3414 9.03413 65.9884C9.03254 68.6632 9.03043 71.1893 9.04398 73.8582C9.00944 73.9418 8.99733 73.9618 8.96227 73.9664L8.95898 73.9425C8.97361 73.1489 8.96514 67.0734 8.96206 65.9811C8.95893 63.4224 8.96412 60.6526 8.96422 58.0721C8.98526 58.082 8.98372 58.0754 9.00374 58.0462C9.16173 57.8184 9.34888 57.9061 9.50907 57.9061L10.508 57.9114L14.2807 57.8875L15.44 57.9027C15.5753 57.9054 15.8851 58.0336 16.0026 57.8616Z" fill="#C4872B"/>
<path d="M1.99251 49.9911L6.6289 49.9884C7.4017 49.9878 8.1916 49.8782 8.96306 49.9898L9.032 49.9958C9.0322 50.9009 9.04195 57.4499 9.01742 57.8569C8.99519 57.8988 8.98288 57.9127 8.96039 57.9253L8.96496 58.0721C8.96486 60.6526 8.95968 63.4224 8.96281 65.9811C8.96589 67.0734 8.97436 73.149 8.95973 73.9425H1.99242L1.99305 72.9942C1.99575 71.0273 1.99251 68.9342 1.99215 66.9579L1.99286 65.9937L1.99291 64.9737C1.98485 60.4813 1.99263 55.5334 1.99268 51.0065L1.99251 49.9911Z" fill="#E5A039"/>
<path d="M1.9929 65.9937L8.96284 65.9811C8.96592 67.0735 8.97439 73.149 8.95976 73.9425H1.99246L1.99309 72.9943C1.99579 71.0273 1.99255 68.9342 1.99219 66.9579L1.9929 65.9937Z" fill="#B87B21"/>
<path d="M12.999 42.0336C13.1075 41.9114 13.2378 41.9586 13.3484 41.9752C13.8639 42.0528 14.382 41.8842 14.8971 41.9818C15.1455 42.0416 15.3939 42.0608 15.6423 42.0389C15.7497 42.0382 15.899 42.0953 16.0037 42.019V43.0264C16.0034 43.6685 16.0046 44.4388 16.0025 45.069C16.0046 47.3813 16.005 49.6936 16.0036 52.0058V52.9913L16.0038 55.9092L16.003 57.8615C15.8854 58.0335 15.5756 57.9054 15.4403 57.9027L14.281 57.8874L10.5083 57.9113L9.50938 57.906C9.34919 57.906 9.16204 57.8184 9.00405 58.0461C8.98403 58.0753 8.98557 58.082 8.96453 58.072L8.95996 57.9253C8.98244 57.9127 8.99476 57.8987 9.01699 57.8569C9.04152 57.4498 9.03177 50.9008 9.03156 49.9957C9.03875 47.5055 9.03618 44.5152 9.03131 42.019L11.6522 42.0196L12.522 42.013C12.673 42.011 12.8513 41.9439 12.999 42.0336Z" fill="#DB972E"/>
<path d="M16.0028 33.9188L16.0041 33.9865L16.0036 35.9813L16.0035 39.0194L16.0036 39.979L16.0033 40.999C15.709 41.1604 15.3064 41.0129 15.0072 41.0189C14.4222 41.1597 13.8036 41.0176 13.2157 41.0242L9.03027 41.0149C9.03161 38.6894 9.03197 36.3645 9.03135 34.039L13.5845 33.9772L15.2366 33.95C15.4636 33.94 15.7829 34.0868 16.0028 33.9188Z" fill="#B87B21"/>
<path d="M15.0078 41.019C15.0069 40.6245 15.0042 40.4213 15.0147 40.0481C15.0561 39.904 15.2712 39.9538 15.3318 39.9545L16.0042 39.979L16.0039 40.999C15.7096 41.1604 15.307 41.013 15.0078 41.019Z" fill="#B67C26"/>
<path d="M8.96533 34.2196C8.97601 33.7309 8.9622 33.357 9.00398 33.0914C9.02842 33.3948 9.02072 33.3344 9.02698 33.8816L9.03191 34.039C9.03252 36.3645 9.03216 38.6894 9.03083 41.015L13.2162 41.0243C13.8041 41.0176 14.4227 41.1597 15.0078 41.0189C15.307 41.013 15.7095 41.1604 16.0039 40.999L16.0039 42.019C15.8991 42.0954 15.7499 42.0383 15.6425 42.0389C15.3941 42.0609 15.1457 42.0416 14.8973 41.9818C14.3822 41.8842 13.8641 42.0529 13.3486 41.9752C13.238 41.9586 13.1076 41.9114 12.9992 42.0336C12.8515 41.944 12.6732 42.0111 12.5221 42.013L11.6524 42.0197L9.0315 42.019C9.03637 44.5152 9.03894 47.5055 9.03175 49.9957L8.96282 49.9898C8.95958 49.5834 8.96174 49.3868 8.96441 48.9744C8.97334 48.0587 8.966 43.1552 8.96564 42.0097L1.99219 41.9964L1.99242 40.9831L8.96508 40.9877C8.964 38.7319 8.96405 36.4754 8.96533 34.2196Z" fill="#CC9339"/>
<path d="M1.99283 49.0242L8.96433 48.9744C8.96166 49.3868 8.95951 49.5834 8.96274 49.9898C8.19127 49.8782 7.40138 49.9878 6.62858 49.9885L1.99219 49.9911L1.99283 49.0242Z" fill="#B67C26"/>
<path d="M1.99261 2.03144L1.99285 15.931L1.9916 16.9534C1.6919 17.0965 1.30187 16.9655 0.996094 16.9656V2.03137L1.99261 2.03144Z" fill="#DCA348" fill-opacity="0.901961"/>
<path d="M1.99207 124.013L1.99168 134.088C1.99164 135.602 1.99592 137.466 1.9916 138.948C1.6895 138.807 1.30393 138.934 0.99615 138.934L0.996094 124.013H1.99207Z" fill="#DCA348" fill-opacity="0.886275"/>
<path d="M0.996094 75.013C1.32126 75.0136 1.66739 74.9446 1.99108 75.0196L1.9932 75.0834L1.99255 89.9464C1.67814 89.8375 1.31386 89.9384 0.996125 89.9384L0.996094 75.013Z" fill="#DCA348" fill-opacity="0.921569"/>
<path d="M1.99228 51.0065C1.99223 55.5334 1.98444 60.4813 1.99251 64.9737H0.996094L0.99616 51.0065H1.99228Z" fill="#DCA348" fill-opacity="0.933333"/>
<path d="M1.99241 27.0192L1.99223 40.9831L0.996094 40.9784L0.996104 27.0192H1.99241Z" fill="#DCA348" fill-opacity="0.905882"/>
<path d="M1.99244 149.02L1.99187 162.979C1.66617 162.913 1.32294 162.974 0.996094 162.973L0.996114 149.021L1.99244 149.02Z" fill="#D8A54F" fill-opacity="0.909804"/>
<path d="M16.004 117.938H16.9997V129.898H16.0039L16.004 117.938Z" fill="#CB9541" fill-opacity="0.752941"/>
<path d="M17.0002 20.0534V30.9949H16.0042L16.0039 20.069C16.3052 19.923 16.6929 20.0527 17.0002 20.0534Z" fill="#CC9339" fill-opacity="0.772549"/>
<path d="M16.0041 69.0072H17.0001V78.9442L16.0039 78.9469L16.0041 69.0072Z" fill="#CC9339" fill-opacity="0.760784"/>
<path d="M16.0044 143.925H17.0003V153.795H16.0039L16.0044 143.925Z" fill="#CC9339" fill-opacity="0.8"/>
<path d="M5.05688 178.989C5.41377 178.959 5.77066 178.953 6.12754 178.971L8.10205 178.969L14.0113 178.971V179.938H5.05913C5.05341 179.837 5.04768 179.736 5.04195 179.635C4.51293 179.588 3.95031 179.636 3.42441 179.62C3.30193 179.616 3.04401 179.68 3.00035 179.576C2.99415 179.278 2.99422 179.424 3.00391 179.132C3.11583 178.96 3.39599 179.079 3.52171 179.08L4.60762 179.084C4.71743 179.084 4.96098 179.238 5.05688 178.989Z" fill="#DCA348" fill-opacity="0.580392"/>
<path d="M17.0004 43.0271V52.0052L16.0041 52.0059C16.0054 49.6936 16.005 47.3814 16.0029 45.0691C16.0051 44.4389 16.0039 43.6686 16.0042 43.0264L17.0004 43.0271Z" fill="#CC9339" fill-opacity="0.745098"/>
<path d="M16.0041 -3.02527H17.0001V5.96395H16.0039L16.0041 -3.02527Z" fill="#CC963D" fill-opacity="0.760784"/>
<path d="M16.0035 106.932C16.3345 106.981 16.6685 106.95 16.9997 106.947V113.974L16.0045 113.979C15.9972 111.913 16.0035 109.055 16.0035 106.932Z" fill="#A8782F" fill-opacity="0.764706"/>
<path d="M16.005 155.968C16.3286 155.863 16.6749 155.944 17.0002 155.946V162.963L16.0039 162.969L16.005 155.968Z" fill="#A8782F" fill-opacity="0.772549"/>
<path d="M0.996094 163.937C1.31007 163.938 1.68182 163.826 1.99166 163.946C1.99214 166.238 1.98957 168.664 1.99342 170.944L1.99168 170.991C1.94744 170.904 1.7332 170.947 1.67398 170.947L0.996099 170.955L0.996094 163.937Z" fill="#A8782F" fill-opacity="0.956863"/>
<path d="M0.996119 17.9809L1.99244 17.9806L1.99246 18.9552L1.99211 24.011L1.9922 24.9792L0.996094 24.977L0.996119 17.9809Z" fill="#A8782F" fill-opacity="0.921569"/>
<path d="M0.996094 139.984H1.99193L1.993 146.979L0.996119 146.974L0.996094 139.984Z" fill="#A8782F" fill-opacity="0.92549"/>
<path d="M0.996094 41.9925C1.32239 41.9931 1.66697 41.9281 1.992 41.9965C1.99255 44.2277 1.99761 46.7452 1.9914 48.9538C1.66345 49.0329 1.32484 48.9758 0.996114 48.9724L0.996094 41.9925Z" fill="#C4872B" fill-opacity="0.941176"/>
<path d="M16.0039 164.968L17.0003 164.966V171.001L16.0039 171.002V164.968Z" fill="#CC9339" fill-opacity="0.8"/>
<path d="M0.996094 66.9579H1.99171C1.99208 68.9341 1.99532 71.0273 1.99262 72.9942H0.996125L0.996094 66.9579Z" fill="#A8782F" fill-opacity="0.94902"/>
<path d="M16.9996 99.9658V105.956L16.0034 105.943L16.002 103.62C16.0069 102.627 16.003 101.005 16.003 99.9658H16.9996Z" fill="#CB9441" fill-opacity="0.756863"/>
<path d="M16.9999 131.97V137.934L16.0039 137.936L16.004 131.97H16.9999Z" fill="#B67C26" fill-opacity="0.776471"/>
<path d="M0.996125 106.978L1.99187 106.975C1.99181 108.948 1.98996 110.966 1.99193 112.935C1.68038 113.082 1.31203 112.958 0.996094 112.956L0.996125 106.978Z" fill="#DCA348" fill-opacity="0.890196"/>
<path d="M0.996094 115.977H1.99218C1.9923 117.942 1.99502 120.003 1.99244 121.96L0.996155 121.96L0.996094 115.977Z" fill="#A8782F" fill-opacity="0.933333"/>
<path d="M0.996094 92.0043H1.99205C1.9922 93.9567 1.98926 96.0471 1.9926 97.9869C1.68273 97.8653 1.31018 97.9776 0.996119 97.9776L0.996094 92.0043Z" fill="#C4872B" fill-opacity="0.945098"/>
<path d="M17.0002 173.924V178.97L16.0042 178.971L16.004 177.967L16.0039 173.924H17.0002Z" fill="#E5A039" fill-opacity="0.898039"/>
<path d="M17.0002 8.9903V14.0102H16.0039L16.0043 8.99268L17.0002 8.9903Z" fill="#B67C26" fill-opacity="0.784314"/>
<path d="M0.996135 172.966L1.99513 172.968C1.98933 174.549 1.99145 176.231 1.99388 177.819L1.99165 177.927C1.66556 177.99 1.32326 177.931 0.996094 177.932L0.996135 172.966Z" fill="#E5A039" fill-opacity="0.968627"/>
<path d="M0.996094 98.9703H1.99268L1.99185 103.94H0.996099L0.996094 98.9703Z" fill="#DCA348" fill-opacity="0.901961"/>
<path d="M16.9996 92.9765V97.0014H16.003L16.0029 92.9765H16.9996Z" fill="#CC9339" fill-opacity="0.784314"/>
<path d="M16.004 82.9479H17V86.9601H16.0039L16.004 82.9479Z" fill="#B67C26" fill-opacity="0.768627"/>
<path d="M16.004 35.9814L17 35.984V39.0195H16.0039L16.004 35.9814Z" fill="#B67C26" fill-opacity="0.772549"/>
<path d="M16.0034 78.9469L16.9996 78.9442V81.9757L16.0035 81.979L16.0029 81.8807L16.0034 80.9835V78.9469Z" fill="#CC9339" fill-opacity="0.72549"/>
<path d="M16.004 59.0064L17.0001 59.0057V61.9841L16.0039 61.9861L16.004 59.0064Z" fill="#A8782F" fill-opacity="0.780392"/>
<path d="M16.003 97.0014H16.9995V99.9658H16.0029L16.003 97.0014Z" fill="#CC9339" fill-opacity="0.752941"/>
<path d="M16.0039 14.0102H17.0002V16.9724C16.6799 16.9675 16.3211 17.0857 16.0045 16.949L16.0039 14.0102Z" fill="#A8782F" fill-opacity="0.768627"/>
<path d="M16.0039 140.974H17V143.925H16.0041L16.0039 140.974Z" fill="#CC9339" fill-opacity="0.780392"/>
<path d="M16.0039 52.9913H17.0003V55.9092H16.0041L16.0039 52.9913Z" fill="#CA943B" fill-opacity="0.729412"/>
<path d="M17 55.9092V57.9891L16.005 57.9778L16.0029 57.8616L16.0038 55.9092H17Z" fill="#CC9339" fill-opacity="0.733333"/>
<path d="M16.0048 18.0157L17.0002 18.0178V20.0534C16.6929 20.0526 16.3052 19.923 16.0039 20.069L16.0048 18.0157Z" fill="#CC9339" fill-opacity="0.752941"/>
<path d="M1.99187 103.94L1.99169 105.969H0.996094L0.996119 103.94H1.99187Z" fill="#DCA348" fill-opacity="0.886275"/>
<path d="M16.0044 33.9865L16.9999 33.9905V35.984L16.0039 35.9813L16.0044 33.9865Z" fill="#B67C26" fill-opacity="0.803922"/>
<path d="M17.0001 30.9949V32.9924L16.0039 32.9851L16.0041 30.9949H17.0001Z" fill="#CC9339" fill-opacity="0.729412"/>
<path d="M16.004 86.9601H17.0001V88.955L16.0039 88.9523L16.004 86.9601Z" fill="#B67C26" fill-opacity="0.792157"/>
<path d="M16.9997 115.98V117.938H16.004L16.0039 115.98H16.9997Z" fill="#E5A039" fill-opacity="0.729412"/>
<path d="M16.0039 61.9861L17.0001 61.9841V63.9364H16.004L16.0039 61.9861Z" fill="#A8782F" fill-opacity="0.768627"/>
<path d="M14.0107 178.971H16.0037L16.0037 179.938H14.0107V178.971Z" fill="#DCA348" fill-opacity="0.643137"/>
<path d="M16.0039 171.002L17.0003 171.001V172.92H16.0041L16.0039 171.002Z" fill="#E5A039" fill-opacity="0.827451"/>
<path d="M1.99253 178.971H4.03256C4.34526 178.971 4.75013 178.815 5.05663 178.989C4.96073 179.238 4.71718 179.084 4.60737 179.084L3.52146 179.08C3.39574 179.079 3.11558 178.96 3.00366 179.132C2.99397 179.424 2.9939 179.278 3.0001 179.576C3.04376 179.68 3.30169 179.616 3.42416 179.62C3.95006 179.636 4.51268 179.588 5.0417 179.635C5.04743 179.736 5.05316 179.837 5.05888 179.938H1.99219L1.99253 178.971Z" fill="#D8A54F" fill-opacity="0.631373"/>
<path d="M16.0039 153.795H17.0003V154.927L16.0043 154.936L16.0039 153.795Z" fill="#CC9339" fill-opacity="0.72549"/>
<path d="M16.004 129.898H16.9998V130.973L16.0039 130.985L16.004 129.898Z" fill="#CC9339" fill-opacity="0.72549"/>
<path d="M1.99198 73.9425L1.9911 75.0196C1.66741 74.9446 1.32128 75.0136 0.996114 75.013L0.996094 73.9472L1.99198 73.9425Z" fill="#E5A039" fill-opacity="0.882353"/>
<path d="M0.996094 147.96H1.99276L1.99245 149.02L0.996125 149.021L0.996094 147.96Z" fill="#D8A54F" fill-opacity="0.870588"/>
<path d="M0.996094 90.9445C1.31187 90.9458 1.6811 91.0713 1.99239 90.9246L1.99205 92.0043H0.996099L0.996094 90.9445Z" fill="#C4872B" fill-opacity="0.933333"/>
<path d="M0.996094 0.970846C1.30622 0.969916 1.68753 0.838961 1.99178 0.989105L1.99265 2.03142L0.996135 2.03135L0.996094 0.970846Z" fill="#E5A039" fill-opacity="0.843137"/>
<path d="M1.99187 122.936L1.99209 124.013H0.996119L0.996094 122.954C1.32501 122.957 1.66372 123.014 1.99187 122.936Z" fill="#D8A54F" fill-opacity="0.854902"/>
<path d="M0.99615 138.934C1.30393 138.934 1.6895 138.807 1.9916 138.948L1.99246 139.049L1.99193 139.984H0.996094L0.99615 138.934Z" fill="#B87B21" fill-opacity="0.894118"/>
<path d="M16.0038 16.949C16.3203 17.0857 16.6792 16.9674 16.9995 16.9723V18.0178L16.0041 18.0157L16.0029 17.8872L16.0038 16.949Z" fill="#B87B21" fill-opacity="0.741176"/>
<path d="M16.0048 90.9392L17.0001 90.9445V91.9831H16.0036L16.0029 90.987L16.0048 90.9392Z" fill="#CC9339" fill-opacity="0.733333"/>
<path d="M16.0046 67.9673L17.0003 67.9659V69.0072H16.0042L16.0029 68.0689L16.0046 67.9673Z" fill="#E5A039" fill-opacity="0.729412"/>
<path d="M0.996094 177.932C1.32326 177.931 1.66556 177.99 1.99165 177.927L1.99249 178.971H0.996114L0.996094 177.932Z" fill="#E5A039" fill-opacity="0.945098"/>
<path d="M16.0039 5.96393H17.0001V6.99614L16.004 6.99708L16.0039 5.96393Z" fill="#CC9339" fill-opacity="0.745098"/>
<path d="M17 64.9624V65.995L16.004 65.9944L16.0039 64.9624H17Z" fill="#A8782F" fill-opacity="0.772549"/>
<path d="M16.9998 138.962V139.99L16.0043 139.992L16.0029 139.035L16.0036 138.945C16.3357 138.975 16.6678 138.981 16.9998 138.962Z" fill="#B87B21" fill-opacity="0.72549"/>
<path d="M16.0041 137.936L17.0001 137.934V138.962C16.668 138.981 16.336 138.975 16.0039 138.945L16.0041 137.936Z" fill="#B67C26" fill-opacity="0.741176"/>
<path d="M16.0039 42.019C16.3322 41.94 16.6711 41.9971 17.0002 41.9998V43.0271L16.0039 43.0264V42.019Z" fill="#CC9339" fill-opacity="0.701961"/>
<path d="M16.0045 163.943L16.9999 163.94V164.966L16.0035 164.968L16.0029 164.025L16.0045 163.943Z" fill="#CC9339" fill-opacity="0.717647"/>
<path d="M16.0039 63.9364H17V64.9624H16.0039V63.9364Z" fill="#A8782F" fill-opacity="0.8"/>
<path d="M16.0046 57.9778L16.9996 57.9891V59.0058L16.0035 59.0064L16.0029 58.0256L16.0046 57.9778Z" fill="#A8782F" fill-opacity="0.760784"/>
<path d="M0.996094 24.9769L1.9922 24.9792L1.99225 25.974C1.68341 26.1251 1.30904 25.9982 0.996109 25.9987L0.996094 24.9769Z" fill="#E5A039" fill-opacity="0.858824"/>
<path d="M0.996094 64.9737H1.99251L1.99245 65.9937L0.99613 65.995L0.996094 64.9737Z" fill="#E5A039" fill-opacity="0.917647"/>
<path d="M1.99223 25.9739L1.99242 27.0192H0.996109L0.996094 25.9986C1.30903 25.9982 1.6834 26.1251 1.99223 25.9739Z" fill="#D8A54F" fill-opacity="0.870588"/>
<path d="M1.9914 48.9539L1.99272 49.0242L1.99207 49.9911L0.996094 49.9938L0.996114 48.9724C1.32484 48.9758 1.66345 49.0329 1.9914 48.9539Z" fill="#B87B21" fill-opacity="0.909804"/>
<path d="M16.0039 7.97412L17 7.97192V8.99027L16.0041 8.99265L16.0039 7.97412Z" fill="#B87B21" fill-opacity="0.741176"/>
<path d="M16.9995 154.927V155.946C16.6742 155.944 16.3279 155.863 16.0043 155.968L16.0029 155.9L16.0035 154.936L16.9995 154.927Z" fill="#B87B21" fill-opacity="0.745098"/>
<path d="M0.99613 16.9656C1.30191 16.9655 1.69194 17.0965 1.99164 16.9534L1.99289 17.0415L1.99241 17.9805L0.996094 17.9809L0.99613 16.9656Z" fill="#B87B21" fill-opacity="0.898039"/>
<path d="M0.996094 49.9937L1.99207 49.9911L1.99225 51.0064H0.99613L0.996094 49.9937Z" fill="#DCA348" fill-opacity="0.882353"/>
<path d="M1.99193 112.935L1.99228 113.969H0.996125L0.996094 112.956C1.31203 112.958 1.68038 113.082 1.99193 112.935Z" fill="#D8A54F" fill-opacity="0.866667"/>
<path d="M0.996099 40.9785L1.99223 40.9831L1.992 41.9965C1.66697 41.9281 1.32239 41.9931 0.996094 41.9925L0.996099 40.9785Z" fill="#B87B21" fill-opacity="0.917647"/>
<path d="M1.9909 171.912L1.99268 171.954C1.99301 172.276 1.99253 172.655 1.99512 172.968L0.996119 172.966L0.996094 171.955L1.64651 171.963C1.73934 171.964 1.9058 172.03 1.9909 171.912Z" fill="#E5A039" fill-opacity="0.933333"/>
<path d="M16.0039 114.964L16.9998 114.974V115.98H16.004L16.0039 114.964Z" fill="#CC9339" fill-opacity="0.701961"/>
<path d="M1.99167 -0.0390625L1.99237 0.884716L1.99179 0.989104C1.68755 0.838959 1.30623 0.969915 0.996104 0.970844L0.996094 -0.0390625H1.99167Z" fill="#C4872B" fill-opacity="0.921569"/>
<path d="M17.0002 40.9857V41.9997C16.6712 41.9971 16.3323 41.94 16.004 42.019L16.0039 40.999L17.0002 40.9857Z" fill="#B87B21" fill-opacity="0.72549"/>
<path d="M16.0042 39.979L17.0002 39.9916V40.9857L16.0039 40.999L16.0042 39.979Z" fill="#B67C26" fill-opacity="0.788235"/>
<path d="M1.99169 105.969L1.99186 106.975L0.996114 106.978L0.996094 105.969H1.99169Z" fill="#DCA348" fill-opacity="0.866667"/>
<path d="M0.996094 114.97C1.32529 114.969 1.66381 115.015 1.99234 114.966L1.99218 115.977H0.996099L0.996094 114.97Z" fill="#C4872B" fill-opacity="0.905882"/>
<path d="M0.996145 89.9385C1.31388 89.9385 1.67816 89.8375 1.99258 89.9464L1.99239 90.9246C1.6811 91.0714 1.31187 90.9458 0.996094 90.9445L0.996145 89.9385Z" fill="#B87B21" fill-opacity="0.921569"/>
<path d="M16.0039 172.92H17.0002V173.924H16.0039V172.92Z" fill="#E5A039" fill-opacity="0.878431"/>
<path d="M0.996099 113.969H1.99226L1.99234 114.966C1.66381 115.015 1.32529 114.969 0.996094 114.97L0.996099 113.969Z" fill="#E5A039" fill-opacity="0.878431"/>
<path d="M16.0035 32.9851L16.9998 32.9924V33.9905L16.0042 33.9865L16.0029 33.9188L16.0035 32.9851Z" fill="#B87B21" fill-opacity="0.756863"/>
<path d="M16.0041 105.943L17.0002 105.956V106.947C16.6689 106.95 16.3349 106.981 16.0039 106.932L16.0041 105.943Z" fill="#B87B21" fill-opacity="0.717647"/>
<path d="M0.996114 170.955L1.67399 170.947C1.73322 170.947 1.94745 170.904 1.99169 170.991L1.9909 171.912C1.9058 172.03 1.73934 171.964 1.64651 171.963L0.996094 171.955L0.996114 170.955Z" fill="#B87B21" fill-opacity="0.941176"/>
<path d="M16.0039 89.9431L16.9999 89.9498V90.9445L16.0046 90.9392L16.0039 89.9431Z" fill="#B87B21" fill-opacity="0.713725"/>
<path d="M1.99245 121.96L1.99187 122.936C1.66372 123.014 1.32501 122.957 0.996094 122.954L0.99616 121.96L1.99245 121.96Z" fill="#B87B21" fill-opacity="0.878431"/>
<path d="M16.0031 91.9831H16.9996V92.9765H16.0029L16.0031 91.9831Z" fill="#CC9339" fill-opacity="0.756863"/>
<path d="M16.0046 113.979L16.9998 113.974V114.974L16.0039 114.964L16.0029 114.076L16.0046 113.979Z" fill="#B87B21" fill-opacity="0.717647"/>
<path d="M16.0039 88.9523L17.0001 88.955V89.9498L16.0041 89.9431L16.0039 88.9523Z" fill="#B67C26" fill-opacity="0.776471"/>
<path d="M0.996119 97.9776C1.31018 97.9776 1.68273 97.8654 1.9926 97.9869L1.99268 98.9704H0.996094L0.996119 97.9776Z" fill="#E5A039" fill-opacity="0.882353"/>
<path d="M16.9998 130.974V131.97H16.0039L16.004 130.985L16.9998 130.974Z" fill="#C4872B" fill-opacity="0.776471"/>
<path d="M16.004 65.9943L17 65.995V66.9831H16.0039L16.004 65.9943Z" fill="#B87B21" fill-opacity="0.670588"/>
<path d="M16.0039 52.0059L17.0003 52.0052V52.9913H16.0039V52.0059Z" fill="#CC9339" fill-opacity="0.772549"/>
<path d="M0.996145 146.974L1.99302 146.979L1.99276 147.96H0.996094L0.996145 146.974Z" fill="#E5A039" fill-opacity="0.882353"/>
<path d="M16.0039 66.9832H17V67.966L16.0044 67.9673L16.0039 66.9832Z" fill="#E5A039" fill-opacity="0.701961"/>
<path d="M16.0045 139.992L17 139.99V140.974H16.0039L16.0029 140.075L16.0045 139.992Z" fill="#CC9339" fill-opacity="0.733333"/>
<path d="M16.0039 6.99709L17.0001 6.99615V7.97193L16.004 7.97412L16.0039 6.99709Z" fill="#CC9339" fill-opacity="0.717647"/>
<path d="M16.0039 162.969L17.0002 162.963V163.94L16.0048 163.943L16.0039 162.969Z" fill="#B87B21" fill-opacity="0.709804"/>
<path d="M16.0039 81.979L17 81.9756V82.9478H16.004L16.0039 81.979Z" fill="#B87B21" fill-opacity="0.745098"/>
<path d="M0.996099 178.971H1.99248L1.99213 179.938H0.996094L0.996099 178.971Z" fill="#B67C26" fill-opacity="0.223529"/>
<path d="M16.0039 178.971L16.9999 178.97V179.938H16.004L16.0039 178.971Z" fill="#C4872B" fill-opacity="0.333333"/>
<path d="M16.0039 39.0195H17V39.9917L16.004 39.979L16.0039 39.0195Z" fill="#B67C26" fill-opacity="0.811765"/>
<path d="M0.996094 162.973C1.32294 162.974 1.66617 162.913 1.99187 162.979L1.99167 163.946C1.68183 163.826 1.31008 163.938 0.996099 163.937L0.996094 162.973Z" fill="#E5A039" fill-opacity="0.917647"/>
<path d="M0.996099 65.995L1.99242 65.9937L1.99171 66.9579H0.996094L0.996099 65.995Z" fill="#C4872B" fill-opacity="0.941176"/>
<path d="M1.99262 72.9942L1.99198 73.9425L0.996094 73.9471L0.996125 72.9942H1.99262Z" fill="#C4872B" fill-opacity="0.929412"/>
</g>
<defs>
<clipPath id="clip0_2093_9051">
<rect width="17" height="219.938" fill="white" transform="translate(0 -40)"/>
</clipPath>
</defs>
</svg>
