<svg width="98" height="70" viewBox="0 0 98 70" fill="none" xmlns="http://www.w3.org/2000/svg">
<g clip-path="url(#clip0_2093_11145)">
<path d="M35.0171 0.936249C38.133 1.05996 42.068 0.945135 45.2278 0.944431L69.0404 0.954473C69.037 2.81299 69.0459 4.67152 69.067 6.52993C70.9873 6.59634 72.8918 6.52621 74.7983 6.57757C74.7491 8.36329 74.7662 10.4875 74.812 12.278C76.6809 12.3516 78.5464 12.2658 80.3928 12.3281C80.3846 13.2548 80.334 17.2125 80.4708 17.9093L80.4147 18.0429C80.3204 19.7259 80.3942 21.9306 80.3908 23.6696L80.3874 34.9917L69.4847 34.9904C67.6593 34.99 65.6464 35.0331 63.8332 34.983C63.3322 35.0221 62.2939 34.9902 61.7599 34.9902L57.6983 34.9956C57.6894 36.7249 57.6252 38.9164 57.6965 40.6102C57.6971 42.5095 57.718 44.4454 57.6973 46.3415C57.6896 48.1449 57.6326 50.3005 57.7015 52.0875L57.7024 57.6986C57.6889 58.9252 57.6853 60.152 57.6916 61.3787C57.6923 61.9367 57.7187 62.9301 57.6618 63.4565C56.3572 63.3872 54.6772 63.4335 53.355 63.4324L45.3332 63.4288L35.0507 63.4292C33.1926 63.4303 31.1325 63.3941 29.2865 63.4521C29.2375 63.0895 29.2597 61.9539 29.2594 61.539L29.2638 57.6945C26.0514 57.6442 22.8248 57.7214 19.611 57.6963C19.0294 57.6918 18.4477 57.7127 17.8677 57.6609L17.7854 57.7162C17.7525 56.9382 17.8013 52.5902 17.6207 52.2145C17.3195 52.1211 16.9162 52.1298 16.5997 52.1328C15.2533 52.1455 13.9071 52.1807 12.5606 52.1446C12.5254 52.1715 12.4902 52.1985 12.4549 52.2255L12.3168 52.1614L12.2843 52.0937C12.2867 51.403 12.3852 47.0551 12.1529 46.7009C11.4361 46.5023 7.68963 46.569 6.71726 46.5746C6.73801 46.9623 6.7353 48.2424 6.67258 48.613C6.67295 48.3742 6.71405 47.9192 6.58493 47.7341C6.56976 47.3404 6.57536 46.9498 6.57791 46.556L6.56856 46.3457C6.5594 44.4266 6.5599 42.5076 6.57003 40.5885L6.56017 35.0325L6.53673 34.9813C6.77047 31.5044 6.36992 27.1208 6.60574 23.6408C6.89652 23.6641 7.22977 23.6654 7.52228 23.6599C9.06352 23.6314 10.6804 23.7327 12.2128 23.6191L12.3083 23.6494L17.908 23.6457L17.9038 17.9032L23.6438 17.8994L23.6368 12.331L23.5849 12.3007C23.7444 11.0821 23.6558 7.9733 23.6502 6.61002C24.9344 6.54613 26.365 6.57096 27.6598 6.56806L34.9903 6.55635C35.0463 4.72534 35.0177 2.7773 35.0171 0.936249Z" fill="#CDAB00"/>
<path d="M35.0172 0.936249C38.1331 1.05996 42.0681 0.945135 45.2279 0.944431L69.0405 0.954473C69.037 2.81299 69.0459 4.67152 69.0671 6.52993C70.9873 6.59634 72.8918 6.52621 74.7984 6.57757C74.7491 8.36329 74.7662 10.4875 74.812 12.278C76.681 12.3516 78.5465 12.2658 80.3929 12.3281C80.3847 13.2548 80.3341 17.2125 80.4708 17.9093L80.4148 18.0429C80.3204 19.7259 80.3943 21.9306 80.3909 23.6696L80.3874 34.9917L69.4848 34.9904C67.6593 34.99 65.6465 35.0331 63.8333 34.983C63.3323 35.0221 62.294 34.9902 61.76 34.9902L57.6984 34.9956L57.695 29.2523L51.9562 29.2535C51.9776 24.4821 51.8879 19.606 51.9687 14.8481C51.9464 14.0233 51.9579 13.1368 51.9531 12.3069C50.0841 12.2977 48.215 12.2993 46.3459 12.3115C45.3 12.2508 43.6468 12.3054 42.5636 12.3056L35.0023 12.3054L27.0847 12.3041C26.5313 12.3039 24.0022 12.2718 23.6368 12.331L23.585 12.3007C23.7445 11.0821 23.6559 7.9733 23.6503 6.61002C24.9344 6.54613 26.3651 6.57096 27.6599 6.56806L34.9904 6.55635C35.0464 4.72534 35.0177 2.7773 35.0172 0.936249Z" fill="#CCCCCC"/>
<path d="M35.0172 0.936249C38.1331 1.05996 42.0681 0.945135 45.2279 0.944431L69.0405 0.954473C69.037 2.81299 69.0459 4.67152 69.0671 6.52993C70.9873 6.59634 72.8918 6.52621 74.7984 6.57757C74.7491 8.36329 74.7662 10.4875 74.812 12.278C76.681 12.3516 78.5465 12.2658 80.3929 12.3281C80.3847 13.2548 80.3341 17.2125 80.4708 17.9093L80.4148 18.0429C80.3867 18.0154 80.3526 17.9824 80.3129 17.944C78.7325 17.8737 76.2647 17.9074 74.7868 17.9082L74.7833 12.3158L69.0384 12.312V6.57528C65.283 6.53254 61.4606 6.56828 57.6997 6.56789L57.706 12.3091L51.9531 12.3069C50.0841 12.2977 48.215 12.2993 46.3459 12.3115C45.3 12.2508 43.6468 12.3054 42.5636 12.3056L35.0023 12.3054L27.0847 12.3041C26.5313 12.3039 24.0022 12.2718 23.6368 12.331L23.585 12.3007C23.7445 11.0821 23.6559 7.9733 23.6503 6.61002C24.9344 6.54613 26.3651 6.57096 27.6599 6.56806L34.9904 6.55635C35.0464 4.72534 35.0177 2.7773 35.0172 0.936249Z" fill="black"/>
<path d="M35.002 6.57458L51.956 6.56616L51.9528 12.3069C50.0837 12.2977 48.2147 12.2993 46.3456 12.3115C45.2997 12.2508 43.6465 12.3054 42.5632 12.3057L35.002 12.3055L35.002 6.57458Z" fill="#FEDD67"/>
<path d="M51.968 14.8481C52.0621 15.0995 52.0186 17.4802 52.0153 17.9074C53.9095 17.913 55.8036 17.9082 57.6977 17.8927L57.6971 25.2492C57.6971 26.4526 57.7451 28.079 57.6754 29.2562C59.5089 29.2534 61.4933 29.296 63.31 29.2452C63.302 30.6679 63.2076 33.5426 63.3325 34.8506C63.5004 34.9956 63.6724 34.894 63.8326 34.9831C63.3317 35.0221 62.2933 34.9902 61.7593 34.9902L57.6977 34.9956L57.6943 29.2523L51.9556 29.2535C51.977 24.4821 51.8872 19.606 51.968 14.8481Z" fill="#AABADC"/>
<path d="M69.0494 17.9052L74.7868 17.9082L74.7882 29.26L69.0371 29.2651C69.0932 25.5237 69.0296 21.6608 69.0494 17.9052Z" fill="black"/>
<path d="M40.6086 46.3455L46.3488 46.3427C48.1297 46.3427 50.1969 46.2906 51.9538 46.3524C53.7979 46.3533 55.8629 46.3973 57.6968 46.3415C57.689 48.1449 57.632 50.3005 57.7009 52.0874L57.7018 57.6986C57.6884 58.9252 57.6848 60.152 57.6911 61.3786C57.6918 61.9367 57.7182 62.9301 57.6613 63.4565C56.3567 63.3872 54.6767 63.4335 53.3545 63.4324L45.3327 63.4288L35.0502 63.4292C33.1921 63.4302 31.132 63.3941 29.286 63.4521C29.237 63.0895 29.2592 61.9539 29.2589 61.539L29.2632 57.6945C26.0508 57.6442 22.8243 57.7214 19.6105 57.6963C19.0288 57.6918 18.4471 57.7127 17.8672 57.6608C18.0396 56.8911 17.9068 53.1276 17.9051 52.0954L35.0126 52.092L35.0024 46.3515L40.6086 46.3455Z" fill="#E43909"/>
<path d="M57.6971 46.3415C57.6894 48.1449 57.6324 50.3005 57.7013 52.0874C55.8195 52.0548 53.8429 52.0858 51.9531 52.0854C51.9865 50.2105 51.9544 48.2355 51.9542 46.3524C53.7982 46.3533 55.8632 46.3973 57.6971 46.3415Z" fill="#E43909"/>
<path d="M51.9535 52.0854C53.8433 52.0858 55.8199 52.0548 57.7017 52.0875L57.7026 57.6986C55.8469 57.7423 53.8213 57.707 51.9519 57.7024C51.9413 55.8301 51.9418 53.9577 51.9535 52.0854Z" fill="black"/>
<path d="M46.3496 46.3427C48.1304 46.3427 50.1977 46.2906 51.9546 46.3524C51.9548 48.2355 51.9869 50.2105 51.9536 52.0854C50.095 52.1097 48.2076 52.093 46.3467 52.0915L46.3496 46.3427Z" fill="black"/>
<path d="M6.55957 35.0325C6.90269 34.9738 8.70936 34.9985 9.16204 34.9989L14.7424 35.0046L34.9985 35.0053L34.9987 40.5915C34.9962 42.4678 34.9562 44.4868 35.0024 46.3516L35.0125 52.092L17.905 52.0954C17.9068 53.1276 18.0395 56.8911 17.8671 57.6609L17.7848 57.7162C17.7519 56.9382 17.8008 52.5902 17.6201 52.2145C17.3189 52.1211 16.9156 52.1298 16.5991 52.1328C15.2527 52.1455 13.9065 52.1807 12.56 52.1446C12.5248 52.1715 12.4896 52.1985 12.4543 52.2255L12.3162 52.1614L12.2837 52.0937C12.2861 51.403 12.3846 47.0551 12.1524 46.7009C11.4355 46.5023 7.68903 46.569 6.71666 46.5746C6.73741 46.9623 6.73471 48.2424 6.67199 48.613C6.67235 48.3742 6.71345 47.9192 6.58433 47.7341C6.56916 47.3404 6.57477 46.9498 6.57731 46.556L6.56796 46.3457C6.5588 44.4266 6.5593 42.5076 6.56943 40.5885L6.55957 35.0325Z" fill="#FEDD67"/>
<path d="M6.56836 46.3457C8.48814 46.3561 10.408 46.3557 12.3278 46.3445L29.2463 46.3425C31.1651 46.3352 33.0839 46.3383 35.0028 46.3516L35.0129 52.092L17.9054 52.0955C17.9072 53.1276 18.0399 56.8911 17.8675 57.6609L17.7852 57.7162C17.7523 56.9382 17.8012 52.5902 17.6205 52.2145C17.3193 52.1211 16.916 52.1298 16.5995 52.1328C15.2531 52.1455 13.9069 52.1807 12.5604 52.1446C12.5252 52.1715 12.49 52.1985 12.4547 52.2255L12.3166 52.1614L12.2841 52.0937C12.2865 51.4031 12.385 47.0551 12.1528 46.701C11.4359 46.5023 7.68943 46.569 6.71706 46.5746C6.73781 46.9624 6.73511 48.2425 6.67239 48.613C6.67275 48.3742 6.71386 47.9193 6.58473 47.7341C6.56956 47.3405 6.57517 46.9498 6.57771 46.556L6.56836 46.3457Z" fill="black"/>
<path d="M6.56951 40.5885C8.48133 40.6093 10.3933 40.6125 12.3052 40.5981C12.3035 42.4512 12.2611 44.5081 12.3275 46.3445C10.4077 46.3556 8.48782 46.356 6.56804 46.3457C6.55888 44.4266 6.55938 42.5076 6.56951 40.5885Z" fill="#CDAB00"/>
<path d="M34.9989 40.5915C34.9964 42.4678 34.9564 44.4868 35.0026 46.3516C33.0837 46.3383 31.1649 46.3352 29.2461 46.3425C29.2902 44.4689 29.2585 42.4778 29.2595 40.5953C31.1726 40.6076 33.0858 40.6063 34.9989 40.5915Z" fill="#CDAB00"/>
<path d="M6.60574 23.6408C6.89652 23.6641 7.22977 23.6654 7.52228 23.6599C9.06352 23.6313 10.6804 23.7327 12.2128 23.6191L12.3083 23.6494L12.3087 27.3984C12.3071 27.8647 12.3294 28.8429 12.2777 29.2596L35.0023 29.2549L34.9991 35.0053L14.7429 35.0046L9.16264 34.9989C8.70996 34.9985 6.90329 34.9738 6.56017 35.0325L6.53673 34.9813C6.77047 31.5044 6.36992 27.1207 6.60574 23.6408Z" fill="black"/>
<path d="M12.2125 23.6191L12.308 23.6494L12.3085 27.3984C12.3068 27.8647 12.3291 28.8429 12.2774 29.2596C12.0169 28.8247 12.0052 24.1365 12.2125 23.6191Z" fill="black"/>
<path d="M23.6363 12.331C24.0017 12.2718 26.5308 12.3039 27.0841 12.3041L35.0018 12.3054C35.001 14.1405 34.9671 16.0792 35.0026 17.9052C31.2432 17.9056 27.3996 17.9499 23.6478 17.9054L23.6558 23.6499C21.7531 23.6486 19.8061 23.67 17.9075 23.6457L17.9033 17.9032L23.6433 17.8994L23.6363 12.331Z" fill="#FEDD67"/>
<path d="M46.3457 12.3115C48.2148 12.2993 50.0839 12.2977 51.9529 12.3069C51.9577 13.1368 51.9462 14.0233 51.9685 14.8481C51.8877 19.606 51.9774 24.4821 51.956 29.2535C50.2107 29.318 48.1208 29.2666 46.3479 29.2702L46.3457 12.3115Z" fill="black"/>
<path d="M34.9987 35.0053L40.6096 34.9967L40.6087 46.3455L35.0026 46.3515C34.9564 44.4868 34.9964 42.4678 34.9989 40.5914L34.9987 35.0053Z" fill="black"/>
<path d="M51.9536 40.6017C53.868 40.5934 55.7824 40.5962 57.6968 40.6102C57.6974 42.5095 57.7183 44.4453 57.6976 46.3415C55.8637 46.3973 53.7987 46.3533 51.9546 46.3524C51.9251 44.4555 51.9503 42.5028 51.9536 40.6017Z" fill="black"/>
<path d="M51.9562 29.2535L57.695 29.2523L57.6984 34.9956L51.9531 35.0083L51.9562 29.2535Z" fill="black"/>
<path d="M80.4706 17.9093C82.2596 17.9232 84.3431 17.9769 86.1225 17.9076L86.1376 34.9944C86.2059 35.3506 86.1588 35.8166 86.1718 36.1823C86.2121 37.3361 86.0111 39.1749 86.2388 40.2467C87.7235 40.4178 90.179 40.5608 91.6125 40.2514L91.7424 40.4705L91.7301 40.5558L91.7239 40.5958L57.6963 40.6102C57.625 38.9164 57.6893 36.7249 57.6982 34.9956L61.7597 34.9902C62.2938 34.9902 63.3321 35.0221 63.833 34.9831C65.6462 35.0331 67.6591 34.99 69.4846 34.9904L80.3872 34.9917L80.3906 23.6696C80.394 21.9306 80.3202 19.7259 80.4145 18.0429L80.4706 17.9093Z" fill="black" fill-opacity="0.988235"/>
<path d="M91.7406 46.3305L91.7857 46.3407C91.6921 46.9075 91.7153 48.2029 91.7153 48.817V52.984L91.7146 55.9767C91.7126 56.4229 91.6798 57.287 91.7324 57.6986C90.9709 57.695 86.4059 57.5639 86.1598 57.8371C86.1529 57.8448 86.1481 57.8542 86.142 57.8627L86.1331 57.701L86.1379 52.0826C82.0288 52.1395 77.7987 52.0924 73.6821 52.0934L57.7016 52.0875C57.6327 50.3005 57.6897 48.1449 57.6974 46.3415L81.4566 46.346L88.3015 46.355C89.0671 46.357 91.0789 46.4101 91.7406 46.3305Z" fill="black" fill-opacity="0.984314"/>
<path d="M57.6963 40.6102L91.7239 40.5958C91.8059 42.3432 91.7444 44.5522 91.7403 46.3305C91.0786 46.4101 89.0667 46.3569 88.3011 46.355L81.4563 46.346L57.6971 46.3415C57.7178 44.4453 57.6969 42.5095 57.6963 40.6102Z" fill="#E43909"/>
<path d="M57.7012 52.0875L73.6817 52.0934C77.7983 52.0924 82.0284 52.1396 86.1374 52.0826L86.1327 57.701L57.7021 57.6986L57.7012 52.0875Z" fill="#E43909"/>
<path d="M86.1332 57.701L86.1421 57.8626L86.1401 58.0994C86.0389 58.0201 85.8243 57.8614 85.7039 57.8603C84.3771 57.849 81.6844 57.7457 80.4868 57.8778C80.3637 59.3577 80.4321 61.7223 80.4362 63.2693C81.7056 63.3282 83.0202 63.3149 84.2971 63.3354C83.6901 63.3381 80.7629 63.2818 80.35 63.4256C78.3656 63.565 58.087 63.2854 57.7271 63.5414L57.6621 63.4565C57.719 62.9301 57.6926 61.9367 57.6919 61.3786C57.6856 60.152 57.6892 58.9252 57.7026 57.6986L86.1332 57.701Z" fill="black" fill-opacity="0.988235"/>
<path d="M57.6615 63.4565L57.7264 63.5414L57.7163 63.6477C57.406 63.6764 57.0654 63.5817 56.7844 63.6058C55.7458 63.6949 53.0729 63.383 52.1717 63.6715C51.7268 64.2024 52.18 68.6834 51.9561 69.0477C49.9289 69.166 47.5247 69.0874 45.4663 69.099C42.499 69.1147 39.5101 69.1052 36.5417 69.0942C34.2433 69.0867 31.555 68.911 29.2849 69.0669L29.251 63.5437L29.2862 63.4521C31.1322 63.3941 33.1922 63.4302 35.0504 63.4292L45.3329 63.4288L53.3546 63.4324C54.6768 63.4335 56.3568 63.3872 57.6615 63.4565Z" fill="black" fill-opacity="0.988235"/>
<path d="M17.7852 57.7162L17.8675 57.6609C18.4475 57.7127 19.0292 57.6918 19.6108 57.6963C22.8246 57.7214 26.0512 57.6442 29.2636 57.6945L29.2592 61.539C29.2596 61.9539 29.2373 63.0895 29.2863 63.4521L29.2511 63.5437C28.5029 63.3922 26.5022 63.4556 25.5995 63.4519C23.0364 63.4322 20.4732 63.4276 17.91 63.4379C17.9423 62.7666 17.953 58.0053 17.7852 57.7162Z" fill="black" fill-opacity="0.964706"/>
<path d="M6.53654 34.9813L6.55998 35.0325L6.56985 40.5885C6.55971 42.5076 6.55922 44.4266 6.56837 46.3457L6.57772 46.556C6.2246 46.1772 1.61344 46.3243 0.847639 46.3754C0.788338 43.6424 0.861263 40.8862 0.826428 38.1509C0.813152 37.1087 0.817336 36.0474 0.849068 35.0065C2.54487 35.0321 4.8844 35.0677 6.53654 34.9813Z" fill="black" fill-opacity="0.976471"/>
<path d="M91.7298 40.5558C93.2583 40.7333 95.8136 40.5738 97.4706 40.6349C97.3865 42.5216 97.4938 44.4594 97.4063 46.3699C96.1103 46.3122 94.8142 46.354 93.5188 46.3508C93.1332 46.3499 92.1174 46.3992 91.7851 46.3407L91.74 46.3305C91.7441 44.5522 91.8057 42.3432 91.7236 40.5958L91.7298 40.5558Z" fill="black" fill-opacity="0.972549"/>
<path d="M17.8601 17.8668L17.9039 17.9033L17.9081 23.6457L12.3084 23.6494L12.2129 23.6191C12.4033 23.3654 12.3249 18.5481 12.3251 17.8977C12.8544 17.9597 17.356 17.9592 17.8601 17.8668Z" fill="#010000" fill-opacity="0.937255"/>
<path d="M80.4863 57.8778C81.684 57.7458 84.3767 57.8491 85.7035 57.8603C85.8238 57.8614 86.0385 58.0201 86.1396 58.0995C86.1157 59.8788 86.1123 61.6584 86.128 63.4379C84.2796 63.424 82.1509 63.491 80.3496 63.4256C80.7625 63.2818 83.6896 63.3381 84.2967 63.3354C83.0197 63.3149 81.7052 63.3283 80.4357 63.2693C80.4316 61.7224 80.3633 59.3577 80.4863 57.8778Z" fill="#010000" fill-opacity="0.847059"/>
<path d="M6.71714 46.5746C7.68951 46.569 11.436 46.5023 12.1528 46.7009C12.3851 47.0551 12.2866 51.403 12.2842 52.0937C11.0966 52.0618 7.71733 52.0129 6.58964 52.1164C6.57216 50.6557 6.57054 49.1948 6.58481 47.734C6.71393 47.9192 6.67283 48.3742 6.67247 48.613C6.73519 48.2424 6.73789 46.9623 6.71714 46.5746Z" fill="black" fill-opacity="0.933333"/>
<path d="M51.9561 69.0477C52.18 68.6834 51.7268 64.2024 52.1717 63.6715C53.0729 63.383 55.7458 63.6949 56.7844 63.6058C57.0654 63.5817 57.406 63.6764 57.7163 63.6477C57.6422 65.4122 57.7574 67.3299 57.6562 69.0266C55.7933 69.0163 53.8145 68.989 51.9561 69.0477Z" fill="black" fill-opacity="0.870588"/>
<path d="M23.5843 12.3007L23.6362 12.331L23.6432 17.8994L17.9032 17.9032L17.8594 17.8668C18.0197 16.1751 17.7647 14.0995 17.929 12.4524C18.0529 12.3162 18.0984 12.3521 18.3205 12.324L18.2405 12.47C18.5405 12.6737 22.1684 12.5973 22.929 12.6434C23.071 12.568 23.126 12.5471 23.2423 12.4387L23.2017 12.3788C22.9192 12.3631 22.5321 12.4652 22.3712 12.329C22.7756 12.3236 23.18 12.3141 23.5843 12.3007Z" fill="black" fill-opacity="0.890196"/>
<path d="M12.3169 52.1613L12.455 52.2255C12.4903 52.1985 12.5255 52.1715 12.5608 52.1446C13.9072 52.1807 15.2534 52.1455 16.5998 52.1328C16.9163 52.1298 17.3196 52.1211 17.6208 52.2145C17.8015 52.5902 17.7526 56.9382 17.7855 57.7162C16.1782 57.6402 13.9597 57.6683 12.3333 57.7052C12.3146 55.8573 12.3091 54.0093 12.3169 52.1613Z" fill="black" fill-opacity="0.917647"/>
<path d="M86.1374 34.9944C87.9858 35.0777 89.8917 34.9826 91.7394 35.0291C91.656 36.6444 91.7162 38.8207 91.7421 40.4705L91.6123 40.2514C90.1788 40.5608 87.7233 40.4177 86.2385 40.2466C86.0109 39.1749 86.2119 37.3361 86.1715 36.1823C86.1585 35.8166 86.2057 35.3506 86.1374 34.9944Z" fill="black" fill-opacity="0.905882"/>
<path d="M18.3213 12.324C19.6228 12.3237 21.084 12.2894 22.3719 12.329C22.5329 12.4652 22.9199 12.3631 23.2025 12.3788L23.243 12.4387C23.1267 12.5471 23.0718 12.568 22.9297 12.6434C22.1691 12.5973 18.5412 12.6737 18.2412 12.47L18.3213 12.324Z" fill="black" fill-opacity="0.933333"/>
</g>
<defs>
<clipPath id="clip0_2093_11145">
<rect width="97.8906" height="70" fill="white"/>
</clipPath>
</defs>
</svg>
