<svg width="895" height="455" viewBox="0 0 895 455" fill="none" xmlns="http://www.w3.org/2000/svg">
<g filter="url(#filter0_d_2093_11189)">
<path d="M2.5 10.5C2.5 6.08172 6.08172 2.5 10.5 2.5H876.5C880.918 2.5 884.5 6.08172 884.5 10.5V433.5C884.5 437.918 880.918 441.5 876.5 441.5H10.5C6.08171 441.5 2.5 437.918 2.5 433.5V10.5Z" fill="#C8590C"/>
<path d="M876.5 1.25C881.609 1.25 885.75 5.39137 885.75 10.5V433.5C885.75 438.609 881.609 442.75 876.5 442.75H10.5C5.39136 442.75 1.25 438.609 1.25 433.5V10.5C1.25 5.39137 5.39137 1.25 10.5 1.25H876.5Z" stroke="#D4B3C8" stroke-width="2.5"/>
</g>
<g filter="url(#filter1_d_2093_11189)">
<path d="M29.5 29C29.5 32.0376 27.0376 34.5 24 34.5C20.9624 34.5 18.5 32.0376 18.5 29C18.5 25.9624 20.9624 23.5 24 23.5C27.0376 23.5 29.5 25.9624 29.5 29Z" fill="#F8BEB3"/>
</g>
<g filter="url(#filter2_d_2093_11189)">
<path d="M27.5 423C27.5 426.038 25.0376 428.5 22 428.5C18.9624 428.5 16.5 426.038 16.5 423C16.5 419.962 18.9624 417.5 22 417.5C25.0376 417.5 27.5 419.962 27.5 423Z" fill="#F8BEB3"/>
</g>
<g filter="url(#filter3_d_2093_11189)">
<path d="M873.5 423C873.5 426.038 871.038 428.5 868 428.5C864.962 428.5 862.5 426.038 862.5 423C862.5 419.962 864.962 417.5 868 417.5C871.038 417.5 873.5 419.962 873.5 423Z" fill="#F8BEB3"/>
</g>
<g filter="url(#filter4_d_2093_11189)">
<path d="M873.5 34C873.5 37.0376 871.038 39.5 868 39.5C864.962 39.5 862.5 37.0376 862.5 34C862.5 30.9624 864.962 28.5 868 28.5C871.038 28.5 873.5 30.9624 873.5 34Z" fill="#F8BEB3"/>
</g>
<defs>
<filter id="filter0_d_2093_11189" x="0" y="0" width="895" height="455" filterUnits="userSpaceOnUse" color-interpolation-filters="sRGB">
<feFlood flood-opacity="0" result="BackgroundImageFix"/>
<feColorMatrix in="SourceAlpha" type="matrix" values="0 0 0 0 0 0 0 0 0 0 0 0 0 0 0 0 0 0 127 0" result="hardAlpha"/>
<feOffset dx="4" dy="7"/>
<feGaussianBlur stdDeviation="2"/>
<feComposite in2="hardAlpha" operator="out"/>
<feColorMatrix type="matrix" values="0 0 0 0 0 0 0 0 0 0 0 0 0 0 0 0 0 0 1 0"/>
<feBlend mode="normal" in2="BackgroundImageFix" result="effect1_dropShadow_2093_11189"/>
<feBlend mode="normal" in="SourceGraphic" in2="effect1_dropShadow_2093_11189" result="shape"/>
</filter>
<filter id="filter1_d_2093_11189" x="18.5" y="23.5" width="19" height="19" filterUnits="userSpaceOnUse" color-interpolation-filters="sRGB">
<feFlood flood-opacity="0" result="BackgroundImageFix"/>
<feColorMatrix in="SourceAlpha" type="matrix" values="0 0 0 0 0 0 0 0 0 0 0 0 0 0 0 0 0 0 127 0" result="hardAlpha"/>
<feOffset dx="4" dy="4"/>
<feGaussianBlur stdDeviation="2"/>
<feComposite in2="hardAlpha" operator="out"/>
<feColorMatrix type="matrix" values="0 0 0 0 0 0 0 0 0 0 0 0 0 0 0 0 0 0 0.65 0"/>
<feBlend mode="normal" in2="BackgroundImageFix" result="effect1_dropShadow_2093_11189"/>
<feBlend mode="normal" in="SourceGraphic" in2="effect1_dropShadow_2093_11189" result="shape"/>
</filter>
<filter id="filter2_d_2093_11189" x="16.5" y="417.5" width="19" height="19" filterUnits="userSpaceOnUse" color-interpolation-filters="sRGB">
<feFlood flood-opacity="0" result="BackgroundImageFix"/>
<feColorMatrix in="SourceAlpha" type="matrix" values="0 0 0 0 0 0 0 0 0 0 0 0 0 0 0 0 0 0 127 0" result="hardAlpha"/>
<feOffset dx="4" dy="4"/>
<feGaussianBlur stdDeviation="2"/>
<feComposite in2="hardAlpha" operator="out"/>
<feColorMatrix type="matrix" values="0 0 0 0 0 0 0 0 0 0 0 0 0 0 0 0 0 0 0.65 0"/>
<feBlend mode="normal" in2="BackgroundImageFix" result="effect1_dropShadow_2093_11189"/>
<feBlend mode="normal" in="SourceGraphic" in2="effect1_dropShadow_2093_11189" result="shape"/>
</filter>
<filter id="filter3_d_2093_11189" x="862.5" y="417.5" width="19" height="19" filterUnits="userSpaceOnUse" color-interpolation-filters="sRGB">
<feFlood flood-opacity="0" result="BackgroundImageFix"/>
<feColorMatrix in="SourceAlpha" type="matrix" values="0 0 0 0 0 0 0 0 0 0 0 0 0 0 0 0 0 0 127 0" result="hardAlpha"/>
<feOffset dx="4" dy="4"/>
<feGaussianBlur stdDeviation="2"/>
<feComposite in2="hardAlpha" operator="out"/>
<feColorMatrix type="matrix" values="0 0 0 0 0 0 0 0 0 0 0 0 0 0 0 0 0 0 0.65 0"/>
<feBlend mode="normal" in2="BackgroundImageFix" result="effect1_dropShadow_2093_11189"/>
<feBlend mode="normal" in="SourceGraphic" in2="effect1_dropShadow_2093_11189" result="shape"/>
</filter>
<filter id="filter4_d_2093_11189" x="862.5" y="28.5" width="19" height="19" filterUnits="userSpaceOnUse" color-interpolation-filters="sRGB">
<feFlood flood-opacity="0" result="BackgroundImageFix"/>
<feColorMatrix in="SourceAlpha" type="matrix" values="0 0 0 0 0 0 0 0 0 0 0 0 0 0 0 0 0 0 127 0" result="hardAlpha"/>
<feOffset dx="4" dy="4"/>
<feGaussianBlur stdDeviation="2"/>
<feComposite in2="hardAlpha" operator="out"/>
<feColorMatrix type="matrix" values="0 0 0 0 0 0 0 0 0 0 0 0 0 0 0 0 0 0 0.65 0"/>
<feBlend mode="normal" in2="BackgroundImageFix" result="effect1_dropShadow_2093_11189"/>
<feBlend mode="normal" in="SourceGraphic" in2="effect1_dropShadow_2093_11189" result="shape"/>
</filter>
</defs>
</svg>
