<svg width="70" height="74" viewBox="0 0 70 74" fill="none" xmlns="http://www.w3.org/2000/svg">
<rect y="34" width="5" height="40" fill="#D20F12"/>
<rect x="5" y="17" width="5" height="49" fill="#D20F12"/>
<rect x="10" y="12" width="5" height="46" fill="#D20F12"/>
<rect x="15" y="6" width="5" height="56" fill="#D20F12"/>
<rect x="20" y="6" width="5" height="67" fill="#D20F12"/>
<rect x="25" width="5" height="73" fill="#D20F12"/>
<rect x="30" width="10" height="58" fill="#D20F12"/>
<rect width="5" height="40" transform="matrix(-1 0 0 1 70 34)" fill="#D20F12"/>
<rect width="5" height="49" transform="matrix(-1 0 0 1 65 17)" fill="#D20F12"/>
<rect width="5" height="46" transform="matrix(-1 0 0 1 60 12)" fill="#D20F12"/>
<rect width="5" height="56" transform="matrix(-1 0 0 1 55 6)" fill="#D20F12"/>
<rect width="5" height="67" transform="matrix(-1 0 0 1 50 6)" fill="#D20F12"/>
<rect width="5" height="73" transform="matrix(-1 0 0 1 45 0)" fill="#D20F12"/>
<rect x="5" y="25" width="5" height="11" fill="#D9D9D9"/>
<rect x="20" y="25" width="5" height="11" fill="#D9D9D9"/>
<rect x="10" y="20" width="10" height="21" fill="#D9D9D9"/>
<rect x="5" y="27" width="9" height="9" fill="#2026B8"/>
<rect x="38" y="25" width="5" height="11" fill="#D9D9D9"/>
<rect x="53" y="25" width="5" height="11" fill="#D9D9D9"/>
<rect x="43" y="20" width="10" height="21" fill="#D9D9D9"/>
<rect x="38" y="27" width="9" height="9" fill="#2026B8"/>
</svg>
