<svg width="287" height="318" viewBox="0 0 287 318" fill="none" xmlns="http://www.w3.org/2000/svg">
<rect width="9" height="18" transform="matrix(-0.766044 -0.642788 -0.642788 0.766044 213.232 252.558)" fill="black"/>
<rect width="8.98876" height="43.1186" transform="matrix(-0.766044 -0.642788 -0.642788 0.766044 211.521 240.613)" fill="black"/>
<rect width="11.2286" height="17.0678" transform="matrix(-0.766044 -0.642788 -0.642788 0.766044 198.861 241.716)" fill="black"/>
<path d="M169.15 246.928L161.242 240.291L150.271 253.366L158.179 260.002L169.15 246.928Z" fill="black"/>
<rect width="36.8539" height="9.88135" transform="matrix(-0.766044 -0.642788 -0.642788 0.766044 156.951 251.11)" fill="black"/>
<rect width="36.8539" height="9.88135" transform="matrix(-0.766044 -0.642788 -0.642788 0.766044 210.066 238.971)" fill="black"/>
<rect width="36.8539" height="9.88135" transform="matrix(-0.766044 -0.642788 -0.642788 0.766044 192.816 210.346)" fill="black"/>
<rect width="10.0517" height="18" transform="matrix(-0.766044 -0.642788 -0.642788 0.766044 140.451 214.918)" fill="black"/>
<rect width="19.7753" height="17.9661" transform="matrix(-0.766044 -0.642788 -0.642788 0.766044 120.225 180.901)" fill="black"/>
<rect width="19.7753" height="17.9661" transform="matrix(-0.766044 -0.642788 -0.642788 0.766044 136.633 170.911)" fill="black"/>
<rect width="19.7753" height="17.9661" transform="matrix(-0.766044 -0.642788 -0.642788 0.766044 121.854 167.66)" fill="black"/>
<rect width="26.0674" height="8.98304" transform="matrix(-0.766044 -0.642788 -0.642788 0.766044 104.838 173.375)" fill="black"/>
<rect width="8.98876" height="17.9661" transform="matrix(-0.766044 -0.642788 -0.642788 0.766044 92.8672 175.056)" fill="black"/>
<rect width="9" height="10" transform="matrix(-0.766044 -0.642788 -0.642788 0.766044 97.5605 155.497)" fill="black"/>
<rect width="8.98876" height="8.98304" transform="matrix(-0.766044 -0.642788 -0.642788 0.766044 104.416 161.294)" fill="black"/>
<rect width="8.98876" height="8.98304" transform="matrix(-0.766044 -0.642788 -0.642788 0.766044 88.7812 193.909)" fill="black"/>
<rect width="8.98876" height="9.96727" transform="matrix(-0.766044 -0.642788 -0.642788 0.766044 177.553 267.112)" fill="black"/>
<rect width="8.98876" height="8.98304" transform="matrix(-0.766044 -0.642788 -0.642788 0.766044 89.8945 206.568)" fill="black"/>
<rect width="8.98876" height="8.98304" transform="matrix(-0.766044 -0.642788 -0.642788 0.766044 164.26 268.969)" fill="black"/>
<rect width="17.9775" height="8.98304" transform="matrix(-0.766044 -0.642788 -0.642788 0.766044 97.8906 225.005)" fill="black"/>
<rect width="17.9775" height="8.98304" transform="matrix(-0.766044 -0.642788 -0.642788 0.766044 151.6 270.073)" fill="black"/>
<rect width="52.1348" height="8.98304" transform="matrix(-0.766044 -0.642788 -0.642788 0.766044 132.055 265.399)" fill="black"/>
<rect width="29.0698" height="17.9661" transform="matrix(-0.766044 -0.642788 -0.642788 0.766044 132.805 208.568)" fill="black"/>
<rect width="38.5793" height="17.9661" transform="matrix(-0.766044 -0.642788 -0.642788 0.766044 167.951 189.154)" fill="black"/>
<rect width="28.1226" height="9.21666" transform="matrix(-0.766044 -0.642788 -0.642788 0.766044 192.902 261.472)" fill="black"/>
<rect width="12.3809" height="15.7959" transform="matrix(-0.766044 -0.642788 -0.642788 0.766044 193.838 216.866)" fill="black"/>
<rect width="52.1348" height="8.98304" transform="matrix(-0.984808 0.173648 0.173648 0.984808 166.611 56.7571)" fill="black"/>
<rect width="17.9775" height="8.98304" transform="matrix(-0.984808 0.173648 0.173648 0.984808 185.875 62.4818)" fill="black"/>
<rect width="9.96206" height="9.88135" transform="matrix(-0.984808 0.173648 0.173648 0.984808 196.131 68.8829)" fill="black"/>
<rect width="8.98876" height="9.88135" transform="matrix(-0.984808 0.173648 0.173648 0.984808 206.543 76.1686)" fill="black"/>
<rect width="10.2249" height="17.9661" transform="matrix(-0.984808 0.173648 0.173648 0.984808 216.955 83.4542)" fill="black"/>
<rect width="10.0505" height="48" transform="matrix(-0.984808 0.173648 0.173648 0.984808 228.928 99.5865)" fill="black"/>
<rect width="8.98876" height="17.0678" transform="matrix(-0.984808 0.173648 0.173648 0.984808 217.463 138.095)" fill="black"/>
<rect width="8.98876" height="17.0678" transform="matrix(-0.984808 0.173648 0.173648 0.984808 210.17 148.502)" fill="black"/>
<rect width="36.8539" height="9.88135" transform="matrix(-0.984808 0.173648 0.173648 0.984808 191.635 141.736)" fill="black"/>
<rect width="36.8539" height="9.88135" transform="matrix(-0.984808 0.173648 0.173648 0.984808 197.719 176.238)" fill="black"/>
<rect width="8.98876" height="26.9491" transform="matrix(-0.984808 0.173648 0.173648 0.984808 156.902 156.983)" fill="black"/>
<rect width="19.7753" height="17.9661" transform="matrix(-0.984808 0.173648 0.173648 0.984808 124.148 162.758)" fill="black"/>
<rect width="26.0674" height="8.98304" transform="matrix(-0.984808 0.173648 0.173648 0.984808 104.674 166.192)" fill="black"/>
<rect width="8.98876" height="44.9152" transform="matrix(-0.984808 0.173648 0.173648 0.984808 80.2109 125.809)" fill="black"/>
<rect width="8.98876" height="8.98304" transform="matrix(-0.984808 0.173648 0.173648 0.984808 95.1465 158.75)" fill="black"/>
<rect width="8.98876" height="30" transform="matrix(-0.984808 0.173648 0.173648 0.984808 223.838 124.446)" fill="black"/>
<rect width="8.98876" height="18.8644" transform="matrix(-0.984808 0.173648 0.173648 0.984808 85.9433 106.555)" fill="black"/>
<rect width="9.44152" height="9.88135" transform="matrix(-0.984808 0.173648 0.173648 0.984808 93.6816 96.0693)" fill="black"/>
<rect width="8.98876" height="9.88135" transform="matrix(-0.984808 0.173648 0.173648 0.984808 100.527 85.7404)" fill="black"/>
<rect width="17.9775" height="9.88135" transform="matrix(-0.984808 0.173648 0.173648 0.984808 116.672 73.7721)" fill="black"/>
<rect width="26.0674" height="17.9661" transform="matrix(-0.984808 0.173648 0.173648 0.984808 149.609 167.39)" fill="black"/>
<rect width="9.88764" height="32.0453" transform="matrix(-0.984808 0.173648 0.173648 0.984808 201.162 144.004)" fill="black"/>
<rect x="156.451" y="157.142" width="37.3962" height="26.0508" transform="rotate(-10 156.451 157.142)" fill="white"/>
<rect x="156.451" y="157.142" width="7.47924" height="7.18644" transform="rotate(-10 156.451 157.142)" fill="#636363"/>
<rect x="185.914" y="151.947" width="7.47924" height="7.18644" transform="rotate(-10 185.914 151.947)" fill="#636363"/>
<rect x="189.189" y="170.524" width="7.47924" height="7.18644" transform="rotate(-10 189.189 170.524)" fill="#636363"/>
<rect x="159.727" y="175.719" width="7.47924" height="7.18644" transform="rotate(-10 159.727 175.719)" fill="#636363"/>
<g filter="url(#filter0_d_2184_2673)">
<rect x="167.916" y="162.709" width="16.7852" height="11.4553" transform="rotate(-10 167.916 162.709)" fill="#F0E2C4"/>
</g>
<rect width="8.98876" height="20.3946" transform="matrix(-0.984808 0.173648 0.173648 0.984808 147.184 148.348)" fill="#02004D"/>
<rect width="8.08989" height="27.4098" transform="matrix(-0.984808 0.173648 0.173648 0.984808 136.928 141.947)" fill="#02004D"/>
<rect width="8.98876" height="37.8024" transform="matrix(-0.984808 0.173648 0.173648 0.984808 125.84 125.659)" fill="#02004D"/>
<rect width="8.98876" height="64.4657" transform="matrix(-0.984808 0.173648 0.173648 0.984808 112.309 100.68)" fill="#02004D"/>
<rect width="8.77658" height="70.0677" transform="matrix(-0.984808 0.173648 0.173648 0.984808 101.883 93.3967)" fill="#02004D"/>
<rect width="9.82702" height="61.0847" transform="matrix(-0.984808 0.173648 0.173648 0.984808 95.4766 103.648)" fill="#02004D"/>
<rect width="10.2955" height="34.1356" transform="matrix(-0.984808 0.173648 0.173648 0.984808 89.7441 122.902)" fill="#02004D"/>
<rect width="7.19101" height="8.98304" transform="matrix(-0.984808 0.173648 0.173648 0.984808 131.768 159.276)" fill="#02004D"/>
<rect width="8.98876" height="28.8148" transform="matrix(-0.984808 0.173648 0.173648 0.984808 219.371 100.599)" fill="url(#paint0_linear_2184_2673)"/>
<rect width="9.32408" height="55.0829" transform="matrix(-0.984808 0.173648 0.173648 0.984808 207.887 85.293)" fill="url(#paint1_linear_2184_2673)"/>
<rect width="10.117" height="72.9582" transform="matrix(-0.984808 0.173648 0.173648 0.984808 198.254 77.8702)" fill="url(#paint2_linear_2184_2673)"/>
<rect width="6.92026" height="74.6511" transform="matrix(-0.984808 0.173648 0.173648 0.984808 186.73 70.7803)" fill="url(#paint3_linear_2184_2673)"/>
<rect width="6.92026" height="74.1366" transform="matrix(-0.984808 0.173648 0.173648 0.984808 183.727 71.5356)" fill="url(#paint4_linear_2184_2673)"/>
<rect width="8.98876" height="70.8743" transform="matrix(-0.984808 0.173648 0.173648 0.984808 177.877 72.3411)" fill="url(#paint5_linear_2184_2673)"/>
<rect width="9.39922" height="79.9129" transform="matrix(-0.984808 0.173648 0.173648 0.984808 167.873 64.9833)" fill="url(#paint6_linear_2184_2673)"/>
<rect width="8.98876" height="80.0355" transform="matrix(-0.984808 0.173648 0.173648 0.984808 158.613 66.6164)" fill="url(#paint7_linear_2184_2673)"/>
<rect width="8.98876" height="80.1827" transform="matrix(-0.984808 0.173648 0.173648 0.984808 149.762 68.1773)" fill="url(#paint8_linear_2184_2673)"/>
<rect width="10.3605" height="88.7962" transform="matrix(-0.984808 0.173648 0.173648 0.984808 142.262 69.4984)" fill="url(#paint9_linear_2184_2673)"/>
<rect width="8.98876" height="79.9491" transform="matrix(-0.984808 0.173648 0.173648 0.984808 132.057 71.299)" fill="url(#paint10_linear_2184_2673)"/>
<rect width="8.08989" height="71.8643" transform="matrix(-0.984808 0.173648 0.173648 0.984808 123.205 72.8599)" fill="url(#paint11_linear_2184_2673)"/>
<rect width="8.98876" height="44.9152" transform="matrix(-0.984808 0.173648 0.173648 0.984808 116.797 83.1112)" fill="url(#paint12_linear_2184_2673)"/>
<rect width="8.98876" height="17.9661" transform="matrix(-0.984808 0.173648 0.173648 0.984808 107.945 84.6721)" fill="url(#paint13_linear_2184_2673)"/>
<rect x="186.625" y="256.822" width="100.291" height="16.0897" transform="rotate(-140 186.625 256.822)" fill="#626161"/>
<rect x="188.98" y="238.395" width="83.2566" height="8.00745" transform="rotate(-140 188.98 238.395)" fill="#626161"/>
<rect x="177.426" y="220.328" width="27.6294" height="8.00745" transform="rotate(-140 177.426 220.328)" fill="#626161"/>
<rect x="168.664" y="246.732" width="49.688" height="8.28845" transform="rotate(-140 168.664 246.732)" fill="#626161"/>
<rect x="154.449" y="249.584" width="33.7833" height="13.5891" transform="rotate(-140 154.449 249.584)" fill="#626161"/>
<rect x="105.947" y="199.958" width="18.0691" height="5.78844" transform="rotate(-140 105.947 199.958)" fill="#FFFEFE"/>
<rect width="10.4871" height="8.98304" transform="matrix(-0.766044 -0.642788 -0.642788 0.766044 175.385 255.574)" fill="white"/>
<rect width="8.98876" height="8.98304" transform="matrix(-0.766044 -0.642788 -0.642788 0.766044 162.725 256.677)" fill="white"/>
<rect width="60.2247" height="8.98304" transform="matrix(-0.766044 -0.642788 -0.642788 0.766044 149.377 257.203)" fill="white"/>
<rect width="43.1461" height="8.98304" transform="matrix(-0.766044 -0.642788 -0.642788 0.766044 128.295 227.788)" fill="white"/>
<rect width="17.9775" height="8.98304" transform="matrix(-0.766044 -0.642788 -0.642788 0.766044 107.215 198.373)" fill="white"/>
<rect width="8.98876" height="8.60954" transform="matrix(-0.766044 -0.642788 -0.642788 0.766044 169.609 262.455)" fill="#636363"/>
<rect width="9.88764" height="8.30403" transform="matrix(-0.766044 -0.642788 -0.642788 0.766044 156.949 263.559)" fill="#636363"/>
<rect width="52.7858" height="8.47432" transform="matrix(-0.766044 -0.642788 -0.642788 0.766044 137.402 258.885)" fill="#636363"/>
<rect width="17.9775" height="8.61791" transform="matrix(-0.766044 -0.642788 -0.642788 0.766044 103.24 218.491)" fill="#636363"/>
<rect width="9.88764" height="8.33584" transform="matrix(-0.766044 -0.642788 -0.642788 0.766044 95.2441 200.054)" fill="#636363"/>
<rect width="8.08989" height="17.4374" transform="matrix(-0.766044 -0.642788 -0.642788 0.766044 99.2168 179.936)" fill="#636363"/>
<rect x="177.24" y="267.896" width="9.41061" height="5.78844" transform="rotate(-140 177.24 267.896)" fill="#656565"/>
<defs>
<filter id="filter0_d_2184_2673" x="141.31" y="133.189" width="71.731" height="67.4075" filterUnits="userSpaceOnUse" color-interpolation-filters="sRGB">
<feFlood flood-opacity="0" result="BackgroundImageFix"/>
<feColorMatrix in="SourceAlpha" type="matrix" values="0 0 0 0 0 0 0 0 0 0 0 0 0 0 0 0 0 0 127 0" result="hardAlpha"/>
<feOffset/>
<feGaussianBlur stdDeviation="13.3029"/>
<feComposite in2="hardAlpha" operator="out"/>
<feColorMatrix type="matrix" values="0 0 0 0 0.975 0 0 0 0 0.865128 0 0 0 0 0.629687 0 0 0 1 0"/>
<feBlend mode="normal" in2="BackgroundImageFix" result="effect1_dropShadow_2184_2673"/>
<feBlend mode="normal" in="SourceGraphic" in2="effect1_dropShadow_2184_2673" result="shape"/>
</filter>
<linearGradient id="paint0_linear_2184_2673" x1="4.49438" y1="0" x2="4.49438" y2="28.8148" gradientUnits="userSpaceOnUse">
<stop stop-color="#654CFF"/>
<stop offset="1" stop-color="#0014C6"/>
</linearGradient>
<linearGradient id="paint1_linear_2184_2673" x1="4.66204" y1="0" x2="4.66204" y2="55.0829" gradientUnits="userSpaceOnUse">
<stop stop-color="#654CFF"/>
<stop offset="1" stop-color="#0014C6"/>
</linearGradient>
<linearGradient id="paint2_linear_2184_2673" x1="5.05849" y1="0" x2="5.05849" y2="72.9582" gradientUnits="userSpaceOnUse">
<stop stop-color="#654CFF"/>
<stop offset="1" stop-color="#0014C6"/>
</linearGradient>
<linearGradient id="paint3_linear_2184_2673" x1="3.46013" y1="0" x2="3.46013" y2="74.6511" gradientUnits="userSpaceOnUse">
<stop stop-color="#654CFF"/>
<stop offset="1" stop-color="#0014C6"/>
</linearGradient>
<linearGradient id="paint4_linear_2184_2673" x1="3.46013" y1="0" x2="3.46013" y2="74.1366" gradientUnits="userSpaceOnUse">
<stop stop-color="#654CFF"/>
<stop offset="1" stop-color="#0014C6"/>
</linearGradient>
<linearGradient id="paint5_linear_2184_2673" x1="4.49438" y1="0" x2="4.49438" y2="70.8743" gradientUnits="userSpaceOnUse">
<stop stop-color="#654CFF"/>
<stop offset="1" stop-color="#0014C6"/>
</linearGradient>
<linearGradient id="paint6_linear_2184_2673" x1="4.69961" y1="0" x2="4.69961" y2="79.9129" gradientUnits="userSpaceOnUse">
<stop stop-color="#654CFF"/>
<stop offset="1" stop-color="#0014C6"/>
</linearGradient>
<linearGradient id="paint7_linear_2184_2673" x1="4.49438" y1="0" x2="4.49438" y2="80.0355" gradientUnits="userSpaceOnUse">
<stop stop-color="#654CFF"/>
<stop offset="1" stop-color="#0014C6"/>
</linearGradient>
<linearGradient id="paint8_linear_2184_2673" x1="4.49438" y1="0" x2="4.49438" y2="80.1827" gradientUnits="userSpaceOnUse">
<stop stop-color="#654CFF"/>
<stop offset="1" stop-color="#0014C6"/>
</linearGradient>
<linearGradient id="paint9_linear_2184_2673" x1="5.18027" y1="0" x2="5.18027" y2="88.7962" gradientUnits="userSpaceOnUse">
<stop stop-color="#654CFF"/>
<stop offset="1" stop-color="#0014C6"/>
</linearGradient>
<linearGradient id="paint10_linear_2184_2673" x1="4.49438" y1="0" x2="4.49438" y2="79.9491" gradientUnits="userSpaceOnUse">
<stop stop-color="#654CFF"/>
<stop offset="1" stop-color="#0014C6"/>
</linearGradient>
<linearGradient id="paint11_linear_2184_2673" x1="4.04494" y1="0" x2="4.04494" y2="71.8643" gradientUnits="userSpaceOnUse">
<stop stop-color="#654CFF"/>
<stop offset="1" stop-color="#0014C6"/>
</linearGradient>
<linearGradient id="paint12_linear_2184_2673" x1="4.49438" y1="0" x2="4.49438" y2="44.9152" gradientUnits="userSpaceOnUse">
<stop stop-color="#654CFF"/>
<stop offset="1" stop-color="#0014C6"/>
</linearGradient>
<linearGradient id="paint13_linear_2184_2673" x1="4.49438" y1="0" x2="4.49438" y2="17.9661" gradientUnits="userSpaceOnUse">
<stop stop-color="#654CFF"/>
<stop offset="1" stop-color="#0014C6"/>
</linearGradient>
</defs>
</svg>
